<svg width="442" height="314" viewBox="0 0 442 314" fill="none" xmlns="http://www.w3.org/2000/svg">
<path d="M374.022 303.094C412.348 284.794 432.296 244.137 438.266 204.746C442.858 174.448 443.022 145.06 430.246 116.825C420.038 94.2647 396.35 74.8242 370.667 68.71C352.039 64.2759 335.004 64.305 315.836 62.7944C272.348 59.3677 237.218 29.12 195.785 16.4768C144.305 0.767625 83.9876 15.1596 45.8749 50.7053C7.76225 86.2511 -7.21915 140.907 6.12688 189.338C19.4729 237.769 62.3669 283.867 112.78 302.281" fill="#F3F5F4"/>
<path d="M422.493 150.628C420.018 147.975 415.724 148.442 412.246 149.474C396.416 154.169 383.229 166.782 377.545 182.25C368.121 195.184 360.522 209.441 355.078 224.511C353.77 228.131 352.604 231.8 351.553 235.501C351.899 228.755 352.287 222.011 352.57 215.265C353.086 203.002 353.061 190.74 352.35 178.5C361.686 172.261 370.55 165.315 378.828 157.726C389.544 147.904 399.594 136.473 403.507 122.474C404.81 117.813 405.171 112.204 401.799 108.733C397.84 104.656 390.897 105.803 386.019 108.717C380.658 111.92 376.464 116.755 372.815 121.823C362.577 136.039 354.597 154.422 351.917 172.164C351.823 170.964 351.735 169.764 351.626 168.566C351.21 163.932 350.688 159.309 350.076 154.698C353.556 140.807 354.72 126.338 353.476 112.072C353.062 107.329 352.368 102.541 350.477 98.1718C348.585 93.8022 345.37 89.8463 341.021 87.9073C335.447 85.4215 328.366 86.8032 324.178 91.2425C320.312 95.3398 319.116 101.297 319.047 106.93C318.798 126.895 332.535 147.122 348.629 158.993C349.544 166.64 350.192 174.318 350.572 182.012C347.864 173.82 342.352 164.514 337.503 157.833C332.221 150.556 324.418 144.733 315.51 143.51C312.271 143.066 308.464 143.483 306.58 146.154C304.49 149.119 305.823 153.227 307.544 156.42C316.004 172.128 332.88 182.941 350.675 184.128C350.751 185.885 350.817 187.642 350.864 189.401C351.28 204.842 350.349 220.241 349.558 235.652C345.714 221.678 339.152 208.577 332.022 195.993C331.688 195.404 331.345 194.821 331.009 194.234C329.127 189.158 325.976 183.689 323.137 179.623C319.662 174.649 314.468 170.625 308.473 169.692C306.293 169.353 303.719 169.588 302.415 171.368C300.969 173.343 301.819 176.13 302.941 178.306C308.279 188.663 318.996 196.016 330.551 197.402C332.13 200.191 333.676 202.999 335.169 205.833C331.585 203.507 326.616 201.608 322.689 200.517C318.643 199.394 314.141 199.482 310.422 201.383C304.754 192.248 293.718 180.079 284.441 177.261C278.949 174.628 272.557 173.307 266.776 172.925C254.688 172.127 234.396 167.581 232.338 170.175C232.162 170.481 231.968 170.757 231.782 171.049C228.133 167.779 225.177 164.256 223.945 160.619C222.49 156.327 221.783 152.979 221.424 149.672C221.614 149.774 221.799 149.885 221.996 149.969C229.913 153.97 227.86 142.953 231.896 139.182C236.871 134.534 239.119 127.569 239.565 120.776C239.761 117.804 239.639 114.758 238.646 111.95C236.944 107.135 232.652 103.479 227.738 102.052C229.558 101.186 231.552 100.672 233.564 100.63C238.352 100.527 243.061 102.82 246.216 106.425C243.792 100.512 238.143 96.0416 231.831 95.0393C229.794 94.716 227.634 94.7586 225.73 95.5051C225.108 92.6481 223.416 89.8712 221.338 87.7545C219.427 85.8083 217.07 84.123 214.366 83.7685C210.094 83.2091 206.136 86.0089 202.064 87.4831C200.855 85.1034 199.34 82.8879 197.498 80.9468C192.385 75.5635 184.75 72.4633 177.394 73.4697C182.217 75.9222 187.024 78.5494 191.013 82.2048C192.75 83.7965 194.308 85.618 195.592 87.5996C195.161 87.5965 194.722 87.6006 194.276 87.61C192.925 87.061 191.648 86.2834 190.378 85.5494C186.262 83.1686 181.84 81.161 177.13 80.5071C172.42 79.8521 167.369 80.6693 163.545 83.495C161.132 85.278 159.32 87.7566 157.798 90.3422C156.237 92.9923 154.927 95.8368 154.411 98.8684C152.88 107.871 158.464 116.524 159.265 125.621C159.645 129.943 159.01 134.622 161.249 138.338C162.431 135.591 165.448 134.082 168.381 133.499C168.944 133.388 169.51 133.306 170.079 133.235C170.584 136.772 171.351 140.286 172.263 143.735C173.536 148.539 175.121 153.355 177.725 157.556C177.201 159.972 176.676 162.388 176.152 164.804C176.013 163.714 175.85 162.627 175.638 161.548C174.794 157.259 173.02 152.921 169.557 150.253C169.339 150.085 169.046 149.918 168.805 150.054C168.596 150.17 168.555 150.449 168.545 150.687C168.421 153.386 169.23 156.026 169.936 158.635C171.632 164.907 172.769 171.329 173.331 177.802C172.821 180.157 172.326 182.637 173.034 184.935C173.165 185.359 173.357 185.763 173.584 186.144C175.396 189.199 178.814 191.956 182.477 194.799C179.849 196.81 177.458 199.082 175.476 201.755C170.1 208.998 168.385 218.252 167.085 227.177C166.123 233.771 165.305 240.384 164.488 246.997C162.17 265.732 159.853 284.465 157.536 303.199C157.302 305.086 157.124 307.191 158.276 308.703C159.317 310.068 161.142 310.533 162.84 310.784C167.244 311.437 171.724 311.253 176.172 311.067C181.98 310.824 187.787 310.58 193.596 310.337C195.739 310.646 197.968 310.661 200.114 310.644C205.396 310.602 210.678 310.561 215.96 310.52C216.191 310.583 216.429 310.632 216.663 310.673C238.774 314.521 261.437 312.334 283.772 310.138C291.538 309.375 299.303 308.611 307.069 307.848C311.445 307.418 316.214 306.806 319.267 303.642C320.949 301.899 321.887 299.581 322.65 297.282C323.502 294.715 324.167 292.115 324.693 289.493L326.542 310.014C326.631 311 327.262 311.771 328.056 311.929C328.153 311.951 328.253 311.962 328.355 311.962H370.047C370.28 311.962 370.503 311.91 370.709 311.813C370.915 311.718 371.103 311.577 371.266 311.404C371.522 311.127 371.71 310.762 371.804 310.347C371.828 310.239 371.851 310.129 371.861 310.014L375.976 264.547L376.386 260.022C376.405 259.817 376.391 259.619 376.364 259.426C376.359 259.395 376.354 259.365 376.347 259.334C376.314 259.149 376.264 258.973 376.195 258.808C375.895 258.102 375.29 257.605 374.573 257.605H350.776C350.82 253.462 350.936 249.322 351.102 245.182C351.116 245.145 351.14 245.12 351.149 245.078C352.275 240.072 353.649 235.125 355.232 230.248C355.355 230.179 355.469 230.082 355.565 229.947C361.275 221.947 368.734 215.565 376.571 209.711C380.644 210.028 385.481 209.527 389.196 208.804C393.585 207.952 397.847 205.657 400.269 201.899C401.148 200.533 401.76 198.729 400.952 197.319C400.055 195.755 397.923 195.494 396.123 195.599C387.589 196.096 379.465 201.072 375.064 208.388C368.568 213.272 362.353 218.52 357.13 224.734C362.048 211.216 368.698 198.334 376.903 186.513C385.757 185.804 396.769 182.095 404.747 178.512C412.949 174.829 420.244 168.379 423.26 159.909C424.354 156.829 424.724 153.017 422.493 150.628ZM335.699 206.841C339.502 214.142 342.93 221.624 345.591 229.429C346.243 231.341 346.836 233.273 347.386 235.215C341.861 231.461 336.097 228.081 330.124 225.108C325.853 221.724 321.396 218.581 316.786 215.677C316.235 213.981 315.639 212.302 314.983 210.646C322.018 212.229 329.708 210.875 335.699 206.841ZM192.426 166.36C194.253 166.244 196.072 165.843 197.769 165.17C198.855 164.74 199.89 164.209 200.885 163.608C202.703 168.968 203.805 174.546 204.514 180.206C203.511 180.011 202.493 179.868 201.532 180.183C200.425 180.546 199.569 181.459 198.775 182.354C197.364 183.941 196.002 185.576 194.673 187.241C192.536 185.834 190.691 184.565 188.033 183.086C187.609 182.85 187.167 182.588 186.935 182.161C186.637 181.612 186.76 180.938 186.918 180.334C188.183 175.499 191.123 171.104 192.426 166.36ZM182.075 162.882C183.015 163.712 184.042 164.437 185.163 165C185.914 165.376 186.703 165.649 187.506 165.872C185.339 170.308 183.172 174.743 181.006 179.18C180.797 173.746 182.364 168.235 182.075 162.882ZM325.204 257.605C324.416 251.021 323.263 244.45 322.05 237.991C321.528 235.213 320.995 232.427 320.411 229.653C324.486 229.591 328.496 229.199 332.325 228.457C337.58 231.226 342.67 234.303 347.549 237.702C347.731 237.828 347.917 237.868 348.1 237.873C348.509 239.466 348.888 241.065 349.222 242.676C349.003 247.65 348.851 252.626 348.8 257.604H325.204V257.605Z" fill="#DFE5E1"/>
<path d="M364.162 140.289C366.774 155.679 368.304 171.246 368.724 186.851C369.146 202.526 368.179 218.156 367.381 233.802C366.93 242.625 366.575 251.455 366.636 260.292C366.646 261.566 368.625 261.569 368.616 260.292C368.505 244.411 369.762 228.572 370.429 212.715C371.084 197.133 370.884 181.553 369.485 166.014C368.693 157.223 367.547 148.465 366.07 139.762C365.858 138.509 363.951 139.04 364.162 140.289Z" fill="#212F19"/>
<path d="M369.006 242.528C374.363 218.706 385.009 196.122 399.989 176.834C404.176 171.442 408.703 166.318 413.523 161.482C414.423 160.578 413.024 159.178 412.123 160.082C394.736 177.53 381.305 198.796 372.938 221.96C370.572 228.511 368.625 235.207 367.097 242.002C366.818 243.242 368.726 243.772 369.006 242.528Z" fill="#212F19"/>
<path d="M369.073 239.982C365.702 223.396 358.17 208.071 349.882 193.442C347.505 189.247 345.059 185.092 342.61 180.938C341.963 179.841 340.251 180.836 340.901 181.937C349.41 196.366 358.018 210.954 363.451 226.878C364.973 231.341 366.226 235.888 367.165 240.508C367.418 241.756 369.327 241.228 369.073 239.982Z" fill="#212F19"/>
<path d="M368.979 176.778C370.326 156.931 379.05 135.416 390.674 119.273C394.323 114.205 398.517 109.371 403.879 106.168C408.757 103.253 415.699 102.107 419.658 106.183C423.03 109.655 422.669 115.265 421.367 119.924C417.453 133.923 407.403 145.355 396.687 155.177C388.046 163.098 378.77 170.329 368.979 176.778Z" fill="#658B4D"/>
<g opacity="0.43">
<path d="M373.777 171.038C382.77 154.836 392.855 139.246 403.97 124.418C407.167 120.153 410.451 115.956 413.815 111.821C414.612 110.841 413.219 109.432 412.415 110.422C400.621 124.923 389.808 140.214 380.106 156.192C377.335 160.754 374.658 165.373 372.067 170.039C371.449 171.154 373.158 172.153 373.777 171.038Z" fill="#E5E3DF"/>
</g>
<path d="M366.736 156.627C350.536 144.781 336.658 124.447 336.907 104.379C336.977 98.7465 338.172 92.7893 342.038 88.692C346.227 84.2527 353.307 82.87 358.881 85.3568C363.229 87.2958 366.446 91.2517 368.336 95.6213C370.227 99.991 370.921 104.779 371.335 109.521C372.715 125.326 371.146 141.386 366.736 156.627Z" fill="#658B4D"/>
<g opacity="0.43">
<path d="M349.041 95.4893C354.229 110.674 358.746 126.086 362.559 141.674C363.64 146.094 364.662 150.529 365.632 154.974C365.903 156.219 367.812 155.691 367.541 154.448C364.12 138.77 360.009 123.245 355.203 107.935C353.84 103.593 352.42 99.2705 350.95 94.9643C350.54 93.7645 348.627 94.2792 349.041 95.4893Z" fill="#E5E3DF"/>
</g>
<path d="M369.096 181.628C351.096 180.634 333.953 169.743 325.405 153.871C323.684 150.677 322.35 146.568 324.441 143.603C326.325 140.931 330.132 140.514 333.37 140.959C342.278 142.182 350.082 148.006 355.363 155.283C360.645 162.56 366.723 172.956 369.096 181.628Z" fill="#658B4D"/>
<path d="M349.942 195.016C337.808 194.126 326.375 186.569 320.801 175.756C319.679 173.58 318.829 170.791 320.275 168.817C321.579 167.037 324.152 166.802 326.333 167.141C332.328 168.075 337.522 172.099 340.997 177.073C344.471 182.048 348.446 189.136 349.942 195.016Z" fill="#658B4D"/>
<path d="M354.047 203.967C346.735 209.151 336.695 210.22 328.456 206.691C326.797 205.98 325.007 204.794 324.903 202.995C324.809 201.372 326.161 200.032 327.558 199.202C331.403 196.92 336.242 196.77 340.549 197.967C344.856 199.163 350.439 201.327 354.047 203.967Z" fill="#658B4D"/>
<path d="M392.297 206.913C396.524 199.01 405.031 193.569 413.979 193.05C415.78 192.945 417.911 193.206 418.808 194.77C419.617 196.18 419.006 197.984 418.125 199.35C415.704 203.108 411.441 205.403 407.053 206.255C402.664 207.108 396.704 207.664 392.297 206.913Z" fill="#658B4D"/>
<path d="M394.008 184.024C398.659 166.606 412.821 152.049 430.105 146.923C433.583 145.891 437.878 145.425 440.353 148.077C442.583 150.466 442.214 154.278 441.118 157.358C438.102 165.829 430.807 172.278 422.605 175.961C414.4 179.645 402.983 183.472 394.008 184.024Z" fill="#658B4D"/>
<path d="M373.422 227.396C381.297 216.364 392.493 208.404 403.429 200.67C404.461 199.94 403.473 198.223 402.43 198.961C391.198 206.905 379.799 215.069 371.713 226.397C370.97 227.436 372.687 228.426 373.422 227.396Z" fill="#212F19"/>
<path d="M366.68 233.635C357.567 227.286 347.775 221.972 337.471 217.822C336.292 217.347 335.448 219.138 336.631 219.616C346.773 223.699 356.436 228.902 365.408 235.152C366.447 235.876 367.726 234.364 366.68 233.635Z" fill="#212F19"/>
<path d="M351.728 225.599C338.369 228.569 322.474 226.996 309.559 222.464C305.504 221.04 301.499 219.213 298.342 216.297C295.47 213.644 293.363 209.286 295.285 205.88C296.92 202.981 300.692 202.127 304.021 202.081C314.021 201.942 323.519 206.352 332.085 211.514C338.994 215.677 345.569 220.392 351.728 225.599Z" fill="#658B4D"/>
<g opacity="0.43">
<path d="M347.008 223.55C334.567 220.766 322.318 217.141 310.37 212.689C306.934 211.408 303.525 210.057 300.143 208.642C299.341 208.306 298.682 209.5 299.491 209.837C311.355 214.801 323.549 218.965 335.98 222.26C339.529 223.201 343.098 224.07 346.682 224.872C347.538 225.064 347.865 223.743 347.008 223.55Z" fill="#E5E3DF"/>
</g>
<path d="M387.905 309.411H346.213C345.282 309.411 344.499 308.571 344.399 307.462L339.894 257.471C339.778 256.18 340.623 255.055 341.708 255.055H392.43C393.515 255.055 394.36 256.182 394.244 257.472L389.719 307.464C389.619 308.571 388.837 309.411 387.905 309.411Z" fill="#9EDDB6"/>
<path d="M393.764 257.262C389.18 270.736 384.197 287.688 373.735 297.855C365.996 305.377 355.595 308.123 345.139 308.958C345.444 309.228 345.808 309.41 346.213 309.41H387.905C388.837 309.41 389.619 308.57 389.718 307.463L394.243 257.471C394.283 257.033 394.205 256.62 394.051 256.257C393.975 256.586 393.88 256.921 393.764 257.262Z" fill="#4F6F5B"/>
<path d="M102.747 7.17155V27.9418C102.747 31.0909 105.299 33.6432 108.449 33.6432H146.785C148.87 33.6432 150.878 34.4417 152.394 35.8743L158.843 41.9688C159.696 42.7755 161.102 42.1705 161.102 40.9956V35.6196C161.102 34.528 161.987 33.6432 163.078 33.6432C166.555 33.6432 169.373 30.8247 169.373 27.3481V7.61236C169.373 3.985 166.432 1.04382 162.805 1.04382H108.874C105.49 1.04382 102.747 3.78747 102.747 7.17155Z" fill="white" stroke="#F7D6AB" stroke-miterlimit="10"/>
<path d="M143.138 15.1789C148.459 9.52629 146.18 6.85646 144 5.87399C141.796 4.88008 139.901 6.26178 138.761 9.43168C138.324 10.645 138.837 11.7969 139.636 12.7575C140.35 13.6153 140.262 14.8951 139.487 15.6977C138.43 16.7914 137.131 17.9568 135.62 18.9788C134.684 19.612 133.434 19.3126 132.792 18.3831C132.111 17.3975 131.194 16.6396 130.013 16.8008C126.982 17.2166 125.366 18.722 125.776 21.0207C126.104 22.864 127.398 25.0026 131.126 23.6905C136.861 22.156 141.031 17.8342 143.138 15.1789Z" fill="#3BB77E"/>
<path d="M226.528 17.202V41.4166C226.528 45.0876 228.902 48.0631 231.83 48.0631H267.476C269.416 48.0631 271.281 48.9936 272.692 50.6643L278.689 57.7693C279.483 58.7102 280.79 58.0043 280.79 56.634V50.367C280.79 49.0944 281.613 48.0621 282.628 48.0621C285.86 48.0621 288.481 44.7768 288.481 40.7231V17.7146C288.481 13.4853 285.747 10.0565 282.373 10.0565H232.227C229.079 10.0586 226.528 13.2565 226.528 17.202Z" fill="white" stroke="#F7D6AB" stroke-miterlimit="10"/>
<path d="M258.227 27.8631L270.89 20.3724C270.597 20.1728 270.243 20.0553 269.861 20.0553H245.145C244.756 20.0553 244.396 20.179 244.1 20.3859C245.785 21.4006 249.202 23.4966 256.212 27.8423C256.829 28.226 257.601 28.2332 258.227 27.8631Z" fill="#3BB77E"/>
<path d="M258.566 29.2683C258.154 29.5126 257.695 29.6342 257.236 29.6342C256.76 29.6342 256.283 29.5032 255.861 29.2412C250.036 25.6295 245.707 22.9648 243.622 21.7058C243.429 21.9959 243.315 22.3431 243.315 22.7174V36.6529C243.315 37.6635 244.135 38.4827 245.145 38.4827H269.861C270.871 38.4827 271.691 37.6635 271.691 36.6529V22.7174C271.691 22.3369 271.574 21.9834 271.376 21.6913L258.566 29.2683Z" fill="#3BB77E"/>
<path d="M111.996 105.371C121.615 104.266 131.205 101.023 138.861 94.9675C146.137 89.2109 151.244 80.6411 151.573 71.2353C151.726 66.8334 150.808 62.1581 148.497 58.3644C146.3 54.7589 142.508 51.5308 138.067 51.6431C133.963 51.747 130.431 54.9201 129.689 58.9342C128.902 63.1884 131.563 67.1381 134.898 69.5137C139.061 72.4808 144.522 73.3542 149.485 72.3852C154.206 71.463 158.467 68.9554 162.154 65.9425C166.151 62.679 169.47 58.7044 173.042 55.0053C176.712 51.2054 180.707 47.7984 185.53 45.5517C190.391 43.2874 195.784 42.1448 201.144 42.1989C203.857 42.2269 206.692 42.5222 209.15 43.7552C211.242 44.8053 213.203 46.7255 213.484 49.1562C213.769 51.6285 212.164 53.8076 210.363 55.3151C208.665 56.7353 206.567 57.7209 204.341 57.8872C202.426 58.0307 200.144 57.4589 199.523 55.3879C198.852 53.1474 200.849 50.9007 202.62 49.8413C207.064 47.1819 212.931 48.0583 217.513 49.8517C221.965 51.5942 225.913 54.421 229.786 57.1719C233.587 59.873 237.417 62.6135 241.734 64.4381C246.295 66.3656 251.242 67.0341 256.143 66.2616C258.6 65.8738 260.979 65.1201 263.217 64.0357C263.677 63.8122 263.275 63.126 262.815 63.3485C257.982 65.6888 252.363 66.3833 247.102 65.301C242.423 64.3383 238.223 61.9938 234.296 59.3542C226.615 54.1902 218.772 47.1507 208.915 47.4034C206.614 47.4626 204.211 47.9617 202.218 49.1541C200.529 50.1657 198.967 51.877 198.662 53.8856C198.395 55.6364 199.318 57.3196 200.896 58.1056C202.53 58.9196 204.499 58.8167 206.222 58.3675C210.013 57.3809 214.383 53.9033 214.312 49.6386C214.229 44.7616 208.979 42.2571 204.824 41.6655C194.574 40.2058 183.928 43.9891 176.277 50.7677C168.711 57.4714 162.986 66.6005 153.232 70.4493C148.247 72.4164 142.609 72.563 137.708 70.2393C133.709 68.3441 129.756 64.2603 130.402 59.482C131.015 54.9388 135.407 51.668 139.929 52.6037C144.539 53.5571 147.802 57.7957 149.341 62.0011C152.641 71.017 150.005 81.2347 144.17 88.5996C138.062 96.3097 128.756 101.004 119.34 103.278C116.921 103.863 114.467 104.292 111.995 104.576C111.493 104.633 111.487 105.43 111.996 105.371Z" fill="#F7D6AB"/>
<path d="M32.2593 61.0281V87.636C32.2593 91.6698 35.529 94.9395 39.5628 94.9395H88.675C91.347 94.9395 93.918 95.9625 95.8611 97.7975L104.123 105.605C105.217 106.64 107.018 105.864 107.018 104.359V97.4721C107.018 96.0738 108.151 94.9395 109.55 94.9395C114.004 94.9395 117.615 91.3288 117.615 86.8749V61.5916C117.615 56.9443 113.847 53.1766 109.2 53.1766H40.1087C35.7733 53.1787 32.2593 56.6927 32.2593 61.0281Z" fill="white" stroke="#F7D6AB" stroke-miterlimit="10"/>
<path d="M47.4661 65.4534C49.1919 65.4534 50.9188 65.4534 52.6446 65.4534C56.7543 65.4534 60.8641 65.4534 64.9739 65.4534C69.958 65.4534 74.9421 65.4534 79.9262 65.4534C84.2334 65.4534 88.5397 65.4534 92.847 65.4534C94.9304 65.4534 97.0285 65.5293 99.1109 65.4534C99.141 65.4524 99.1712 65.4534 99.2013 65.4534C100.225 65.4534 100.226 63.8617 99.2013 63.8617C97.4755 63.8617 95.7486 63.8617 94.0228 63.8617C89.9131 63.8617 85.8033 63.8617 81.6936 63.8617C76.7095 63.8617 71.7254 63.8617 66.7413 63.8617C62.434 63.8617 58.1277 63.8617 53.8205 63.8617C51.737 63.8617 49.639 63.7858 47.5565 63.8617C47.5264 63.8628 47.4962 63.8617 47.4661 63.8617C46.442 63.8617 46.44 65.4534 47.4661 65.4534Z" fill="#3BB77E"/>
<path d="M47.4661 75.0111C49.1919 75.0111 50.9188 75.0111 52.6446 75.0111C56.7543 75.0111 60.8641 75.0111 64.9739 75.0111C69.958 75.0111 74.9421 75.0111 79.9262 75.0111C84.2334 75.0111 88.5397 75.0111 92.847 75.0111C94.9304 75.0111 97.0285 75.087 99.1109 75.0111C99.141 75.0101 99.1712 75.0111 99.2013 75.0111C100.225 75.0111 100.226 73.4194 99.2013 73.4194C97.4755 73.4194 95.7486 73.4194 94.0228 73.4194C89.9131 73.4194 85.8033 73.4194 81.6936 73.4194C76.7095 73.4194 71.7254 73.4194 66.7413 73.4194C62.434 73.4194 58.1277 73.4194 53.8205 73.4194C51.737 73.4194 49.639 73.3435 47.5565 73.4194C47.5264 73.4205 47.4962 73.4194 47.4661 73.4194C46.442 73.4194 46.44 75.0111 47.4661 75.0111Z" fill="#3BB77E"/>
<path d="M62.0099 84.5685C63.2429 84.5685 64.4749 84.5685 65.708 84.5685C68.6678 84.5685 71.6277 84.5685 74.5876 84.5685C78.1692 84.5685 81.7508 84.5685 85.3314 84.5685C88.4275 84.5685 91.5246 84.5685 94.6207 84.5685C96.1209 84.5685 97.6367 84.6329 99.137 84.5685C99.1578 84.5674 99.1796 84.5685 99.2004 84.5685C100.224 84.5685 100.225 82.9768 99.2004 82.9768C97.9674 82.9768 96.7354 82.9768 95.5023 82.9768C92.5425 82.9768 89.5826 82.9768 86.6227 82.9768C83.0411 82.9768 79.4594 82.9768 75.8789 82.9768C72.7828 82.9768 69.6857 82.9768 66.5896 82.9768C65.0894 82.9768 63.5735 82.9123 62.0744 82.9768C62.0536 82.9778 62.0317 82.9768 62.0109 82.9768C60.9858 82.9768 60.9838 84.5685 62.0099 84.5685Z" fill="#3BB77E"/>
<path d="M44.8055 303.26C44.5445 302.247 44.2836 301.235 44.0236 300.221C43.3146 297.465 42.6045 294.71 41.8955 291.954C40.8506 287.894 39.8058 283.834 38.7599 279.774C37.4853 274.823 36.2107 269.872 34.9371 264.923C33.5419 259.501 32.1456 254.079 30.7504 248.657C29.3365 243.167 27.9236 237.675 26.5096 232.185C25.1914 227.066 23.8741 221.947 22.5569 216.828C21.4476 212.518 20.3372 208.207 19.2279 203.897C18.4295 200.797 17.632 197.698 16.8336 194.597C16.4552 193.128 16.1038 191.65 15.6983 190.188C15.6806 190.125 15.6661 190.061 15.6494 189.997C15.2668 188.51 12.964 189.14 13.3476 190.631C13.6086 191.644 13.8695 192.656 14.1295 193.67C14.8385 196.426 15.5486 199.181 16.2576 201.937C17.3025 205.997 18.3473 210.057 19.3932 214.117C20.6678 219.068 21.9424 224.018 23.2171 228.969C24.6123 234.391 26.0085 239.813 27.4037 245.235C28.8177 250.725 30.2306 256.217 31.6445 261.708C32.9617 266.827 34.28 271.945 35.5973 277.065C36.7066 281.375 37.8169 285.686 38.9262 289.996C39.7247 293.096 40.5221 296.195 41.3205 299.296C41.699 300.765 42.0514 302.243 42.4559 303.705C42.4735 303.768 42.4891 303.832 42.5047 303.896C42.8863 305.382 45.1891 304.752 44.8055 303.26Z" fill="#213A32"/>
<path d="M12.0701 216.055C12.5556 215.41 13.0411 214.767 13.5256 214.122C14.8397 212.377 16.1538 210.633 17.468 208.888C19.41 206.31 21.3521 203.733 23.2931 201.154C25.6719 197.997 28.0496 194.839 30.4283 191.682C33.0233 188.237 35.6193 184.791 38.2142 181.346C40.8342 177.868 43.4531 174.391 46.073 170.913C48.5245 167.659 50.976 164.404 53.4275 161.15C55.4912 158.41 57.5539 155.671 59.6176 152.932C61.1022 150.962 62.5858 148.992 64.0694 147.022C64.7712 146.089 65.5114 145.175 66.1809 144.219C66.21 144.177 66.2423 144.138 66.2724 144.097C66.6602 143.581 66.3545 142.763 65.8441 142.464C65.2328 142.106 64.6007 142.375 64.2108 142.892C63.7253 143.537 63.2408 144.18 62.7553 144.825C61.4411 146.569 60.127 148.314 58.8129 150.058C56.8708 152.637 54.9288 155.214 52.9867 157.792C50.609 160.95 48.2303 164.107 45.8515 167.265C43.2566 170.71 40.6616 174.156 38.0656 177.601C35.4457 181.079 32.8268 184.556 30.2068 188.034C27.7553 191.288 25.3038 194.543 22.8523 197.797C20.7886 200.537 18.7259 203.276 16.6622 206.016C15.1776 207.986 13.694 209.956 12.2094 211.926C11.5076 212.859 10.7674 213.773 10.0979 214.729C10.0687 214.771 10.0365 214.81 10.0064 214.851C9.61858 215.366 9.92423 216.185 10.4347 216.484C11.0481 216.841 11.6812 216.571 12.0701 216.055Z" fill="#213A32"/>
<path d="M18.353 209.623C20.3081 209.623 21.893 208.038 21.893 206.083C21.893 204.128 20.3081 202.543 18.353 202.543C16.3979 202.543 14.813 204.128 14.813 206.083C14.813 208.038 16.3979 209.623 18.353 209.623Z" fill="#14231E"/>
<path d="M60.3346 300.424H23.3281C19.8442 300.424 17.0205 303.247 17.0205 306.731H66.6432C66.6432 303.247 63.8184 300.424 60.3346 300.424Z" fill="#14231E"/>
<path d="M92.6871 169.669C98.0339 169.669 102.368 165.334 102.368 159.988C102.368 154.641 98.0339 150.306 92.6871 150.306C87.3403 150.306 83.0059 154.641 83.0059 159.988C83.0059 165.334 87.3403 169.669 92.6871 169.669Z" fill="#F6CB75"/>
<path d="M84.4011 154.999C83.5215 156.457 83.0059 158.16 83.0059 159.987C83.0059 165.334 87.3402 169.669 92.6871 169.669C97.6775 169.669 101.782 165.893 102.309 161.043C95.5524 162.658 88.3102 161.37 84.4011 154.999Z" fill="#EEBD66"/>
<path d="M73.7491 147.275C72.4579 148.861 70.1249 149.101 68.5384 147.81L63.7175 143.887C62.131 142.596 61.8908 140.263 63.1821 138.677C64.4733 137.09 66.8063 136.85 68.3928 138.141L73.2137 142.065C74.8002 143.354 75.0404 145.687 73.7491 147.275Z" fill="#647570"/>
<path d="M77.4361 180.781L107.854 138.026C107.854 138.026 87.5987 126.952 71.5485 144.194C71.5485 144.194 57.4602 163.82 77.4361 180.781Z" fill="#14231E"/>
<path d="M97.6763 148.013C93.9408 150.588 90.4164 153.933 86.367 155.993C77.1702 160.673 71.9844 153.922 70.428 146.032C67.5336 151.288 61.1138 166.921 77.4363 180.781L103.868 143.63C101.844 145.137 99.7619 146.575 97.6763 148.013Z" fill="#4F6F5B"/>
<path d="M136.581 179.163C140.365 176.537 144.15 173.911 147.935 171.285C148.463 170.919 148.99 170.553 149.517 170.186C150.353 169.606 149.558 168.226 148.715 168.812C144.93 171.438 141.145 174.064 137.361 176.69C136.832 177.056 136.305 177.422 135.778 177.788C134.942 178.369 135.737 179.75 136.581 179.163Z" fill="#F7D6AB"/>
<path d="M126.721 162.894C129.06 162.76 131.398 162.626 133.737 162.492C137.465 162.279 141.194 162.065 144.922 161.852C145.778 161.803 146.634 161.754 147.49 161.705C148.508 161.647 148.515 160.055 147.49 160.114C145.151 160.248 142.812 160.382 140.473 160.516C136.745 160.729 133.017 160.943 129.289 161.156C128.433 161.205 127.576 161.254 126.721 161.303C125.703 161.36 125.696 162.952 126.721 162.894Z" fill="#F7D6AB"/>
<path d="M137.409 144.644C141.224 147.211 145.04 149.779 148.855 152.348C149.388 152.706 149.919 153.065 150.451 153.422C151.303 153.995 152.1 152.618 151.254 152.048C147.438 149.48 143.623 146.912 139.807 144.343C139.275 143.985 138.744 143.627 138.211 143.269C137.36 142.696 136.562 144.074 137.409 144.644Z" fill="#F7D6AB"/>
<path d="M216.926 156.343C222.239 168.553 223.121 182.171 223.668 195.477C223.694 196.104 223.755 196.809 224.238 197.21C224.664 197.564 225.276 197.557 225.829 197.517C229.838 197.22 233.736 196.108 237.599 195.002C243.536 193.302 249.472 191.602 255.369 189.774C257.212 189.202 267.039 183.153 268.372 181.756C259.973 176.285 245.02 167.565 241.804 158.07C238.587 148.576 239.008 143.698 238.834 133.675" fill="#FF8C6B"/>
<g opacity="0.53">
<path d="M217.341 155.568C218.431 159.419 219.52 163.269 220.61 167.12C220.677 167.353 220.751 167.602 220.937 167.759C221.401 168.151 222.087 167.703 222.498 167.256C226.438 162.971 228.209 157.075 228.722 151.277C229.237 145.479 228.618 139.65 228.408 133.833" fill="#F55C2C"/>
</g>
<path d="M199.322 95.9081C192.613 100.643 188.767 108.691 187.687 116.83C186.607 124.971 188.021 133.246 190.124 141.184C191.653 146.961 193.615 152.768 197.284 157.485C198.849 159.497 200.742 161.306 203.022 162.449C206.892 164.389 211.602 164.215 215.626 162.62C219.651 161.025 223.048 158.126 225.863 154.837C232.561 147.006 238.953 123.314 238.698 113.012" fill="#FF8C6B"/>
<path d="M195.652 125.83C195.762 129.607 195.175 133.375 193.902 136.934C193.578 137.842 193.21 138.734 192.796 139.605C192.478 140.275 192.058 140.928 192.746 141.515C193.952 142.544 195.912 142.875 197.44 142.789C198.006 142.756 198.01 141.873 197.44 141.904C196.609 141.951 195.792 141.867 194.994 141.625C194.616 141.511 194.249 141.364 193.899 141.183C193.777 141.121 193.507 141.012 193.415 140.909C193.183 140.648 193.359 140.466 193.473 140.231C194.187 138.754 194.785 137.217 195.255 135.644C196.204 132.467 196.633 129.142 196.536 125.829C196.519 125.262 195.634 125.26 195.652 125.83Z" fill="#F55C2C"/>
<path d="M209.977 127.343C209.977 128.746 209.122 129.885 208.068 129.885C207.014 129.885 206.159 128.746 206.159 127.343C206.159 125.939 207.014 124.801 208.068 124.801C209.122 124.8 209.977 125.938 209.977 127.343Z" fill="#5D1211"/>
<path d="M191.653 132.111C192.708 132.111 193.562 130.973 193.562 129.569C193.562 128.165 192.708 127.027 191.653 127.027C190.599 127.027 189.745 128.165 189.745 129.569C189.745 130.973 190.599 132.111 191.653 132.111Z" fill="#5D1211"/>
<path opacity="0.54" d="M219.807 137.97C219.807 140.639 217.458 142.802 214.561 142.802C211.663 142.802 209.314 140.639 209.314 137.97C209.314 135.301 211.663 133.137 214.561 133.137C217.458 133.136 219.807 135.3 219.807 137.97Z" fill="#F65A2D"/>
<path d="M195.55 147.515C195.55 147.515 199.475 147.122 201.71 147.157C203.944 147.194 198.693 151.962 195.55 147.515Z" fill="#F65A2D"/>
<path d="M208.278 120.832C211.045 119.726 215.835 118.728 218.112 121.033C219.209 122.143 219.513 120.869 218.422 119.764C215.536 116.842 211.099 117.109 207.56 118.523C206.955 118.765 206.559 119.378 206.764 120.037C206.947 120.622 207.668 121.076 208.278 120.832Z" fill="#5E1212"/>
<path d="M239.857 147.422C247.774 151.423 245.721 140.406 249.757 136.635C254.731 131.987 256.98 125.022 257.426 118.229C257.622 115.256 257.5 112.211 256.507 109.403C254.514 103.763 248.972 99.7043 243.035 98.9661C245.205 94.3791 242.754 88.8274 239.199 85.2073C237.288 83.2611 234.931 81.5748 232.227 81.2213C226.053 80.4135 220.533 86.6285 214.375 85.7022C212.151 85.3674 210.186 84.1271 208.239 83.0012C204.123 80.6204 199.7 78.6128 194.991 77.9589C190.281 77.3039 185.23 78.121 181.406 80.9468C178.993 82.7298 177.181 85.2084 175.658 87.794C174.098 90.4441 172.788 93.2886 172.272 96.3202C170.741 105.323 176.325 113.976 177.125 123.073C177.506 127.394 176.871 132.074 179.11 135.79C180.292 133.043 183.309 131.534 186.242 130.951C189.175 130.368 192.218 130.48 195.134 129.819C199.325 128.869 202.994 126.388 206.404 123.774C211.504 119.865 216.496 115.219 218.378 109.076C221.703 109.876 223.553 113.507 224.044 116.892C224.535 120.276 224.121 123.787 225.017 127.087C225.872 130.233 227.937 133.032 230.691 134.777C232.113 135.674 234.307 145.058 239.857 147.422Z" fill="#5D1211"/>
<path d="M180.188 90.4013C182.636 89.3856 185.306 88.9728 188.12 89.0362C192.588 88.8335 196.95 89.4365 201.405 89.7027C203.998 89.8576 206.211 89.5976 208.312 89.0061C210.606 88.0756 212.806 86.8852 214.995 85.7509C214.788 85.7353 214.583 85.7322 214.375 85.701C212.151 85.3663 210.186 84.1259 208.239 83C204.123 80.6192 199.7 78.6116 194.991 77.9577C190.281 77.3027 185.23 78.1199 181.406 80.9456C178.993 82.7287 177.181 85.2072 175.658 87.7928C174.332 90.0457 173.194 92.4411 172.564 94.9706C174.81 92.8299 177.337 91.3526 180.188 90.4013Z" fill="#4C0D0D"/>
<path d="M256.782 110.283C255.821 116.019 252.367 120.806 245.781 122.405C237.294 124.465 229.488 120.623 223.569 114.817C223.784 115.501 223.943 116.201 224.043 116.89C224.534 120.274 224.12 123.785 225.017 127.085C225.871 130.231 227.937 133.031 230.691 134.775C232.111 135.674 234.307 145.059 239.857 147.423C247.774 151.423 245.72 140.406 249.756 136.635C254.731 131.987 256.98 125.022 257.426 118.229C257.601 115.563 257.516 112.842 256.782 110.283Z" fill="#4C0D0D"/>
<path d="M216.698 93.4957C216.009 88.129 212.863 83.3102 208.874 79.6548C204.885 75.9994 200.077 73.3732 195.254 70.9207C202.61 69.9143 210.245 73.0145 215.358 78.3979C220.471 83.7812 223.145 91.2313 223.374 98.6524" fill="#5D1211"/>
<path d="M237.421 99.3573C238.812 97.0711 240.305 94.684 242.647 93.3907C244.759 92.2253 247.311 92.1109 249.693 92.4893C256.005 93.4916 261.653 97.9621 264.078 103.875C260.923 100.271 256.215 97.9766 251.427 98.0796C246.64 98.1825 241.898 100.816 239.58 105.008" fill="#5D1211"/>
<path d="M222.57 106.027C224.108 108.218 225.696 110.542 225.942 113.207C226.163 115.609 225.245 117.993 223.944 120.023C220.496 125.404 214.137 128.786 207.747 128.638C212.313 127.192 216.302 123.798 218.127 119.37C219.952 114.942 219.439 109.543 216.528 105.74" fill="#5D1211"/>
<path d="M215.356 112.04C212.807 113.067 210.438 114.767 207.919 115.916C202.099 118.569 195.922 120.511 189.446 120.287C183.768 120.092 179.226 118.345 175.57 115.47C176.289 117.981 176.899 120.507 177.125 123.07C177.505 127.392 176.87 132.071 179.109 135.787C180.291 133.04 183.308 131.532 186.241 130.949C189.174 130.365 192.217 130.478 195.133 129.816C199.324 128.866 202.993 126.386 206.403 123.772C210.823 120.384 215.158 116.441 217.462 111.451C216.84 111.533 216.152 111.72 215.356 112.04Z" fill="#4C0D0D"/>
<path d="M233.764 110.621H231.453V119.163H233.764V110.621Z" fill="#366F90"/>
<path d="M237.421 108.881V102.243C237.421 97.1374 234.906 92.3082 230.608 89.552C226.57 86.9623 220.41 84.7364 211.303 85.0774C211.303 85.0774 218.091 86.6836 223.446 91.1011C226.396 93.5339 228.011 97.2309 228.011 101.055V108.934C228.011 110.207 229.042 111.238 230.315 111.238H235.065C236.366 111.238 237.421 110.183 237.421 108.881Z" fill="#366F90"/>
<path d="M232.61 137.828C238.094 137.828 242.539 133.383 242.539 127.899C242.539 122.416 238.094 117.97 232.61 117.97C227.127 117.97 222.682 122.416 222.682 127.899C222.682 133.383 227.127 137.828 232.61 137.828Z" fill="#F9EAEB"/>
<path d="M228.375 128.184C228.375 130.523 230.272 132.42 232.61 132.42C234.949 132.42 236.846 130.523 236.846 128.184C236.846 125.845 234.949 123.949 232.61 123.949C230.271 123.949 228.375 125.845 228.375 128.184Z" fill="#366F8F"/>
<path d="M231.083 131.753C228.305 136.343 225.527 140.933 222.749 145.523C222.356 146.172 221.963 146.822 221.57 147.47C221.807 147.297 222.043 147.123 222.28 146.95C217.337 147.903 212.393 148.857 207.45 149.811C206.75 149.946 206.05 150.081 205.351 150.215C204.24 150.429 204.428 152.189 205.548 151.973C210.69 150.981 215.831 149.99 220.974 148.998C221.667 148.864 222.791 148.843 223.188 148.187C223.494 147.682 223.799 147.176 224.105 146.671C225.725 143.995 227.345 141.319 228.964 138.642C230.21 136.584 231.455 134.527 232.7 132.468C232.947 132.06 232.647 131.477 232.249 131.302C231.766 131.089 231.331 131.343 231.083 131.753Z" fill="#366F90"/>
<path d="M206.159 151.142C206.159 152.35 204.753 153.329 203.02 153.329C201.287 153.329 199.881 152.35 199.881 151.142C199.881 149.934 201.287 148.956 203.02 148.956C204.753 148.956 206.159 149.934 206.159 151.142Z" fill="#366F8F"/>
<path d="M250.199 167.627C252.256 165.033 272.548 169.577 284.636 170.376C292.321 170.885 301.093 173.049 307.384 177.757C313.64 182.441 316.509 190.627 318.794 198.377C324.508 217.755 328.765 237.615 331.514 257.706C332.46 264.622 333.216 271.77 331.512 278.52C329.319 287.209 323.161 294.36 315.854 298.929C302.608 307.209 286.416 307.557 271.039 307.677C253.35 307.816 235.66 307.955 217.97 308.093C213.213 308.131 208.04 308.022 204.326 304.869C200.65 301.748 199.402 296.481 198.472 291.587C195.333 275.077 193.285 258.334 192.349 241.521C192.006 235.369 191.817 229.148 192.873 223.088C194.067 216.238 196.823 209.795 200.044 203.722C204.632 195.076 210.215 187.023 216.63 179.802C217.425 178.908 218.28 177.994 219.387 177.631C220.608 177.232 221.919 177.569 223.175 177.814C233.837 179.892 244.566 177.443 250.199 167.627Z" fill="#3BB77E"/>
<path d="M215.043 183.6C207.018 187.668 198.697 191.98 193.334 199.205C187.958 206.448 186.244 215.702 184.943 224.627C183.982 231.221 183.164 237.834 182.346 244.447C180.029 263.182 177.712 281.915 175.394 300.649C175.16 302.536 174.983 304.641 176.134 306.153C177.175 307.518 179.001 307.983 180.699 308.234C185.102 308.887 189.582 308.703 194.031 308.517C201.814 308.192 209.596 307.865 217.379 307.54C219.393 307.456 221.499 307.345 223.24 306.33C226.535 304.407 227.339 300.076 227.694 296.278C230.77 263.298 225.339 230.069 217.278 197.942" fill="#3BB77E"/>
<path d="M226.201 213.697C226.964 207.55 223.279 205.51 221.019 200.765C219.155 196.851 219.195 188.851 215.498 186.586C211.801 184.32 209.68 182.645 205.891 180.536C205.467 180.3 205.025 180.038 204.794 179.612C204.495 179.063 204.619 178.388 204.777 177.784C206.386 171.63 210.725 166.188 210.925 159.829C210.947 159.142 210.84 158.32 210.227 158.011C209.733 157.761 209.127 157.973 208.666 158.281C207.455 159.09 206.764 160.459 206.125 161.767C203.705 166.722 201.286 171.676 198.865 176.631C198.608 169.929 201.051 163.11 199.383 156.613C198.916 154.796 197.952 152.885 196.179 152.271C194.522 159.908 192.864 167.545 191.206 175.183C190.691 177.558 190.179 180.066 190.893 182.385C191.024 182.809 191.217 183.213 191.442 183.594C195.448 190.345 207.288 195.637 212.302 203.648C214.707 207.491 215.362 211.998 215.867 216.572C216.124 218.892 220.939 216.529 223.915 216.139C225.676 215.908 225.932 215.865 226.201 213.697Z" fill="#FF8C6B"/>
<path d="M191.388 177.85C190.925 170.498 189.72 163.194 187.796 156.083C187.091 153.476 186.281 150.834 186.405 148.135C186.417 147.896 186.458 147.619 186.666 147.502C186.906 147.368 187.199 147.534 187.418 147.703C190.881 150.371 192.655 154.708 193.499 158.997C194.343 163.285 194.408 167.698 195.25 171.988" fill="#FF8C6B"/>
<path d="M300.784 204.958C300.784 204.958 290.708 216.183 289.961 238.258C289.215 260.332 269.25 273.121 244.059 274.49C218.868 275.86 205.56 287.82 217.719 297.596C229.878 307.372 305.263 312.092 317.951 280.275C330.64 248.458 300.784 204.958 300.784 204.958Z" fill="#4F6F5B"/>
<path d="M241.135 293.758C241.135 293.758 205.02 287.098 198.859 291.589C192.698 296.079 188.282 303.343 196.073 303.374C203.865 303.405 248.769 303.374 248.769 303.374" fill="#FF8C6B"/>
<path d="M298.582 174.102C294.094 184.168 295.941 197.351 297.945 208.188C300.371 221.301 302.796 234.414 305.222 247.526C306.367 253.719 307.464 260.368 304.875 266.11C303.209 269.806 300.152 272.721 296.786 274.98C284.443 283.262 268.594 283.304 254.008 286.166C246.99 287.542 240.111 289.631 233.513 292.388C232.562 292.785 231.565 293.239 230.998 294.098C230.362 295.061 230.412 296.307 230.526 297.455C230.804 300.297 231.324 303.114 232.077 305.868C232.244 306.481 232.447 307.129 232.933 307.54C233.368 307.909 233.959 308.023 234.521 308.121C256.632 311.969 279.295 309.782 301.63 307.587C309.395 306.823 317.16 306.059 324.926 305.296C329.302 304.866 334.071 304.254 337.124 301.09C338.807 299.347 339.744 297.029 340.508 294.73C346.804 275.759 343.597 255.085 339.909 235.439C337.788 224.145 335.475 212.719 330.327 202.444C325.179 192.173 309.636 174.102 298.582 174.102Z" fill="#3BB77E"/>
<path d="M213.361 211.399C216.479 212.294 222.885 213.431 227.644 209.605C228.804 208.672 230.536 209.16 231.034 210.564L231.56 212.048C231.878 212.946 231.581 213.948 230.812 214.509C227.972 216.581 220.596 220.736 211.424 216.45C210.396 215.97 209.931 214.755 210.347 213.698L210.746 212.684C211.156 211.643 212.286 211.09 213.361 211.399Z" fill="#4F6F5B"/>
<path d="M238.566 237.168C238.566 237.168 242.127 270.304 237.634 278.651L249.907 279.032C249.907 279.032 251.668 261.247 246.614 245.428C241.561 229.609 237.27 229.536 238.566 237.168Z" fill="#4F6F5B"/>
<path d="M213.14 218.33C213.14 218.33 210.981 262.786 215.865 274.272L203.526 274.133C203.526 274.133 200.988 250.077 205.394 229.033C209.799 207.987 214.115 208.117 213.14 218.33Z" fill="#4F6F5B"/>
<path d="M220.955 183.079C227.052 184.737 244.268 187.812 257.16 174.467C257.815 173.789 258.954 174.178 259.061 175.114C259.275 176.996 257.609 180.203 255.924 182.152C253.154 185.359 240.193 194.773 219.498 187.686C218.29 187.273 217.615 185.977 217.982 184.755L217.989 184.733C218.37 183.467 219.68 182.731 220.955 183.079Z" fill="#4F6F5B"/>
<path d="M308.821 300.59H214.99C213.372 300.59 212.061 301.902 212.061 303.519V304.173C212.061 305.792 213.373 307.103 214.99 307.103H308.821C310.44 307.103 311.751 305.791 311.751 304.173V303.519C311.751 301.902 310.44 300.59 308.821 300.59Z" fill="#5D1312"/>
<path d="M74.1326 302.81L44.6709 215.516C43.309 211.479 46.2533 207.278 50.5128 207.185L187.455 204.15C190.137 204.091 192.565 205.733 193.507 208.245L227.38 298.575C228.928 302.702 225.876 307.105 221.468 307.105H80.1138C77.4055 307.104 74.9987 305.376 74.1326 302.81Z" fill="#5D1312"/>
<path d="M71.4593 302.81L41.9976 215.515C40.6357 211.478 43.58 207.278 47.8394 207.185L184.782 204.15C187.464 204.091 189.891 205.733 190.833 208.245L224.707 298.574C226.255 302.702 223.204 307.105 218.796 307.105H77.4415C74.7321 307.104 72.3253 305.376 71.4593 302.81Z" fill="#DEE2DF"/>
<path d="M135.942 259.545C136.884 253.721 132.926 248.236 127.103 247.294C121.279 246.352 115.794 250.309 114.852 256.133C113.91 261.957 117.868 267.441 123.691 268.383C129.515 269.326 135 265.368 135.942 259.545Z" fill="#CCCECC"/>
<path d="M427.999 313.044H2.83929C1.2715 313.044 0 311.773 0 310.205V309.571C0 308.003 1.2715 306.731 2.83929 306.731H427.999C429.567 306.731 430.839 308.003 430.839 309.571V310.205C430.839 311.773 429.567 313.044 427.999 313.044Z" fill="#5D1312"/>
</svg>
