<svg width="78" height="95" viewBox="0 0 78 95" fill="none" xmlns="http://www.w3.org/2000/svg">
<g clip-path="url(#clip0_387_18589)">
<path d="M76.8142 62.0562C80.4486 53.2121 69.9997 39.7873 65.8202 32.712C61.5952 25.6822 54.7353 12.5294 43.7866 9.12793C32.8381 5.72637 20.9808 12.1666 12.3945 24.8658C3.80832 37.6102 -1.23438 44.8669 0.264814 54.3913C1.764 63.9156 4.39893 66.773 9.85052 70.5827C15.8018 74.3925 29.1128 74.3925 48.1934 73.6668C67.592 72.9864 73.1799 71.127 76.8142 62.0562Z" fill="#E8FCFA"/>
<path d="M15.7038 3.21058C15.0737 1.41762 13.8139 1.17529 13.0869 1.17529C12.2147 1.17529 10.664 1.5145 10.2279 4.32509L9.9856 5.7304C9.84024 6.11807 9.50099 6.55423 9.11333 6.60268L7.70808 6.84498C5.04285 7.32956 4.70361 8.78332 4.70361 9.75249C4.70361 9.99479 4.80053 10.3825 4.94591 10.7217C5.7697 10.9639 6.5935 11.0608 7.36883 11.0608C11.6331 11.1577 15.2677 7.66877 15.7038 3.21058Z" fill="#B0F6CA"/>
<path d="M18.514 6.79659L17.0602 6.55429C16.6725 6.40892 16.2364 6.06969 16.1879 5.68201L15.9456 4.2767C15.8487 3.88904 15.8003 3.54985 15.7034 3.21064C15.3642 7.62037 11.7298 11.0124 7.27157 11.0124C6.44777 11.0124 5.57551 10.8671 4.84863 10.6733C5.09093 11.497 5.91472 12.2239 7.75615 12.5631L9.16146 12.8054C9.54913 12.9508 9.98522 13.29 10.0337 13.6777L10.276 15.0829C10.6636 17.7482 12.2143 18.0874 13.1351 18.0874C14.0557 18.0874 15.558 17.7482 16.0425 15.0829L16.2848 13.6777C16.4303 13.29 16.7695 12.8538 17.1571 12.8054L18.5624 12.5631C21.2276 12.0785 21.6637 10.6248 21.6637 9.7041C21.5668 8.73493 21.3245 7.18425 18.514 6.79659Z" fill="#9EDDB6"/>
<path d="M60.4681 8.89299C59.8381 7.24539 58.6751 7.05154 57.9966 7.05154C57.1244 7.05154 55.6707 7.34229 55.283 9.95906L55.0407 11.2189C54.8954 11.6067 54.5561 11.9459 54.1684 12.0428L52.86 12.2851C50.2918 12.7212 50.001 14.0781 50.001 14.9504C50.001 15.1926 50.0979 15.5318 50.2433 15.8225C51.0186 16.0648 51.794 16.1133 52.5693 16.1133C56.5914 16.1617 60.0803 13.0119 60.4681 8.89299Z" fill="#B0F6CA"/>
<path d="M63.1817 12.1879L61.7764 11.9456C61.3887 11.8003 61.001 11.5095 60.9041 11.1218L60.6618 9.86193C60.5649 9.47426 60.5164 9.18351 60.4195 8.89275C60.1288 12.9148 56.6398 16.0161 52.3754 16.0161C51.6 16.0161 50.7278 15.8708 50.0493 15.7254C50.2916 16.4523 51.067 17.1307 52.86 17.4215L54.1684 17.6638C54.556 17.8091 54.9437 18.0998 55.0406 18.4875L55.2829 19.7474C55.6705 22.2188 57.1243 22.5096 57.9966 22.5096C58.8688 22.5096 60.3226 22.2188 60.8072 19.7474L61.0494 18.4875C61.1949 18.0998 61.5341 17.7607 61.9217 17.6638L63.2302 17.4215C65.7984 16.9854 66.186 15.6285 66.186 14.8047C66.0407 13.9324 65.8469 12.5271 63.1817 12.1879Z" fill="#9EDDB6"/>
<path d="M12.5538 63.6728C12.0691 62.4613 11.1969 62.2676 10.7124 62.2676C10.0824 62.2676 8.96784 62.5098 8.67709 64.4482L8.48324 65.4174C8.38633 65.7081 8.14407 65.9504 7.85332 66.0473L6.88415 66.1927C4.94581 66.5319 4.75195 67.5495 4.75195 68.1794C4.75195 68.3248 4.80043 68.6156 4.94581 68.8579C5.52731 69.0033 6.1088 69.1002 6.6903 69.1002C9.64627 69.1487 12.2631 66.7257 12.5538 63.6728Z" fill="#B0F6CA"/>
<path d="M14.5891 66.1443L13.5231 65.9989C13.2323 65.902 12.9415 65.6597 12.893 65.3688L12.6993 64.3997C12.6508 64.109 12.6023 63.9152 12.5054 63.6729C12.2632 66.6772 9.64637 69.0032 6.44811 69.0032C5.86661 69.0032 5.23665 68.9063 4.70361 68.7609C4.89744 69.2941 5.47891 69.8271 6.78729 70.0209L7.75646 70.1663C8.04722 70.2632 8.33799 70.5055 8.38645 70.7963L8.58029 71.7654C8.87105 73.6069 9.98557 73.8007 10.6155 73.8007C11.2455 73.8007 12.3601 73.5584 12.6993 71.7654L12.893 70.7963C12.99 70.5055 13.2323 70.2632 13.5231 70.1663L14.4922 70.0209C16.4305 69.6818 16.7213 68.6641 16.7213 68.0826C16.7213 67.4527 16.5759 66.3866 14.5891 66.1443Z" fill="#9EDDB6"/>
<path d="M66.8899 31.127L65.2672 33.0483C64.9635 32.8897 64.6378 32.778 64.3008 32.7174L49.4906 30.2301L41.7069 17.4981C41.3926 16.9753 40.9367 16.5521 40.3922 16.277C39.8479 16.0019 39.237 15.886 38.6297 15.943C38.0654 15.9794 37.5193 16.1594 37.0439 16.4656C36.5683 16.7717 36.1791 17.1941 35.9124 17.6929L29.0072 30.9194L14.4713 34.4217C14.2872 34.4114 14.1025 34.4315 13.9251 34.4812L11.793 32.7941L11.9263 37.4905C11.9305 38.3546 12.2714 39.183 12.8761 39.8004L23.3138 50.4697L22.4371 61.6441L22.0003 61.3719L22.1381 65.5733C22.1381 65.5733 22.1631 65.8032 22.1757 65.9182C22.2514 66.6338 22.5593 67.305 23.0525 67.829C23.3728 68.1645 23.7608 68.428 24.1909 68.6017C24.6209 68.7755 25.083 68.8556 25.5465 68.837C26.0179 68.828 26.4822 68.7179 26.9074 68.5143L40.2882 61.8811L54.0826 67.5904C54.5137 67.7744 54.9797 67.8625 55.4483 67.8488C55.9139 67.8292 56.3704 67.713 56.7887 67.5072C57.2069 67.3014 57.5775 67.0109 57.8771 66.6539C58.393 66.0495 58.6614 65.2723 58.6287 64.4783L58.4916 60.0152L58.0786 60.4962L56.4336 49.3929L66.1281 38.0142C66.6819 37.3812 66.9676 36.5575 66.9248 35.7174L66.8899 31.127Z" fill="#6A9479"/>
<path d="M66.1891 33.5006L56.4914 44.8504L58.6525 59.6198C58.7194 60.075 58.6907 60.5392 58.5688 60.9829C58.447 61.4266 58.2343 61.8403 57.9443 62.1975C57.6447 62.5546 57.2742 62.8453 56.8559 63.0511C56.4377 63.2568 55.9812 63.3731 55.5154 63.3927C55.047 63.4063 54.581 63.3182 54.1498 63.1342L40.3555 57.425L26.9747 64.058C26.5476 64.2573 26.0875 64.3765 25.6172 64.4094C25.1521 64.4176 24.6902 64.3299 24.2605 64.1516C23.8308 63.9732 23.4423 63.7081 23.1197 63.3728C22.8013 63.0398 22.5577 62.6427 22.405 62.208C22.2525 61.7734 22.1944 61.3111 22.2347 60.8522L23.5187 45.9403L13.0809 35.2711C12.6656 34.8576 12.3703 34.3392 12.2265 33.771C12.0827 33.2029 12.0956 32.6063 12.2642 32.045C12.4267 31.488 12.7347 30.9844 13.1564 30.5859C13.578 30.1874 14.0983 29.9082 14.6635 29.7773L29.1707 26.2784L36.1047 13.0486C36.3714 12.55 36.7607 12.1273 37.2361 11.8211C37.7116 11.5149 38.2577 11.3353 38.822 11.2987C39.4064 11.2767 39.9858 11.4107 40.5014 11.6867C41.0169 11.9628 41.4497 12.3708 41.7554 12.8693L44.1254 16.7404L49.5391 25.6014L61.391 27.6257L64.3493 28.0888C64.9248 28.1907 65.4641 28.4414 65.9129 28.8158C66.3617 29.1903 66.7047 29.6757 66.9081 30.2237C67.0927 30.7843 67.1233 31.384 66.9968 31.9605C66.8703 32.5369 66.5914 33.0688 66.1891 33.5006Z" fill="#B0F6CA"/>
<path d="M59.1302 35.1704L52.0179 43.8253L53.6245 55.1074C53.6814 55.4522 53.6622 55.8053 53.5682 56.142C53.4743 56.4787 53.3079 56.7909 53.0807 57.0566C52.8753 57.3324 52.6103 57.5584 52.3054 57.7175C52.0005 57.8766 51.6635 57.9646 51.3197 57.9753C50.9702 57.9915 50.6224 57.9194 50.3083 57.7657L40.1503 53.405L30.3194 58.4593C30.0102 58.6106 29.6733 58.6968 29.3293 58.7125C28.9815 58.7206 28.6357 58.6548 28.3151 58.5193C27.9946 58.3837 27.7066 58.1817 27.47 57.9264C27.2343 57.6659 27.0552 57.3594 26.9439 57.0262C26.8326 56.693 26.7912 56.3403 26.823 55.9904L27.6809 44.6436L19.9893 36.4958C19.6871 36.1708 19.472 35.7745 19.3641 35.3439C19.2562 34.9134 19.259 34.4624 19.3722 34.0332C19.4864 33.6148 19.7094 33.234 20.0184 32.9298C20.3275 32.6254 20.7118 32.4084 21.1319 32.3005L31.835 29.652L36.8783 19.623C37.0683 19.2339 37.3614 18.9041 37.7254 18.6697C38.0896 18.4352 38.5106 18.3051 38.9435 18.2932L39.3746 18.2462C39.7295 18.2998 40.0671 18.4343 40.3616 18.6393C40.6562 18.8442 40.9 19.1138 41.0737 19.4278L46.8433 29.1514L57.6675 31.0842C58.0931 31.1587 58.4904 31.3467 58.818 31.6283C59.1454 31.9101 59.3909 32.2748 59.5283 32.6845C59.6804 33.0981 59.7237 33.5442 59.654 33.9795C59.5843 34.4147 59.404 34.8249 59.1302 35.1704Z" fill="#3BB77E"/>
</g>
<defs>
<clipPath id="clip0_387_18589">
<rect width="77.9939" height="94.02" fill="white" transform="translate(0.00292969)"/>
</clipPath>
</defs>
</svg>
