<svg width="1440" height="201" viewBox="0 0 1440 201" fill="none" xmlns="http://www.w3.org/2000/svg">
<mask id="mask0_387_15506" style="mask-type:luminance" maskUnits="userSpaceOnUse" x="0" y="-3" width="1440" height="204">
<path d="M0 -3H1440V201H0V-3Z" fill="white"/>
</mask>
<g mask="url(#mask0_387_15506)">
<path fill-rule="evenodd" clip-rule="evenodd" d="M1005.47 -3C965.741 11.837 931.179 28.175 897.251 44.213C801.465 89.49 710.731 132.38 522.994 132.38C366.759 137.739 256.479 107.341 157.503 80.06C103.513 65.18 52.887 51.224 0 44.506V-3H1005.47Z" fill="url(#paint0_linear_387_15506)"/>
<path opacity="0.8" d="M1440 93V-3H0V91.221C74.548 99.234 154.453 84.543 239.715 47.147C367.607 -8.946 450.727 6.43 609.614 87.214C768.5 168 992.5 212.5 1162 194C1331.5 175.5 1440 93 1440 93Z" fill="url(#paint1_linear_387_15506)"/>
</g>
<defs>
<linearGradient id="paint0_linear_387_15506" x1="1499.25" y1="-167" x2="1499.25" y2="110.735" gradientUnits="userSpaceOnUse">
<stop stop-color="#3BB77E"/>
<stop offset="0.542" stop-color="#FBFFFC"/>
</linearGradient>
<linearGradient id="paint1_linear_387_15506" x1="1846.5" y1="131.5" x2="1508.25" y2="845.762" gradientUnits="userSpaceOnUse">
<stop stop-color="#3BB77E"/>
<stop offset="1" stop-color="#FBFFFC" stop-opacity="0.5"/>
</linearGradient>
</defs>
</svg>
