<svg width="451" height="300" viewBox="0 0 451 300" fill="none" xmlns="http://www.w3.org/2000/svg">
<path d="M112.18 211.599V279.632C161.842 299.366 223.553 305.284 284.726 292.393C300.611 289.045 315.553 285.226 329.466 280.91V211.599L112.18 211.599Z" fill="#232020"/>
<path d="M181.678 237.186L172.734 295.78C204.884 300.646 239.362 300.511 273.905 294.476L269.883 233.512L181.678 237.186Z" fill="#E5E5E5"/>
<path d="M110.115 93.0216C110.478 93.0757 110.986 93.0554 111.606 92.9737C117.421 92.2081 133.122 86.0576 132.198 85.4842C131.175 84.8494 141.039 37.1115 146.737 32.6519C152.435 28.1923 159.9 23.1706 159.9 23.1706L167.275 20.116C167.275 20.116 166.284 19.2885 171.2 20.4314C176.116 21.5742 183.782 20.1927 189.68 37.2717C195.577 54.3507 205.826 108.281 205.407 110.451C204.988 112.621 217.559 126.314 212.821 131.725C208.083 137.136 194.252 150.407 187.338 155.594C180.423 160.781 168.016 169.32 164.268 168.88C160.521 168.44 134.907 157.104 132.197 153.447C129.488 149.791 110.697 91.254 110.697 91.254" fill="white"/>
<path d="M200.26 88.8082L203.141 104.191L211.196 92.4918L200.26 88.8082Z" fill="#43DB95"/>
<path d="M149.313 78.064L153.874 87.3078C153.874 87.3078 154.639 95.9373 157.025 96.8958C159.411 97.8543 165.814 98.8957 165.814 98.8957L168.211 104.034L176.643 98.494L176.805 84.4865L177.418 82.6363L194.362 95.2935L210.896 128.587L168.073 160.918L130.906 140.382L129.053 113.371L123.135 90.3578C123.135 90.3578 145.416 85.4997 149.313 78.064Z" fill="#43DB95"/>
<path d="M176.212 70.8006C176.212 70.8006 174.171 80.4653 181.731 85.3652C189.291 90.2654 197.22 88.8093 197.747 91.2536L188.994 56.4615L175.961 71.4783" fill="#232020"/>
<path d="M149.908 43.7559C149.84 43.5969 149.869 43.6992 149.874 43.6719C150.773 43.9245 150.575 45.1341 150.646 45.7959C150.991 54.4852 151.569 70.9381 160.454 75.6291C172.197 81.1914 180.515 63.9241 183.594 55.6646C183.721 54.2358 184.288 49.8698 184.378 47.4328C184.501 44.261 185.051 36.1606 182.884 33.9648C181.055 33.0048 178.945 32.5985 176.888 32.0817C171.952 30.986 159.824 29.749 155.404 31.7204C154.643 32.1218 155.301 33.6358 155.434 34.4054C156.025 37.0802 157.233 40.9512 154.374 42.8915C153.181 43.6437 151.782 43.8033 150.401 43.8294C150.224 43.8443 150.12 43.7829 149.908 43.7559ZM149.736 43.7318C156.637 43.3769 156.225 39.7108 154.717 34.583C154.442 33.5332 154.083 32.4735 154.107 31.3746C154.123 31.0098 154.214 30.6047 154.517 30.3155C155.12 29.8074 155.894 29.611 156.653 29.4383C161.953 28.5609 167.399 29.2782 172.679 29.9658C176.426 30.6186 180.347 31.0938 183.769 32.7807C184.441 33.2335 184.809 33.9299 185.092 34.6033C185.638 35.9786 185.85 37.4269 186.003 38.8635C186.488 44.6339 185.957 50.4171 185.247 56.1497C183.163 61.7742 180.4 67.2461 176.428 71.9161C174.416 74.2113 172.009 76.3316 169.02 77.4316C164.486 79.19 159.07 77.4468 156.196 73.8082C153.255 70.2444 152.004 65.7397 151.205 61.3708C150.305 56.2384 150.194 50.9888 150.228 45.7965L150.223 44.6833C150.23 44.3442 150.148 43.9809 149.804 43.826C149.798 43.7949 149.816 43.8937 149.736 43.7318Z" fill="#232020"/>
<path d="M158.884 28.5612C158.884 28.5612 161.628 18.5436 172.905 20.518C185.863 22.7867 191.805 38.8557 193.83 57.1998C195.855 75.5439 200.318 94.2859 200.318 94.2859L203.141 106.264L182.711 117.269L181.013 72.7968L178.938 43.2043L176.594 30.7599L158.607 29.289C158.607 29.289 154.962 29.8101 155.489 31.3871C156.016 32.9641 157.973 42.0766 155.772 43.2028C153.571 44.3291 150.957 44.547 150.957 44.547C150.957 44.547 151.356 44.8078 151.359 45.7108C151.363 46.6138 152.805 64.4885 152.296 68.386C151.788 72.2835 151.138 82.6861 142.141 85.0305C133.144 87.3751 134.15 86.9818 134.15 86.9818L141.252 62.7528C141.252 62.7528 143.771 41.4372 146.499 37.5176C149.227 33.598 151.89 25.5176 159.9 23.1704C159.9 23.1704 157.716 27.5189 158.884 28.5612Z" fill="#232020"/>
<path d="M157.978 28.5381C160.705 18.5107 172.069 17.1932 180.089 22.0734C183.959 24.3944 186.862 28.0495 189.02 31.904C195.366 43.4064 195.644 56.6024 197.415 69.2508C198.294 75.5049 199.252 81.7673 200.259 88.01C200.52 89.5382 201.053 92.7265 201.299 94.2658L201.13 94.3067C198.179 81.9769 195.777 69.5052 194.271 56.9195C193.227 48.5944 191.512 40.1623 187.569 32.6675C184.666 27.1253 179.876 22.1091 173.495 20.8018C166.764 19.2286 160.46 21.9321 158.145 28.5852C158.145 28.5846 157.978 28.5381 157.978 28.5381Z" fill="#232020"/>
<path d="M164.049 30.6253C169.151 25.1441 177.081 20.5261 178.401 31.4984C179.409 37.7126 179.99 43.9617 180.595 50.2125C182.32 69.9473 183.353 89.8118 183.365 109.628L183.326 112.764C181.835 96.5742 181.239 79.3435 179.868 62.8193C179.107 52.4214 178.47 42.0051 177.248 31.6489C177.093 30.6218 176.983 29.5772 176.697 28.5888C175.613 24.6049 172.077 25.2682 169.181 26.9754C167.364 28.0183 165.699 29.3232 164.172 30.7476L164.049 30.6253Z" fill="#232020"/>
<path d="M158.881 23.3376C153.449 25.4407 148.664 29.2292 145.758 34.1707L144.806 36.0393C143.956 37.9479 143.317 40.0402 142.874 42.0953C139.755 55.7351 139.005 69.903 135.215 83.4164C134.966 84.1224 134.724 84.8498 134.257 85.4837L134.116 85.3832C134.801 84.1102 134.969 82.5689 135.259 81.1564C135.513 79.702 135.727 78.2398 135.934 76.7767C137.589 65.0723 138.489 53.222 141.283 41.7024C141.966 38.8596 143.035 35.9535 144.593 33.4543C147.827 28.4172 153.057 24.767 158.842 23.1702L158.881 23.3376Z" fill="#232020"/>
<path d="M150.869 72.0735C151.261 77.3553 148.572 83.0242 143.642 85.4412C139.745 87.1781 135.544 87.9605 131.419 88.8394C127.817 89.5369 124.19 90.0883 120.58 90.6882C119.238 90.9128 117.897 91.1337 116.602 91.5269C116.184 91.6624 115.75 91.8106 115.466 92.1169L115.312 92.0388C115.883 91.2479 116.846 90.991 117.7 90.6385C120.303 89.7209 123.004 89.1225 125.685 88.486C131.04 87.2237 136.46 86.173 141.705 84.5231C147.07 82.8283 150.182 77.3759 150.695 72.063C150.695 72.0636 150.869 72.0735 150.869 72.0735Z" fill="#232020"/>
<path d="M151.014 80.4427C152.824 84.4974 154.331 88.7329 156.211 92.7025C156.633 93.5994 157.43 95.1706 157.968 95.5392C159.76 96.2248 165.065 98.023 166.933 98.6767C170.178 105.071 173.231 114.892 169.453 121.541L169.293 121.473C170.76 117.994 170.439 114.068 169.639 110.463C168.803 106.822 167.445 103.284 165.727 99.9642L165.817 100.038C163.671 99.3402 161.529 98.6354 159.411 97.855C158.597 97.5336 157.807 97.3101 157.024 96.8965C155.91 95.9626 155.413 94.5315 154.831 93.2716C153.148 89.1215 151.96 84.8081 150.845 80.4839L151.014 80.4427Z" fill="#232020"/>
<path d="M142.779 86.3275C142.98 90.3509 142.89 94.4036 143.414 98.3766C143.537 99.0518 143.617 99.6619 143.934 100.227C143.934 100.22 143.933 100.214 143.93 100.208C143.918 100.199 143.892 100.15 143.844 100.13C143.734 100.053 143.651 100.058 143.71 100.044C143.753 100.039 143.904 99.9789 144.051 99.9101C145.704 98.989 147.178 97.539 148.834 96.4543C149.991 95.6478 151.721 94.8372 153.193 95.721C156.118 97.0812 159.258 98.0648 162.069 99.7223C162.292 99.8688 162.523 100.026 162.728 100.213C162.964 100.433 163.147 100.72 163.294 100.999C164.617 103.926 165.129 107.033 165.612 110.163C165.708 111.215 165.932 112.246 165.735 113.304L165.572 113.243C165.452 111.256 164.735 109.289 164.224 107.364C163.622 105.443 163.051 103.453 162.109 101.673C161.594 100.799 160.478 100.563 159.613 100.121C157.979 99.425 155.555 98.5223 153.878 97.8576C153.191 97.6375 152.487 97.1551 151.793 97.0371C150.551 97.1458 149.544 98.0546 148.528 98.7487C147.225 99.568 143.668 103.137 142.528 100.777C141.626 98.0924 141.999 95.1624 142.066 92.3894C142.188 90.3567 142.368 88.3295 142.605 86.3069L142.779 86.3275Z" fill="#232020"/>
<path d="M169.062 103.806C169.062 103.806 177.773 99.42 177.573 96.5424C177.374 93.6645 177.331 82.6373 177.331 82.6373" fill="white"/>
<path d="M169.023 103.729C171.284 101.497 173.804 99.8245 175.67 97.4008C175.908 97.0584 176.044 96.7349 176.019 96.6451C176.034 96.6739 175.989 96.1911 175.993 96.1868C175.791 91.6118 176.053 87.0996 177.244 82.6377L177.418 82.6371L177.528 88.9745C177.568 91.3473 177.616 93.7271 177.719 96.0961C177.724 96.3423 177.767 96.6774 177.716 96.9209C177 99.7588 171.626 102.552 169.102 103.882L169.023 103.729Z" fill="#232020"/>
<path d="M199.803 87.9365C203.059 87.527 206.106 88.5858 208.783 90.2927C209.643 90.8882 210.478 91.5489 211.196 92.4923L211.13 92.6516C210.168 92.3028 209.211 91.9418 208.26 91.5651C206.83 91.0228 203.973 89.8803 202.564 89.2874C201.616 88.9049 200.674 88.5064 199.737 88.0955L199.803 87.9365Z" fill="#232020"/>
<path d="M168.073 31.0634C169.172 28.3357 173.848 24.7954 176.643 27.0973L176.604 27.1825C175.046 26.5404 173.346 27.3205 171.999 28.1192C170.591 28.9464 169.307 29.986 168.142 31.1276L168.073 31.0634Z" fill="white"/>
<path d="M164.353 31.0567C165.827 28.0375 172.103 24.1191 175.854 26.6668L175.801 26.7613C173.711 26.0507 171.429 26.9139 169.621 27.7983C167.731 28.7138 166.008 29.8644 164.445 31.1282L164.353 31.0567Z" fill="white"/>
<path d="M179.638 35.0349L184.208 117.16L187.338 116.119L179.638 35.0349Z" fill="white"/>
<path d="M175.183 65.1295C173.836 68.1089 170.579 70.1379 167.255 70.1777C164.78 70.2056 162.117 69.4828 160.454 67.568C159.939 66.9353 159.498 66.2142 159.366 65.4074L159.44 65.3868C159.986 66.8391 161.263 67.9316 162.669 68.5658C165.509 69.7952 168.995 69.7638 171.704 68.2135C173.06 67.455 174.253 66.372 175.117 65.0909L175.183 65.1295Z" fill="#232020"/>
<path d="M158.219 64.8529C160.357 64.9755 162.433 64.4067 164.55 64.1399C164.745 64.1181 164.987 64.092 165.183 64.1649C165.835 64.4204 166.38 64.7259 166.915 65.1833C166.953 65.2479 167.044 65.3103 166.974 65.5283C166.95 65.5873 166.893 65.6504 166.833 65.6815C166.538 65.8413 166.249 65.5022 166.399 65.2528C166.892 64.6395 167.782 63.9926 168.654 64.3425C168.868 64.4483 169.089 64.4919 169.333 64.5465C171.018 64.8351 172.797 65.1752 174.508 64.9293L174.539 64.9979C173.889 65.356 173.139 65.4388 172.423 65.499C171.095 65.5615 169.717 65.5615 168.453 65.0903C168.024 64.7913 167.421 65.1595 167.039 65.478L166.961 65.5504C166.932 65.5806 166.951 65.5562 166.958 65.5423C167.022 65.424 166.998 65.1833 166.765 65.1118C166.409 65.0293 166.289 65.4312 166.427 65.5734C166.033 65.222 165.502 64.8648 165.012 64.6491C164.876 64.5939 164.742 64.6192 164.591 64.6224C162.484 64.7924 160.335 65.199 158.208 64.9281L158.219 64.8529Z" fill="#232020"/>
<path d="M160.536 65.4023C163.78 67.077 167.59 66.6411 171.076 66.138C171.447 66.1042 172.393 65.8482 172.613 65.9316C169.685 66.9977 166.451 67.1854 163.403 66.5428C162.441 66.2856 161.262 65.9976 160.536 65.4023Z" fill="#232020"/>
<path d="M198.807 178.532H140.217V236.378H198.807V178.532Z" fill="#43DB95"/>
<path d="M190.009 235.494H160.675V238.878H190.009V235.494Z" fill="#232020"/>
<path d="M171.2 174.828L172.613 239.159L175.342 237.186L171.2 174.828Z" fill="black"/>
<path d="M281.153 68.4805C280.141 69.7559 275.107 95.2248 275.263 96.5609C275.418 97.8969 290.338 119.808 291.311 119.509C292.284 119.211 297.319 117.046 300.452 114.049C303.584 111.052 306.773 108.19 308.468 106.79C310.162 105.39 312.118 102.498 312.827 101.946C313.535 101.394 302.664 63.5109 302.664 63.5109L281.153 68.4805Z" fill="white"/>
<path d="M305.714 76.8829C308.031 81.9041 309.231 87.2928 309.986 92.7258C310.216 94.5374 310.374 96.3646 310.325 98.2349L310.202 98.2608C308.995 92.951 306.681 82.2421 305.591 76.9088L305.714 76.8829Z" fill="#232020"/>
<path d="M279.123 75.0641C279.357 80.5773 278.416 86.0155 277.047 91.3301C276.57 93.0943 276.02 94.8457 275.263 96.5611L275.139 96.5393C276.043 91.1709 277.978 80.3889 278.999 75.0423L279.123 75.0641Z" fill="#232020"/>
<path d="M276.079 90.6618C276.079 90.6618 287.652 105.87 293.682 104.461C299.712 103.052 309.47 96.5383 309.548 90.1271C309.626 83.7155 314.554 111.119 314.554 111.119C314.554 111.119 313.317 125.467 312.378 127.33C311.439 129.193 306.362 158.983 306.362 158.983L290.282 160.502L282.06 158.318L273.221 94.6971L276.62 90.6618" fill="white"/>
<path d="M246.908 118.649C246.999 118.013 245.121 100.868 248.872 99.9775C252.623 99.087 275.139 90.1297 275.139 90.1297L281.867 117.298L285.159 148.889L269.083 147.865L246.908 118.649Z" fill="#E5E5E5"/>
<path d="M338.703 117.252C338.611 116.616 340.489 99.471 336.738 98.5805C332.987 97.6899 310.472 88.7327 310.472 88.7327L307.35 116.86L300.452 147.492L316.527 146.468L338.703 117.252Z" fill="#E5E5E5"/>
<path d="M246.955 107.285C246.086 104.235 247.15 100.607 250.167 99.1079C250.736 98.7615 251.741 98.4554 252.382 98.2302C254.498 97.5007 256.599 96.7119 258.69 95.8987C264.048 93.8005 271.308 90.9017 276.702 88.7329C279.505 93.8241 283.435 98.8124 288.728 101.497C293.49 103.94 299.369 103.387 303.168 99.3936C305.944 96.5887 307.821 92.7734 308.832 88.9942C309.245 89.111 315.366 91.0618 315.971 91.2429C317.532 91.7227 320.723 92.7583 322.271 93.2934L322.223 93.4736L309.403 90.2155L309.547 90.1271C308.104 95.64 304.961 101.383 299.417 103.702C289.458 107.579 280.2 98.8815 275.866 90.7453L276.067 90.8215C270.438 92.969 264.79 95.0686 259.091 97.0316C256.949 97.7591 254.805 98.4851 252.623 99.087C250.441 99.5433 248.321 100.751 247.522 102.906C246.98 104.271 246.886 105.806 247.139 107.245L246.955 107.285Z" fill="#232020"/>
<path d="M336.612 99.108C336.043 98.7615 335.039 98.4555 334.397 98.2302C332.281 97.5007 330.18 96.7119 328.089 95.8987C322.815 93.8331 315.701 90.9933 310.334 88.8361V91.7791C310.51 91.4763 310.681 91.1737 310.844 90.8718C316.429 93.0019 322.033 95.0843 327.688 97.0319C329.83 97.7594 331.974 98.4854 334.156 99.0873C336.338 99.5436 338.458 100.752 339.257 102.907C339.8 104.272 339.893 105.806 339.641 107.246L339.825 107.285C340.693 104.235 339.629 100.607 336.612 99.108Z" fill="#232020"/>
<path d="M270.95 64.9808C270.95 64.9808 265.384 46.5169 268.494 43.8259C271.603 41.1345 283.231 32.2031 285.878 30.7127C288.525 29.2223 294.293 25.3594 299.388 26.9413C304.484 28.5233 316.144 39.0724 316.144 39.0724L319.815 43.8038L317.266 58.5992C317.266 58.5992 312.168 58.1708 311.913 61.9848L309.832 46.9549C309.832 46.9549 299.706 41.9286 298.013 43.119C296.321 44.3095 283.32 47.774 283.32 47.774L281.087 63.5598" fill="#232020"/>
<path d="M311.641 55.7544C311.641 55.7544 311.27 51.3454 309.69 44.8577C308.524 40.0688 301.489 38.7667 297.141 38.4287C295.599 38.309 292.138 40.8515 292.138 40.8515L287.253 38.6339C287.253 38.6339 277.61 38.892 276.258 45.4297C274.907 51.9677 274.691 56.3869 274.691 56.3869C274.691 56.3869 275.396 71.5034 275.884 74.2456C276.372 76.9881 281.247 87.3844 289.759 87.7898C290.834 87.841 291.775 87.8671 292.599 87.8738C292.934 87.8785 293.298 87.8782 293.699 87.8706C293.707 87.8706 293.716 87.8703 293.724 87.8703C293.732 87.8703 293.74 87.87 293.748 87.87C294.149 87.8636 294.513 87.8514 294.848 87.8354C295.672 87.8003 296.611 87.7421 297.684 87.6544C306.176 86.9583 310.683 76.4013 311.074 73.6437C311.467 70.8861 311.641 55.7544 311.641 55.7544Z" fill="white"/>
<path d="M311.547 55.7623C310.969 52.1522 310.094 48.5239 309.112 44.9992C308.698 43.6472 307.754 42.5637 306.503 41.8219C303.797 40.2324 300.502 39.7395 297.38 39.532C296.959 39.5009 297 39.5247 296.749 39.5721C295.377 40.0426 294.093 40.9538 292.878 41.8333L292.307 42.2591L291.62 41.9635L286.69 39.8436L287.29 39.965C283.665 40.2827 278.655 41.6958 277.818 45.598C277.127 49.1464 276.574 52.8983 276.338 56.465C276.607 60.8778 276.912 67.0836 277.319 72.0629C277.419 73.8878 277.724 75.0321 278.48 76.5995C280.564 80.8711 283.847 85.1327 288.654 86.1561C288.981 86.2308 289.453 86.2732 289.79 86.3064C291.51 86.3712 293.286 86.4898 294.992 86.4127C295.643 86.3717 296.96 86.3351 297.612 86.2962C303.806 85.8015 308.266 79.5094 310.099 74.023C310.821 70.1266 310.869 65.0457 311.193 61.0322L311.546 55.7535L311.735 55.7559C311.662 61.0415 311.605 66.3279 311.352 71.6095C311.35 75.1835 309.588 78.5093 307.587 81.4024C305.526 84.2739 302.655 86.817 299.084 87.5834C296.43 88.0301 293.727 88.0537 291.043 87.9781C288.339 88.0566 285.605 87.2605 283.431 85.6463C279.832 82.9829 277.231 79.0746 275.849 74.8728C275.3 72.2582 275.303 69.6012 275.077 66.9528C274.861 63.4314 274.681 59.9094 274.517 56.3854C274.762 52.7602 275.342 49.1577 276.061 45.5991C276.969 40.5879 282.772 38.6903 287.312 38.5069L292.194 40.7309L292.057 40.7451C293.144 39.9755 294.266 39.2567 295.496 38.71C296.104 38.436 296.819 38.2226 297.487 38.334C300.782 38.6569 304.199 39.2591 307.009 41.0953C309.724 42.8465 309.863 45.1074 310.497 47.9629C311.026 50.5374 311.473 53.1276 311.734 55.7472L311.547 55.7623Z" fill="#232020"/>
<path d="M274.869 59.9701C274.869 59.9701 272.386 56.6432 270.968 57.3189C269.55 57.9946 270.16 67.6477 271.18 69.3674C272.2 71.0872 274.566 74.322 275.758 73.3155" fill="white"/>
<path d="M274.793 60.0256C273.72 59.3603 272.808 58.645 271.705 58.3349C271.54 58.2989 271.4 58.3149 271.388 58.3596C271.372 58.3922 271.455 58.414 271.491 58.4026C271.563 58.3968 271.689 58.2977 271.746 58.2637C271.822 58.2131 271.764 58.357 271.758 58.5273C271.67 59.7995 271.749 61.2408 271.823 62.5469C271.946 64.5715 272.05 66.6859 272.393 68.6594C272.625 69.245 272.942 69.8147 273.221 70.3852C273.668 71.1374 274.679 73.5471 275.697 73.2454L275.819 73.3866C274.3 74.4553 272.059 70.9685 271.327 69.9062C269.924 68.1066 269.393 59.2975 270.652 57.3973C271.99 56.1566 274.198 58.9575 274.945 59.9151L274.793 60.0256Z" fill="#232020"/>
<path d="M312.358 59.3291C312.358 59.3291 314.723 55.9193 316.164 56.5459C317.605 57.1728 317.334 66.8407 316.375 68.5944C315.416 70.3481 313.165 73.662 311.938 72.6968" fill="white"/>
<path d="M312.281 59.2761C312.823 57.6967 313.72 55.7971 315.595 55.3495C316.307 55.1838 317.186 55.5782 317.564 56.2133C318.058 56.9361 318.328 57.867 318.487 58.6369C318.995 61.226 318.959 63.831 318.524 66.4276C318.325 67.4129 318.12 68.5129 317.509 69.3982C316.809 70.3789 316.02 71.2723 315.07 72.0593C314.397 72.5624 313.635 73.1309 312.719 73.1658C312.389 73.1728 312.033 73.0161 311.88 72.7694L311.997 72.6241C313.335 73.4448 315.374 69.9438 315.976 68.9826C316.949 67.267 316.82 65.1772 316.961 63.266C317 61.3262 317.054 59.2967 316.546 57.4206C315.898 55.0818 313.093 58.4887 312.436 59.3816C312.436 59.381 312.281 59.2761 312.281 59.2761Z" fill="#232020"/>
<path d="M284.108 72.8379C284.108 72.8379 297.366 75.792 302.665 72.5205L284.108 72.8379Z" fill="white"/>
<path d="M284.124 72.7694C288.074 72.4114 291.876 72.7776 295.794 72.8525C298.113 72.9014 300.28 72.9787 302.627 72.4611L302.703 72.5799C298.739 74.8408 293.135 74.2476 288.748 73.739C287.184 73.5306 285.63 73.2606 284.092 72.9063L284.124 72.7694Z" fill="#232020"/>
<path d="M286.929 75.954C286.929 75.954 296.569 78.3396 300.417 75.7233L286.929 75.954Z" fill="white"/>
<path d="M286.942 75.9018C291.484 75.4652 295.892 76.6159 300.387 75.6791L300.448 75.7672C297.424 77.5509 293.64 77.1013 290.301 76.6682C289.164 76.4915 288.034 76.2787 286.916 76.0058L286.942 75.9018Z" fill="#232020"/>
<path d="M316.983 56.4348C317.207 51.6107 317.573 46.31 317.968 41.4973L318.159 42.2172C317.087 40.898 316.005 39.5913 314.961 38.2482C314.425 37.537 313.118 35.8745 312.625 35.1779C310.525 32.3008 307.686 29.781 304.67 27.8912C296.582 22.6582 290.112 26.3467 283.081 31.2185C281.156 32.5261 279.161 33.972 277.062 35.1209C276.151 35.6176 275.011 36.0277 274.014 36.3742C270.679 37.9128 268.307 41.8283 268.108 45.4561C268.101 45.7584 268.136 46.0525 268.181 46.344C269.098 50.1192 268.68 54.1082 270.142 57.7206L269.98 57.8168C269.127 56.3241 268.833 54.6227 268.503 52.9666C268.192 51.3076 267.966 49.6353 267.612 47.9937C267.453 47.1593 267.11 46.3656 267.082 45.5087C267.048 44.6511 267.161 43.798 267.364 42.9717C268.217 39.7078 270.231 36.552 273.361 35.0157C274.066 34.7102 275.047 34.3859 275.707 34.0217C279.455 32.0111 282.64 29.1314 286.3 26.9655C295.175 21.4285 302.086 22.7102 309.661 29.5743C310.911 30.7322 312.089 31.9663 313.132 33.3169C315.031 36.1292 317.055 38.8295 319.071 41.5502L319.101 41.59L319.095 41.638L317.17 56.4584L316.983 56.4348Z" fill="#232020"/>
<path d="M276.079 90.6616C278.132 96.5797 279.409 102.651 280.563 108.775C281.612 114.917 282.527 121.052 282.67 127.305L282.531 127.33L279.166 109.02L275.94 90.686L276.079 90.6616Z" fill="#232020"/>
<path d="M310.191 90.1008C310.273 96.3554 309.572 102.517 308.735 108.692C307.793 114.851 306.727 120.961 304.89 126.947L304.749 126.928L307.33 108.495L310.05 90.081L310.191 90.1008Z" fill="#232020"/>
<path d="M304.809 152.706H279.218V238.039H304.809V152.706Z" fill="white"/>
<path d="M305.591 238.04H276.01V240.278H305.591V238.04Z" fill="#232020"/>
<path d="M282.6 131.977C281.168 133.287 286.916 261.055 286.916 261.055C286.916 261.055 242.497 259.512 242.039 256.235C241.581 252.957 248.399 118.043 249.098 118.671C249.797 119.3 282.6 131.977 282.6 131.977Z" fill="#E5E5E5"/>
<path d="M302.086 129.349C303.519 130.659 297.697 259.122 297.697 259.122C297.697 259.122 338.635 261.974 339.093 258.697C339.552 255.419 336.288 115.414 335.589 116.043C334.889 116.672 302.086 129.349 302.086 129.349Z" fill="#E5E5E5"/>
<path d="M282.6 200.143C282.18 202.997 286.916 262.61 286.916 262.61C286.916 262.61 290.546 262.876 289.567 261.244C288.589 259.613 282.6 200.143 282.6 200.143Z" fill="#232020"/>
<path d="M300.657 196.909C299.837 199.678 296.084 259.358 296.084 259.358C296.084 259.358 299.641 260.123 298.903 258.372C298.165 256.621 300.657 196.909 300.657 196.909Z" fill="#232020"/>
<path d="M251.198 114.723L242.833 101.224L234.893 109.583L221.859 136.03L249.39 131.157L251.198 114.723Z" fill="white"/>
<path d="M263.995 164.133H188.784V228.217H263.995V164.133Z" fill="white"/>
<path d="M239.653 84.6211L237.89 108.098L239.653 125.923C239.653 125.923 217.978 131.97 217.655 131.891C217.333 131.811 203.228 116.772 202.744 115.817C202.26 114.862 199.129 107.729 199.129 107.729L206.389 98.5562L207.945 84.8193L239.653 84.6211Z" fill="white"/>
<path d="M200.378 110.007L204.598 103.805C204.598 103.805 217.494 115.339 217.575 117.169C217.656 118.999 224.265 127.714 222.491 129.325C220.718 130.936 209.216 119.397 200.378 110.007Z" fill="#BABCBE"/>
<path d="M249.098 113.931L244.878 107.729C244.878 107.729 231.982 119.263 231.901 121.093C231.821 122.923 225.211 131.638 226.985 133.248C228.758 134.859 240.26 123.321 249.098 113.931Z" fill="#BABCBE"/>
<path d="M238.81 87.5593C239.646 90.9185 239.707 94.2778 239.627 97.6896C239.44 101.097 239.119 104.441 238.032 107.73L237.89 107.724C237.959 104.36 238.104 100.999 238.208 97.6364C238.363 94.2754 238.477 90.9133 238.668 87.5538L238.81 87.5593Z" fill="#232020"/>
<path d="M208.086 84.8387C209.01 89.9484 208.057 96.5582 205.752 101.224L205.611 101.204C205.939 98.4651 206.344 95.7363 206.708 93.0019C207.122 90.2746 207.495 87.5417 207.945 84.8192L208.086 84.8387Z" fill="#232020"/>
<path d="M205.338 65.1694C205.338 65.1694 197.657 58.9558 195.977 61.4129C194.297 63.87 197.693 83.6545 203.436 80.6836" fill="white"/>
<path d="M205.268 65.2528C203.27 64.4381 201.417 63.5156 199.421 62.8576C198.653 62.6463 197.811 62.2917 197.175 62.4955C197.15 62.5016 197.163 62.5147 197.17 62.5176C197.268 62.5379 197.401 62.4156 197.476 62.3603C197.368 63.7897 197.541 65.7114 197.76 67.3085C198.112 69.9536 198.599 72.6197 199.244 75.1953C199.782 76.9377 200.231 78.9873 201.62 80.2313C202.047 80.5911 202.669 80.7239 203.385 80.587L203.487 80.7786C202.847 81.1288 202.017 81.2305 201.324 80.9213C197.099 78.9173 195.153 67.6765 195.365 63.345C195.316 58.7157 199.676 61.1888 201.954 62.583C203.155 63.3511 204.302 64.1893 205.407 65.0851L205.268 65.2528Z" fill="#232020"/>
<path d="M242.495 68.4073C242.495 68.4073 249.953 61.9348 251.718 64.3329C253.484 66.7309 250.784 86.6198 244.94 83.8471" fill="white"/>
<path d="M242.448 68.3546C244.175 66.2768 249.715 60.7224 252.503 63.5279C252.873 63.9226 253.066 64.4612 253.195 64.9698C253.64 66.8264 253.501 68.7199 253.379 70.5856C253.056 73.4743 252.481 76.3225 251.369 79.0287C250.419 81.2207 248.438 85.2478 245.399 84.1823L244.909 83.91L244.97 83.7836C247.981 85.0499 249.513 80.826 250.311 78.677C251.187 76.0145 251.697 73.2391 251.965 70.4548C252.091 69.0629 252.18 67.6585 252.073 66.2704C252.007 65.6174 251.959 64.8596 251.56 64.3301C250.234 63.0277 247.204 65.1357 245.927 65.9135C244.75 66.6953 243.621 67.5521 242.541 68.4601L242.448 68.3546Z" fill="#232020"/>
<path d="M184.356 214.27C184.356 214.27 181.291 240.241 178.097 245.303C174.905 250.365 208.799 260.684 222.529 261.038C236.26 261.392 265.407 256.181 268.651 254.063C271.896 251.946 272.399 246.635 272.399 246.635L268.152 208.629" fill="#232020"/>
<path d="M184.459 214.281C183.802 222.717 182.961 231.157 181.23 239.466C180.702 241.666 180.244 243.871 179.116 245.93C179.119 245.953 179.095 245.968 179.105 245.986C179.098 245.991 179.101 245.999 179.107 246.006C179.102 246.009 179.108 246.022 179.115 246.039C179.673 247.186 181.164 247.959 182.309 248.632C185.961 250.597 189.945 251.94 193.91 253.242C203.2 256.108 212.822 258.669 222.556 259.222C229.552 259.276 236.532 258.491 243.515 257.578C251.593 256.333 259.833 255.415 267.607 252.902C269.595 251.869 270.651 249.037 271.067 246.512L271.069 246.781L270.218 237.256C269.69 231.725 269.114 223.802 268.696 218.188C268.442 215.01 268.245 211.825 268.05 208.641L268.255 208.618C268.262 208.631 272.545 246.623 272.55 246.636C272.276 248.752 271.639 250.863 270.376 252.616C269.114 254.501 266.845 255.028 264.779 255.581C257.88 257.347 250.838 258.505 243.794 259.529C236.745 260.479 229.636 261.35 222.501 261.234C218.215 261.076 213.984 260.3 209.802 259.425C204.307 258.357 178.017 251.509 177.753 245.921C177.752 245.637 177.903 245.357 178.038 245.122C178.396 244.534 178.644 243.874 178.893 243.223C180.263 239.239 181.012 235.07 181.78 230.936C182.759 225.402 183.562 219.835 184.253 214.258L184.459 214.281Z" fill="#232020"/>
<path d="M250.388 58.0614C250.388 58.0614 248.692 79.0696 245.665 84.8661C242.638 90.6624 234.434 105.087 223.941 102.367C213.448 99.6481 207.6 89.9942 205.875 82.2908C204.149 74.587 206.408 59.4687 206.408 59.4687L207.938 42.7275C207.938 42.7275 229.491 36.4764 232.989 38.5623C236.487 40.6479 252.044 43.8322 250.388 58.0614Z" fill="white"/>
<path d="M250.498 58.0716C250.093 63.2653 249.486 68.4434 248.774 73.6124C248.155 77.5033 247.641 81.4441 246.095 85.1332C244.365 88.7008 242.431 92.1507 240.017 95.3431C236.586 99.9091 231.414 104.595 225.166 103.979C216.995 102.921 210.193 96.9454 206.603 89.8361C205.348 87.3615 204.375 84.7644 203.837 81.9902C203.3 79.196 203.254 76.5035 203.291 73.8302C203.372 68.8628 203.906 63.9483 204.671 59.0551C204.917 56.6672 205.377 52.7363 205.678 50.3492C205.736 49.9115 206.707 41.9328 206.741 41.6881C213.679 39.9751 220.618 38.3161 227.751 37.6279C229.778 37.5157 232.026 37.2329 233.851 38.4399C236.118 39.5565 238.516 40.4529 240.765 41.6861C247.241 45.0747 251.517 50.562 250.498 58.0716ZM250.279 58.0509C251.217 50.6338 247.032 45.3051 240.551 42.0906C238.55 41.0493 236.44 40.2419 234.344 39.3717C233.825 39.1555 233.297 38.8977 232.806 38.6361C231.262 38.0362 229.473 38.3277 227.844 38.4568C221.109 39.3121 214.515 41.0824 207.987 42.8931L208.112 42.7429C208.002 43.8647 206.619 59.714 206.497 60.2551C205.669 67.3026 204.864 74.546 205.966 81.5955C207.488 89.1315 212.065 96.3621 218.94 100.172C220.645 101.102 222.503 101.835 224.398 102.282C227.605 103.035 230.946 101.958 233.591 100.103C238.943 96.286 242.476 90.5162 245.518 84.8393C247.144 81.2932 247.718 77.3672 248.403 73.5543C249.226 68.4137 249.819 63.2386 250.279 58.0509Z" fill="#232020"/>
<path d="M201.442 61.7069L203.927 43.4682C203.927 43.4682 209.409 30.0301 222.702 29.0178C244.102 27.3882 247.205 37.5537 249.551 42.8044C251.898 48.0551 254.074 50.9999 253.253 57.9878C252.432 64.9757 252.101 67.2506 252.101 67.2506L248.949 73.5921C248.949 73.5921 250.707 54.2194 248.599 50.5323C246.491 46.8452 245.524 45.832 245.524 45.832C245.524 45.832 235.627 49.3488 231.571 47.5111C227.515 45.6733 216.059 39.7338 214.061 42.4667C212.062 45.1996 210.81 49.438 210.954 51.9271C211.08 54.108 208.993 62.1879 208.579 64.4357C208.521 64.7534 207.642 66.6989 207.642 66.6989L205.337 73.9777L205.652 65.1292L201.442 61.7069Z" fill="#232020"/>
<path d="M199.562 60.7141C200.174 54.792 200.797 48.0776 201.576 42.181C204.966 33.9634 212.721 26.9081 222.094 27.0104C227.475 26.945 232.832 28.3096 237.592 30.755C242.266 33.2235 246.823 36.4409 249.472 41.0934C250.671 43.9255 252.863 47.7157 253.338 50.7709C253.666 52.4988 253.715 54.2653 253.568 56.001C253.199 59.4704 252.79 62.8846 252.375 66.342L252.339 66.415L249.208 72.8167L247.909 75.4702C248.142 72.1476 248.387 68.6399 248.468 65.3239C248.554 61.7435 248.634 58.1599 248.382 54.5975C248.233 53.0426 248.147 51.5042 247.541 50.1089C246.65 48.6205 245.717 47.1411 244.636 45.7847C244.558 45.6891 244.444 45.5586 244.406 45.5199L245.503 45.776C241.285 47.1062 234.595 49.1756 230.3 47.5355C225.879 45.5804 221.497 43.3747 216.874 42.1662C215.936 41.9442 214.704 41.7061 213.859 41.9372C213.603 42.0473 213.632 42.0223 213.505 42.1999C213.04 42.8187 212.651 43.4811 212.291 44.1737C211.31 46.1431 210.507 48.4676 210.486 50.6407C210.517 51.9105 210.329 53.1696 210.15 54.4092C209.581 58.046 208.884 61.6447 208.102 65.2382C207.556 66.9896 205.431 73.668 204.911 75.331L204.616 72.6777C204.29 70.2401 203.985 66.6228 203.699 64.1372L203.814 64.3366C202.358 63.1212 200.943 61.8999 199.562 60.7141ZM199.765 60.6338C201.281 61.7293 202.762 62.7895 204.203 63.855L204.295 63.9233L204.318 64.0547C204.745 66.5211 205.354 70.0826 205.742 72.5269L204.633 72.4481L206.645 64.8266C207.159 61.6122 207.83 57.6429 208.239 54.1607C208.367 52.9693 208.525 51.7931 208.463 50.6942C208.438 48.0145 209.213 45.5905 210.319 43.2131C210.774 42.32 211.255 41.4623 211.885 40.6595C212.762 39.6106 214.318 39.5487 215.428 39.6431C221.092 40.4038 226.138 43.227 231.241 45.4304C233.16 46.1765 235.74 45.8472 237.848 45.5315C240.418 45.1087 243.001 44.4225 245.475 43.6104C246.998 45.2031 248.061 47.1251 249.176 48.9916C249.488 49.5334 249.671 50.1673 249.798 50.7549C250.287 53.2469 250.27 55.6592 250.266 58.1471C250.207 62.9953 249.774 67.797 249.267 72.6121L248.177 72.3019L251.549 66.0209C251.657 65.0403 252.068 62.5611 252.252 61.0547C252.672 57.6827 253.384 54.2673 252.673 50.8974C252.119 47.954 250.561 45.3153 249.254 42.6443C247.678 39.1784 244.515 36.6838 241.374 34.6092C235.676 30.9823 228.908 28.8917 222.117 28.9525C213.507 28.808 206.314 35.2972 202.88 42.6899L202.922 42.531L202.178 47.0016C201.458 51.1895 200.534 56.4262 199.765 60.6338Z" fill="#232020"/>
<path d="M199.574 105.943C199.574 105.943 163.827 123.742 163.035 127.626C162.242 131.509 161.748 185.04 164.206 194.343C166.664 203.647 170.864 211.267 182.11 212.282C194.58 213.408 194.453 216.786 204.437 213.615C204.437 213.615 211.794 206.129 210.896 194.116L191.783 188.151L192.589 173.588L197.7 179.959L201.616 179.476C201.616 179.476 200.823 175.409 202.106 175.493C203.389 175.578 211.942 175.071 212.333 175.728C212.724 176.386 212.504 178.207 212.504 178.207L212.087 179.192L256.747 179.381C256.747 179.381 258.114 181.531 258.872 185.458C259.63 189.384 258.162 200.843 257.633 202.952C257.104 205.061 254.586 209 254.586 209L264.001 209.716L279.297 207.328C279.297 207.328 286.601 208.761 289.567 202.713C292.533 196.665 288.469 169.446 288.402 169.136C288.335 168.826 279.297 136.506 279.297 136.506C279.297 136.506 276.091 126.877 274.398 125.684C272.705 124.49 247.719 110.962 247.719 110.962C247.719 110.962 236.919 128.893 224.426 127.143C211.933 125.392 199.619 106.03 199.619 106.03" fill="white"/>
<path d="M199.619 106.03C192.977 109.867 183.648 114.865 177.248 118.846C173.613 121.02 169.905 123.245 166.548 125.779C165.813 126.333 164.955 127.048 164.419 127.717C164.306 127.852 164.257 128.013 164.304 127.887C164.282 128.094 164.252 128.285 164.238 128.555C163.815 139.662 164.017 150.821 164.144 161.943C164.304 171.491 164.442 181.029 165.358 190.474C165.934 195.409 167.597 200.399 170.671 204.333C174.375 208.865 180.488 211.764 186.348 212.369C203.386 213.825 220.702 212.431 237.733 210.978C241.999 210.49 246.314 210.105 250.486 209.084L250.547 209.271C246.391 210.473 242.092 211.008 237.819 211.614C224.981 213.252 212.054 214.254 199.109 214.481C193.724 214.495 188.27 214.567 182.949 213.586C177.727 212.303 172.607 209.702 169.185 205.51C165.135 200.421 163.474 193.862 163.096 187.508C162.458 179.005 162.344 170.481 162.247 161.96C162.276 150.515 162.012 139.028 162.891 127.61C163.384 126.304 164.714 125.553 165.734 124.707C167.473 123.432 169.295 122.286 171.131 121.164C180.352 115.632 189.926 110.701 199.528 105.855C199.529 105.855 199.619 106.03 199.619 106.03Z" fill="#232020"/>
<path d="M201.73 108.02C201.73 108.02 165.983 125.82 165.19 129.704C164.398 133.587 163.904 187.118 166.361 196.421C168.819 205.725 173.02 213.345 184.266 214.36C196.736 215.486 196.609 218.864 206.593 215.693C206.593 215.693 213.949 208.207 213.052 196.194L193.939 190.228L194.745 175.666L199.856 182.037L203.772 181.553C203.772 181.553 202.979 177.486 204.262 177.571C205.545 177.656 214.098 177.149 214.489 177.806C214.88 178.463 214.66 180.284 214.66 180.284L214.242 181.27L258.902 181.459C258.902 181.459 260.27 183.609 261.028 187.535C261.786 191.462 260.317 202.92 259.789 205.029C259.26 207.138 256.742 211.077 256.742 211.077L266.156 211.793L281.452 209.406C281.452 209.406 288.757 210.838 291.723 204.79C294.689 198.743 290.625 171.524 290.558 171.214C290.49 170.904 281.452 138.584 281.452 138.584C281.452 138.584 278.246 128.955 276.553 127.761C274.861 126.568 249.875 113.04 249.875 113.04C249.875 113.04 239.074 130.971 226.581 129.22C214.088 127.47 201.774 108.108 201.774 108.108" fill="#232020"/>
<path d="M273.087 180.194C271.65 179.732 270.033 179.903 268.529 179.846C265.49 179.842 257.726 180.107 254.561 180.194C247.089 180.444 238.731 180.613 231.257 180.743C227.103 180.77 221.417 180.852 217.262 180.816C210.902 180.826 204.534 180.702 198.167 180.498C196.626 178.721 195.09 176.938 193.596 175.12L192.174 173.371L192.317 173.234L198.646 179.607C204.367 179.311 211.146 179.242 217.224 179.061C232.782 178.718 248.355 178.446 263.913 178.956C266.634 179.093 269.377 179.162 272.064 179.651C272.447 179.739 272.834 179.808 273.202 180.033L273.087 180.194Z" fill="#232020"/>
<path d="M261.405 148.409C263.852 157.296 264.06 170.031 261.943 179.006L261.743 179.01C261.525 172.012 261.353 163.093 261.274 156.063C261.243 154.161 261.208 150.315 261.206 148.413L261.405 148.409Z" fill="#232020"/>
<path d="M256.895 180.391C256.895 180.391 260.793 199.015 254.668 207.804L256.895 180.391Z" fill="white"/>
<path d="M256.993 180.372C260.83 187.872 261.629 201.851 254.75 207.86L254.586 207.749C258.32 201.783 258.129 194.136 257.695 187.361C257.49 185.036 257.21 182.709 256.798 180.412L256.993 180.372Z" fill="#232020"/>
<path d="M210.995 196.162C212.499 202.556 209.239 211.171 203.257 214.333L203.107 214.203C203.61 213.542 204.165 212.923 204.606 212.22C206.992 208.83 208.559 204.929 209.706 200.975C210.141 199.382 210.531 197.767 210.797 196.139L210.995 196.162Z" fill="#232020"/>
<path d="M201.41 108.417C206.011 114.9 216.791 128.631 225.754 127.014C233.872 125.703 240.325 119.738 245.072 113.419C246.024 112.137 246.885 110.808 247.665 109.463L248.619 109.896C256.583 113.592 264.39 117.363 271.725 122.258C273.638 123.647 275.432 124.914 276.928 126.884C278.204 128.814 278.763 131.158 279.485 133.312C280.752 137.468 281.838 141.63 282.903 145.802C285.008 154.176 286.983 162.485 288.792 170.944C289.504 175.374 289.532 179.671 289.567 184.117C289.468 189.626 289.164 195.202 287.521 200.532C286.217 204.661 284.258 206.851 280.051 208.258C275.692 209.744 271.219 210.101 266.704 210.267C263.341 210.345 260.073 210.295 256.71 209.968C255.702 209.8 254.282 209.324 253.287 209.036C233.743 202.991 210.256 194.59 190.741 187.965C191.79 184.491 191.713 180.628 191.673 176.974C191.376 166.546 190.111 156.143 188.783 145.795L188.98 145.764C189.543 149.207 190.05 152.658 190.519 156.115C191.629 164.756 192.751 173.447 192.628 182.175C192.567 183.918 192.471 185.676 192.028 187.389L191.947 187.238C208.413 192.694 224.886 198.135 241.395 203.462C246.548 205.066 251.684 206.877 256.908 208.226C260.138 208.524 263.402 208.566 266.644 208.472C271.65 208.241 281.85 207.652 284.434 202.873C285.49 201.036 286.047 198.942 286.477 196.861C287.839 189.504 287.764 181.923 287.275 174.478C287.183 173.414 287.106 172.342 286.9 171.307C285.141 162.919 283.202 154.556 281.146 146.23C280.105 142.07 279.04 137.913 277.808 133.807C277.144 131.804 276.654 129.66 275.522 127.862C274.902 127.011 274.116 126.269 273.301 125.575C265.68 119.557 256.769 115.322 248.07 111.045L248.246 110.992C246.895 113.171 245.332 115.201 243.639 117.122C238.612 122.743 231.84 127.884 223.935 128.03C221.321 127.905 218.895 126.747 216.74 125.361C212.443 122.519 208.933 118.693 205.732 114.724C204.141 112.724 202.631 110.664 201.24 108.521L201.41 108.417Z" fill="#232020"/>
<path d="M226.947 69.5407C228.864 65.3445 226.973 60.4082 222.723 58.5152C218.473 56.6222 213.473 58.4893 211.555 62.6855C209.638 66.8817 211.529 71.818 215.779 73.711C220.03 75.604 225.03 73.7369 226.947 69.5407Z" fill="white"/>
<path d="M227.786 65.9694C227.961 72.2705 222.172 77.0737 216.022 74.2507C209.045 70.9502 208.215 61.1483 215.591 57.7603C221.741 55.0965 227.766 59.5936 227.786 65.9694ZM227.636 65.972C227.448 59.2559 218.36 56.1606 213.707 60.8114C209.675 64.6758 210.65 71.7465 216.326 73.4889C221.312 75.0537 227.765 71.4643 227.636 65.972Z" fill="#232020"/>
<path d="M246.87 73.3587C250.123 70.1478 250.123 64.942 246.87 61.7312C243.618 58.5203 238.345 58.5203 235.093 61.7312C231.841 64.942 231.841 70.1478 235.093 73.3587C238.345 76.5695 243.618 76.5695 246.87 73.3587Z" fill="white"/>
<path d="M249.386 67.4001C249.561 73.6143 243.847 78.3535 237.782 75.5683C230.906 72.3355 230.088 62.6214 237.357 59.3026C243.424 56.676 249.367 61.1109 249.386 67.4001ZM249.238 67.4027C249.053 60.7781 240.089 57.725 235.5 62.3124C231.522 66.1239 232.483 73.0984 238.083 74.8173C243.002 76.3606 249.363 72.8206 249.238 67.4027Z" fill="#232020"/>
<path d="M226.569 65.9445C228.283 63.9213 232.191 63.8472 233.587 66.2435L233.531 66.3261C231.983 65.3911 230.097 65.2614 228.341 65.5791C227.755 65.6901 227.169 65.8349 226.609 66.0351L226.569 65.9445Z" fill="#232020"/>
<path d="M236.823 87.2272C236.823 87.2272 224.766 91.2131 217.352 84.149L236.823 87.2272Z" fill="white"/>
<path d="M236.858 87.4071C230.995 95.9621 220.114 94.6188 217.258 84.2978L217.445 84.0002C218.308 84.6992 219.197 85.3583 220.144 85.8757C223.75 87.8628 227.844 88.193 231.785 87.8942C233.458 87.7352 235.142 87.4736 236.787 87.0473L236.858 87.4071Z" fill="#232020"/>
<path d="M210.215 179.382C212.688 183.475 212.989 189.595 209.416 193.158C211.114 188.679 210.706 184.043 210.215 179.382Z" fill="#232020"/>
<path d="M204.571 178.207C207.045 182.3 207.345 188.42 203.772 191.984C205.47 187.505 205.062 182.868 204.571 178.207Z" fill="#232020"/>
<path d="M201.669 178.751C201.408 178.09 201.042 177.441 201.19 176.708C201.348 176.009 201.997 175.372 202.749 175.245C204.138 174.994 205.551 174.849 206.951 174.832C208.173 174.81 209.397 174.881 210.622 175.035C211.028 175.084 211.561 175.131 211.9 175.374C212.709 175.857 213.027 176.826 212.685 177.658C212.593 177.961 212.496 178.264 212.368 178.568L212.226 178.571L212.193 177.666C212.219 177.077 212.068 176.492 211.491 176.243C211.237 176.116 210.956 176.138 210.642 176.148L206.976 176.234L203.309 176.274C202.266 176.178 201.705 176.848 201.812 177.844L201.811 178.749L201.669 178.751Z" fill="#232020"/>
<path d="M200.26 107.29C201.266 104.327 202.651 101.398 203.964 98.5563C205.556 99.7087 207.211 100.919 208.751 102.118C213.627 106.059 218.594 110.328 222.491 115.244C224.858 118.54 225.201 122.798 224.9 126.702L224.696 126.72C224.546 125.313 224.297 123.91 223.972 122.531C223.459 120.493 222.835 118.4 221.54 116.711C220.201 115.048 218.615 113.593 217.081 112.107C212.973 108.25 208.601 104.271 204.368 100.555L204.583 100.52L200.437 107.393L200.26 107.29Z" fill="#232020"/>
<path d="M246.324 107.381C244.707 105.412 243.209 103.229 241.803 101.105L243.685 101.323C242.888 102.39 242.092 103.468 241.281 104.527C239.87 106.35 237.781 108.96 236.294 110.769C234.241 113.275 232.04 115.683 230.186 118.314C228.628 121.112 227.958 124.358 227.104 127.462L226.919 127.455C227.136 124.142 227.478 120.735 228.874 117.675C229.825 115.914 231.13 114.326 232.345 112.742C233.76 110.898 235.924 108.346 237.45 106.548C239.189 104.515 240.947 102.499 242.722 100.495L242.847 100.355L242.933 100.52L246.488 107.296L246.324 107.381Z" fill="#232020"/>
<path d="M121.205 62.4761C121.986 64.9076 141.329 122.282 140.288 122.019C139.247 121.755 109.803 148.556 106.31 151.641C102.816 154.725 98.4072 186.399 96.043 185.177C93.6788 183.955 71.7036 150.04 68.685 149.492C65.6663 148.944 71.1828 132.882 71.3141 130.649C71.4454 128.416 80.0391 91.4158 79.79 90.1007C79.541 88.7855 121.205 62.4761 121.205 62.4761Z" fill="white"/>
<path d="M139.329 242.773C138.598 240.506 136.836 239.023 134.603 238C126.394 234.469 113.392 235.843 104.533 236.906C88.163 239.106 72.0604 242.917 56.1101 247.163C77.4079 264.762 104.459 278.504 134.878 287.44C137.292 279.921 139.171 272.234 140.248 264.473C141.147 257.263 141.457 249.747 139.329 242.773Z" fill="#232020"/>
<path d="M142.562 240.979C139.887 234.288 131.746 232.767 125.331 232.324C118.212 231.886 111.082 232.662 104.068 233.704C93.6195 235.314 83.3931 237.774 73.241 240.587C67.1034 242.314 61.0008 244.181 54.9526 246.201C55.3359 246.523 55.723 246.843 56.1099 247.163C72.0602 242.917 88.1627 239.106 104.532 236.906C113.392 235.843 126.394 234.469 134.603 238C136.836 239.023 138.598 240.506 139.329 242.773C141.457 249.747 141.147 257.263 140.247 264.474C139.17 272.235 137.292 279.921 134.877 287.441C135.808 287.714 136.741 287.982 137.678 288.246C140.243 280.65 142.271 272.887 143.542 264.928C144.68 257.03 145.165 248.709 142.562 240.979Z" fill="#E5E5E5"/>
<path d="M137.17 257.432L46.748 247.643V173.093H137.17V257.432Z" fill="white"/>
<path d="M92.2393 147.518L97.8476 148.291L96.4773 157.226L95.3489 184.44H89.7874L93.0921 158.658L92.2393 147.518Z" fill="#232020"/>
<path d="M84.5485 219.493L94.7849 219.808L93.4148 228.742L93.4952 254.347L80.4377 254.049L83.2303 228.088L84.5485 219.493Z" fill="#232020"/>
<path d="M112.444 92.4381C112.444 92.4381 112.121 105.246 115.994 110.029C119.868 114.813 137.003 115.49 137.003 115.49C137.003 115.49 121.521 87.047 122.644 71.0923" fill="#232020"/>
<path d="M70.5302 68.1341C70.5302 68.1341 69.8496 90.1731 67.5673 96.3251C65.2849 102.477 57.0757 121.42 57.0757 121.42L83.2306 110.321C83.2306 110.321 86.6499 103.369 86.8486 98.7854C86.8486 98.7854 74.4267 89.3631 75.9563 67.3999C77.486 45.4367 70.5302 68.1341 70.5302 68.1341Z" fill="#232020"/>
<path d="M82.1269 220.354L79.0441 242.411L75.797 267.356L33.073 247.305C33.073 247.305 43.8872 217.107 47.683 214.301L82.7725 220.581" fill="#E5E5E5"/>
<path d="M140.193 213.256C140.193 213.256 146.716 240.562 146.837 241.144C146.958 241.726 149.193 251.564 148.148 254.185C147.102 256.807 124.418 260.786 124.418 260.786L94.3082 264.923L92.3694 239.09L93.2537 220.09L109.519 220.112C109.519 220.112 125.204 217.46 128.59 212.891L140.193 213.256Z" fill="#E5E5E5"/>
<path d="M76.0933 68.9532C76.0933 68.9532 73.4495 86.2505 84.5799 96.6604C95.7102 107.071 98.0035 105.784 101.766 104.265C105.529 102.745 119.223 91.287 120.075 79.8404C120.927 68.3938 119.82 65.295 119.82 65.295L111.494 46.7305C111.494 46.7305 100.93 44.6248 99.6673 44.6463C98.4044 44.6684 75.7159 57.0422 76.0933 68.9532Z" fill="white"/>
<path d="M76.1967 68.9593C75.3639 76.7795 76.6168 85.2093 81.1165 91.8057C83.3485 95.1097 86.5523 97.577 89.6468 100.022C91.9333 101.726 94.3184 103.553 97.0965 104.087C98.8181 104.361 100.538 103.487 102.029 102.681C107.545 98.9052 112.305 93.5652 115.567 87.8376C117.185 84.962 118.189 81.8753 118.296 78.6207C118.562 74.3942 118.856 70.0027 118.188 65.8633L118.237 65.9866L116.245 61.3067C114.93 58.1137 111.742 50.5021 110.418 47.2007L111.261 47.8689C109.336 47.4251 107.404 46.9876 105.474 46.5662C103.89 46.2442 101.338 45.6417 99.7719 45.4443C99.7342 45.4397 99.6538 45.4295 99.6957 45.4394C99.7062 45.4452 99.7457 45.4199 99.6748 45.4464C99.5808 45.4786 99.4964 45.499 99.3842 45.5466C91.0137 49.2721 76.1855 58.9237 76.1967 68.9593ZM75.99 68.9473C76.0171 61.2584 83.7762 54.7765 89.5111 50.4762C91.9148 48.7387 94.412 47.1245 97.0194 45.6998C97.791 45.2926 98.5579 44.8689 99.3818 44.5675C99.4999 44.5247 99.6801 44.4875 99.7952 44.5076C103.691 44.9723 107.679 45.8567 111.525 46.5729L111.608 46.5892L111.642 46.6653C111.649 46.6697 119.991 65.2242 119.996 65.2292C120.874 69.1839 120.589 73.2459 120.444 77.255C120.34 79.2581 120.238 81.2914 119.673 83.2309C117.362 90.9152 111.541 97.3476 105.294 102.255C102.913 104.022 99.965 105.841 96.8616 105.332C93.8374 104.657 91.3681 102.643 89.0207 100.769C87.4528 99.4961 85.9679 98.1321 84.4872 96.7664C77.0222 89.7259 74.884 78.7582 75.99 68.9473Z" fill="#232020"/>
<path d="M106.954 38.9176C106.954 38.9176 112.73 48.103 107.885 51.9273C103.039 55.7515 67.765 77.1404 67.765 77.1404C67.765 77.1404 65.3004 56.6743 77.7791 47.9388C90.2571 39.2033 102.138 36.3672 106.954 38.9176Z" fill="#232020"/>
<path d="M107.025 35.9256C109.636 39.7525 112.621 46.117 108.29 49.8218C103.947 53.2449 99.3511 56.2403 94.8043 59.2839C85.4379 65.5187 75.8453 71.4205 66.2575 77.3161C65.9708 75.0866 65.6773 72.4787 65.7212 70.2733C65.755 62.0461 67.5098 53.2606 73.2551 46.9552C75.1456 44.8875 77.579 43.3439 79.9591 41.9256C86.2462 38.0569 100.009 32.0435 107.025 35.9256ZM106.883 36.0747C98.747 32.5821 84.0975 40.6105 77.486 45.4372C73.1782 48.5926 70.5494 53.4966 69.1976 58.5416C67.8434 63.6208 67.4969 68.9791 67.9688 74.199L67.6573 74.0499C80.7925 66.0003 94.0895 58.1664 106.878 49.5869C111.916 46.6343 109.125 39.9952 106.883 36.0747Z" fill="#232020"/>
<path d="M107.989 40.1193C107.989 40.1193 124.072 44.8327 126.628 54.4886C129.183 64.1449 129.534 68.1572 127.589 69.2991C125.644 70.4411 119.438 76.367 119.438 76.367C119.438 76.367 105.873 47.4999 107.989 40.1193Z" fill="#232020"/>
<path d="M108.888 36.9853C108.97 36.9557 109.082 37.0091 109.165 37.0179C109.262 37.0336 109.645 37.1277 109.754 37.1498C115.819 38.6731 121.844 41.217 126.14 45.9158C127.676 47.608 128.788 49.77 129.357 51.9844C129.933 54.0242 130.486 56.0761 130.943 58.1931C131.4 60.5723 131.892 62.6222 131.335 65.2231C131.232 65.5998 131.07 66.0268 130.863 66.372C130.545 66.9737 130.002 67.4806 129.417 67.8471C126.681 69.869 124.182 72.3171 121.651 74.6129L119.776 76.3672L118.738 74.0781C115.256 66.3936 106.227 44.5911 108.888 36.9853ZM108.988 37.164C107.662 44.9015 117.021 65.4086 120.561 73.2425L120.253 73.1856C122.563 71.006 124.863 68.8152 127.364 66.8435C127.756 66.5261 128.264 66.2108 128.655 65.9282C129.81 64.8692 129.597 63.0855 129.522 61.6381C129.212 58.5157 128.419 55.4576 127.661 52.4131C127.213 50.3621 126.322 48.4607 124.968 46.8453C121.06 42.2014 115.323 39.4319 109.662 37.416L109.286 37.2913C109.265 37.2873 109.034 37.2088 109.002 37.2015L108.955 37.187C108.958 37.1896 108.983 37.1826 108.988 37.164Z" fill="#232020"/>
<path d="M122.609 64.2775C122.609 64.2775 127.401 65.4427 127.189 69.3263C126.976 73.2098 127.267 84.4289 120.584 82.1877" fill="#232020"/>
<path d="M122.634 64.1783C125.369 63.9388 128.426 65.8276 128.754 68.7082C129.069 73.0262 129.107 78.8304 125.738 82.0861C124.318 83.4347 122.024 83.5356 120.551 82.2843L120.617 82.0908C126.712 83.8997 126.649 74.9288 126.928 71.074L126.996 69.5569C127.329 66.9239 124.921 65.038 122.584 64.3768L122.634 64.1783Z" fill="#232020"/>
<path d="M73.231 70.6705C74.5031 79.1413 73.7874 87.7974 71.8886 96.1194C70.2925 102.325 67.8821 108.308 64.9259 114.004C63.8843 115.874 62.8493 117.76 61.4377 119.426L61.2634 119.316C62.3029 117.502 63.1113 115.54 63.9132 113.599C66.2011 107.725 68.3852 101.76 69.8762 95.643C71.8439 87.4728 72.8369 79.064 73.0241 70.6705H73.231Z" fill="white"/>
<path d="M124.72 109.941C123.08 109.425 121.667 108.788 120.671 107.999C117.313 104.548 116.4 95.7504 115.869 90.949L115.662 90.9441C115.669 95.9379 115.923 101.062 117.661 105.801C117.852 106.362 118.191 106.997 118.461 107.524C119.393 109.43 121.783 110.78 124.72 111.747L124.72 109.941Z" fill="white"/>
<path d="M139.186 114.115C139.725 114.153 140.226 114.186 140.667 114.215C140.436 113.775 140.201 113.326 139.964 112.872C140.211 112.477 140.398 112.181 140.398 112.181C140.139 112.166 139.864 112.149 139.58 112.131C133.383 100.159 125.84 83.6508 126.334 70.7356L126.128 70.7213C125.501 74.5618 125.818 78.5059 126.457 82.3243C128.172 91.8719 131.783 100.983 136.019 109.693C136.389 110.459 136.765 111.213 137.149 111.963C134.619 111.766 131.637 111.458 128.832 110.935V112.813C132.133 113.486 135.589 113.839 138.253 114.045C138.405 114.322 138.554 114.598 138.71 114.874C138.71 114.875 138.917 114.543 139.186 114.115Z" fill="#232020"/>
<path d="M82.8311 104.902C82.8311 104.902 55.3624 115.21 51.2357 119.992C47.109 124.774 39.4055 141.673 38.4117 149.034C37.4182 156.395 31.9061 204.732 34.5367 208.13C35.7658 209.718 42.5413 212.505 57.2935 213.361C57.2935 213.361 59.7452 213.023 60.2491 212.605C60.7528 212.187 65.9452 206.478 66.677 206.06C67.4089 205.642 69.8808 196.71 69.8808 196.71L70.1832 194.92L55.6146 188.096C55.6146 188.096 60.0075 181.969 67.1807 181.759C71.9221 181.62 87.8118 181.759 87.8118 181.759C87.8118 181.759 90.9449 161.398 90.5887 159.131C90.2325 156.864 91.1024 137.054 90.587 135.559C90.0715 134.064 90.0815 128.449 90.0815 128.449C90.0815 128.449 90.904 122.106 90.587 120.531C90.2699 118.956 82.9983 105.721 82.9983 105.721" fill="#E5E5E5"/>
<path d="M121.576 99.79C121.576 99.79 126.626 107.602 131.847 109.176C137.067 110.749 157.921 115.381 160.179 124.072C162.437 132.764 166.254 158.333 163.911 168.766C161.567 179.199 155.747 207.428 153.391 209.131C153.391 209.131 143.184 210.38 140.426 210.08C137.667 209.78 134.766 209.243 134.766 209.243C134.766 209.243 128.54 202.379 128.419 202.2C128.298 202.021 123.765 194.368 123.886 193.48C124.006 192.592 122.676 183.819 122.676 183.819L110.888 183.102L97.166 183.222L98.0727 163.288L101.216 140.848L104.057 123.063L104.783 118.049L115.628 105.971" fill="#E5E5E5"/>
<path d="M85.6749 218.915C84.6545 222.808 84.195 225.427 83.6642 229.413C82.3383 240.514 80.985 254.347 79.6064 265.504L79.3356 267.807L77.1339 266.868C66.844 262.439 56.2929 257.792 46.1005 253.149C45.5123 252.912 34.6601 247.862 34.5347 247.828C35.6392 244.473 36.8005 241.135 38.0243 237.839C40.1886 232.07 42.5493 226.364 45.4555 220.911C46.9424 218.209 48.4641 215.427 50.7653 213.302L50.911 213.448C48.8108 215.676 47.4593 218.499 46.1222 221.219C44.8196 223.989 43.6553 226.821 42.5543 229.676C40.3676 235.391 38.4076 241.195 36.6251 247.045L36.5362 246.854C46.8658 251.375 67.6229 260.546 77.929 265.113L77.6755 265.252C79.8084 250.523 81.2753 234.834 84.6086 220.354L85.0022 218.886L85.4805 218.843L85.6749 218.915Z" fill="#232020"/>
<path d="M84.7672 110.322C87.3569 113.51 89.8171 116.807 91.6482 120.505C91.8151 120.835 92.0945 121.515 92.2152 121.864C93.0636 124.843 92.453 127.7 91.7315 130.602L91.8024 129.901C92.7795 136.318 93.7695 143.345 94.1831 149.795C94.2641 151.44 94.4457 153.218 94.2249 154.906C93.3006 162.026 92.5163 169.381 91.2731 176.488C90.911 178.682 90.4913 180.87 90.0317 183.054L89.8254 183.036C89.9443 181.17 92.3476 154.124 92.3418 153.246C91.9814 145.5 90.9364 137.786 90.0529 130.082C90.7959 127.577 91.4978 124.818 90.9025 122.223C90.6714 121.374 90.2899 120.56 89.9307 119.747C88.3835 116.525 86.5182 113.448 84.5933 110.432L84.7672 110.322Z" fill="#232020"/>
<path d="M94.8453 219.59C95.0549 224.973 94.8274 228.876 94.7423 234.269C94.9372 238.625 95.3985 242.991 95.8654 247.333C96.2363 251.047 97.3808 260.964 97.8206 264.794L95.994 263.329C110.428 261.507 124.939 259.792 139.21 256.966C141.231 256.558 143.242 256.114 145.192 255.578C146.843 255.085 148.793 254.601 150.109 253.596C150.567 252.333 150.342 250.278 150.197 248.771C149.732 244.754 148.847 240.721 147.982 236.746C146.198 228.816 144.045 220.611 141.958 212.731L142.154 212.667C144.741 220.52 147.165 228.427 149.251 236.428C150.272 240.432 151.247 244.456 151.825 248.56C152.017 250.103 152.205 251.671 152.019 253.23C151.949 253.756 151.822 254.342 151.45 254.744C149.855 256.217 147.714 256.685 145.721 257.347C137.652 259.59 129.354 260.82 121.085 262.07C112.748 263.257 104.389 264.272 96.0128 265.147C95.6119 261.198 95.2371 257.248 94.8918 253.294C94.3775 246.96 93.762 240.613 93.7405 234.252C94.0767 228.887 94.2077 224.91 94.3472 219.533L94.5545 219.538L94.8453 219.59Z" fill="#232020"/>
<path d="M116.055 105.052C113.63 107.824 111.179 110.554 108.86 113.368C106.667 116.075 104.244 118.842 102.792 121.978C102.681 122.276 102.579 122.541 102.564 122.842C102.613 123.234 102.678 123.705 102.677 124.059C102.653 126.955 102.173 129.678 101.785 132.485C100.636 139.693 99.1629 146.838 97.9639 154.008C97.3051 157.508 96.9509 161.122 96.8388 164.664C96.4793 171.962 96.1375 177.892 95.3086 185.177L95.1013 185.174L95.2114 164.652C95.167 161.005 95.459 157.335 96.0381 153.727C97.5636 142.888 100.374 132.235 101.3 121.324C102.965 118.032 105.586 115.341 108.055 112.631C110.581 109.962 113.209 107.393 115.914 104.902L116.055 105.052Z" fill="#232020"/>
<path d="M138.326 142.318C137.439 153.062 136.029 163.778 134.255 174.415C133.679 177.45 133.215 180.427 132.312 183.417C132.085 184.029 131.889 184.622 131.284 185.054C130.253 185.721 128.864 185.746 127.735 185.875C118.6 186.467 109.446 186.156 100.316 185.904C91.2485 185.579 82.1297 185.079 73.082 184.362C67.9921 183.79 61.9019 184.448 58.7805 188.998L58.6001 188.898C59.7988 186.768 61.8607 185.232 64.1395 184.368C66.4207 183.495 68.8756 183.163 71.3063 183.165C76.1534 183.35 80.9895 183.496 85.8321 183.637C97.934 183.962 110.04 184.275 122.145 184.138C124.547 184.075 126.992 184.071 129.364 183.725C129.644 183.674 129.967 183.61 130.154 183.497C130.275 183.358 130.431 183.007 130.496 182.792C131.059 181.1 131.423 179.338 131.812 177.597C132.315 175.26 132.776 172.913 133.223 170.564C134.994 161.163 136.584 151.728 138.122 142.286L138.326 142.318Z" fill="#232020"/>
<path d="M92.2375 148.272C93.0409 146.767 94.4063 145.995 95.8673 146.848C96.278 147.111 96.6907 147.476 97.109 148.189L97.1126 148.393C95.4949 148.558 93.8637 148.587 92.2414 148.477L92.2375 148.272Z" fill="#232020"/>
<path d="M152.264 122.307C152.264 122.307 139.633 134.37 139.699 138.111L152.264 122.307Z" fill="white"/>
<path d="M151.327 121.521C149.181 125.21 146.306 128.372 143.483 131.528C142.361 132.754 141.212 133.964 140.141 135.226C139.603 135.86 139.088 136.481 138.784 137.273L138.642 137.276C138.779 135.532 139.926 134.108 140.876 132.715C142.891 129.964 145.207 127.452 147.583 125.006C148.768 123.782 149.981 122.584 151.229 121.42L151.327 121.521Z" fill="#232020"/>
<path d="M54.8992 122.684C54.8992 122.684 70.5301 131.96 68.0114 138.049L54.8992 122.684Z" fill="white"/>
<path d="M54.9469 122.633C59.6038 125.046 63.5043 128.717 66.3928 133.025C67.2787 134.506 68.3564 136.251 68.0826 138.048L67.9404 138.051C67.699 136.399 66.4809 135.024 65.5032 133.709C64.4446 132.385 63.3003 131.127 62.1275 129.897C59.801 127.417 57.3391 125.06 54.8518 122.737L54.9469 122.633Z" fill="#232020"/>
<path d="M120.419 183.912C121.231 186.543 121.842 189.208 122.22 191.926C122.368 193.275 122.381 194.678 122.717 196.008C123.178 198.017 124.299 199.797 125.407 201.509C127.163 204.331 129.188 206.933 131.579 209.253C132.554 210.16 133.615 210.984 134.753 211.845L134.674 212.034C133.247 211.812 131.873 211.268 130.6 210.541C127.42 208.696 125.238 205.58 123.916 202.236C123.195 200.256 122.806 198.156 122.078 196.197C121.618 194.888 120.952 193.618 120.53 192.273C119.933 190.252 119.782 188.12 119.902 186.024C119.949 185.321 120.032 184.618 120.212 183.917L120.419 183.912Z" fill="#232020"/>
<path d="M133.553 181.395C134.763 183.985 135.765 186.643 136.527 189.388C136.866 190.758 137.073 192.196 137.586 193.524C138.314 195.536 139.656 197.255 140.963 198.927C143.056 201.698 145.335 204.286 147.894 206.638C148.933 207.561 150.044 208.408 151.23 209.285L151.152 209.474C146.676 208.693 142.924 205.471 140.646 201.698C139.002 199.268 138.286 196.367 136.974 193.786C136.341 192.495 135.503 191.272 134.895 189.946C134.291 188.622 133.933 187.209 133.654 185.788C133.39 184.351 133.225 182.899 133.349 181.429L133.553 181.395Z" fill="#232020"/>
<path d="M72.0875 195.463C72.6624 197.662 72.4734 200.038 71.7277 202.173C71.3132 203.237 70.6771 204.208 70.1966 205.213C69.4471 206.716 68.9143 208.357 68.0826 209.84C66.0484 213.333 62.3342 215.918 58.2122 216.181L58.1575 216.014C61.2553 214.071 63.9292 212.176 66.384 209.606C67.6587 208.217 69.0532 206.819 69.6676 204.995C70.0421 203.966 70.1242 202.848 70.2985 201.788C70.4754 200.726 70.7677 199.699 71.0229 198.649C71.2902 197.601 71.562 196.548 71.9099 195.465L72.0875 195.463Z" fill="#232020"/>
<path d="M58.8274 191.687C59.4023 193.886 59.2133 196.262 58.4677 198.398C58.0532 199.461 57.417 200.432 56.9369 201.437C56.1874 202.94 55.6545 204.581 54.8229 206.064C52.7887 209.558 49.0744 212.143 44.9525 212.405L44.8977 212.238C47.9958 210.295 50.6694 208.4 53.1246 205.83C54.399 204.441 55.7941 203.043 56.4081 201.219C56.7823 200.19 56.8647 199.072 57.0387 198.012C57.2156 196.95 57.508 195.923 57.7632 194.873C58.0302 193.825 58.3019 192.772 58.6499 191.689L58.8274 191.687Z" fill="#232020"/>
<path d="M86.9189 98.7918C86.9189 98.7918 86.2698 106.329 82.3789 107.86L86.9189 98.7918Z" fill="white"/>
<path d="M86.9897 98.7979C88.4328 102.03 86.554 108.014 82.405 107.925L82.3523 107.795C84.8083 106.63 85.7074 103.787 86.3615 101.364C86.5614 100.514 86.7316 99.6515 86.8478 98.7859L86.9897 98.7979Z" fill="#232020"/>
<path d="M155.059 121.938C161.157 134.62 163.617 154.306 160.897 168.092L160.512 168.139L159.689 162.381C158.253 151.819 156.549 138.353 155.31 127.766L154.674 121.986L155.059 121.938Z" fill="white"/>
<path d="M160.09 160.979C162.36 174.837 159.157 194.418 152.647 206.907L152.264 206.846L153.101 201.091C154.708 190.552 156.88 177.152 158.682 166.645L159.706 160.919L160.09 160.979Z" fill="white"/>
<path d="M112.102 145.382C112.102 145.382 127.752 143.728 128.76 143.988C129.767 144.248 137.655 145.835 137.655 145.835L136.649 151.943C136.649 151.943 132.38 149.192 129.753 151.454C127.126 153.716 123.311 152.257 119.929 151.484C116.547 150.71 112.197 150.784 112.197 150.784L112.102 145.382Z" fill="#E5E5E5"/>
<path d="M112.025 145.314C114.635 144.604 117.374 144.118 120.035 143.612C122.886 143.162 125.638 142.62 128.56 142.474C129.037 142.48 129.68 142.623 130.151 142.682C131.163 142.854 133.835 143.324 134.877 143.505C136.313 143.743 138.269 144.139 139.699 144.42C139.309 146.845 138.893 149.825 138.481 152.237L137.97 155.027L135.634 153.477C134.944 153.049 134.1 152.68 133.321 152.488C132.623 152.338 131.992 152.256 131.365 152.521C131.007 152.666 130.62 152.982 130.299 153.207C126.988 155.331 123.082 153.819 119.773 152.818C117.075 152.038 114.22 151.682 111.416 151.454C111.512 149.4 111.81 147.287 112.025 145.314ZM112.18 145.45L112.318 150.782L112.195 150.665C114.32 150.649 116.443 150.762 118.549 151.078C121.648 151.5 124.705 153.05 127.83 152.276C128.739 152.065 129.43 151.466 130.172 150.931C130.379 150.833 130.708 150.649 130.932 150.597C131.845 150.286 132.851 150.344 133.776 150.548C134.834 150.798 135.829 151.212 136.761 151.774L136.446 151.911L137.468 145.806L137.617 146.018L131.299 144.685C130.765 144.571 129.444 144.294 128.931 144.185C127.621 144.009 126.285 144.246 124.961 144.302C121.032 144.602 116.845 145.014 112.915 145.403L112.514 145.443L112.313 145.464C112.253 145.472 112.234 145.463 112.18 145.45Z" fill="#232020"/>
<path d="M113.25 152.89C114.445 158.373 114.682 163.936 115.106 169.463C115.124 169.631 115.15 169.81 115.167 169.882C115.16 169.794 115.058 169.594 115 169.498C114.871 169.287 114.686 169.1 114.477 168.965L114.515 168.984C118.75 170.954 122.984 173.221 127.32 174.947L127.491 174.997C127.625 175.05 127.926 175 128.117 174.991C129.622 174.828 131.197 174.272 132.685 173.814L132.795 173.987C131.412 174.822 129.982 175.597 128.401 176.058C126.811 176.529 125.137 175.604 123.637 175.147C120.607 174.015 117.651 172.726 114.726 171.357C114.261 171.124 113.805 170.923 113.354 170.648C113.347 170.657 113.246 170.547 113.244 170.519C112.966 169.452 113.047 168.327 112.981 167.24C112.897 164.458 112.947 160.488 112.951 157.67L113.042 152.888L113.25 152.89Z" fill="#232020"/>
<path d="M124.088 148.553C124.068 147.433 124.973 146.509 126.108 146.489C127.243 146.47 128.179 147.362 128.198 148.483C128.218 149.604 127.314 150.528 126.179 150.547C125.044 150.567 124.108 149.674 124.088 148.553Z" fill="white"/>
<path d="M124.088 148.553C123.823 147.384 124.87 146.174 126.101 146.126C127.43 145.995 128.671 147.155 128.671 148.475C128.742 150.6 125.968 151.782 124.553 150.143C124.166 149.688 123.989 149.088 124.088 148.553C124.535 150.775 127.676 150.681 127.725 148.491C127.602 146.302 124.454 146.315 124.088 148.553Z" fill="#232020"/>
<path d="M86.5304 147.229C86.5304 147.229 73.0817 146.074 72.2283 146.366C71.3746 146.657 64.6753 148.494 64.6753 148.494L65.7354 154.566C65.7354 154.566 69.2989 151.681 71.621 153.859C73.9431 156.036 77.161 154.457 80.0304 153.576C82.8998 152.696 86.6252 152.632 86.6252 152.632L86.5304 147.229Z" fill="#E5E5E5"/>
<path d="M86.4604 147.294C86.4074 147.312 86.3983 147.332 86.3474 147.332L86.1728 147.342C85.9732 147.35 85.3376 147.389 85.1242 147.4C80.9684 147.63 76.7454 147.493 72.604 147.678C70.5112 148.417 67.5244 149.331 65.1205 150.075L66.3139 148.215C66.6554 150.003 67.1176 152.512 67.4296 154.277L64.6459 153.253C66.4393 151.928 68.7732 150.909 71.0408 151.649C71.5513 151.811 72.0353 152.081 72.4395 152.426C72.6988 152.632 72.9953 152.931 73.2676 153.104C73.9608 153.498 74.781 153.498 75.6035 153.372C76.7375 153.216 78.2586 152.757 79.4482 152.44C81.7912 151.842 84.2425 151.761 86.6123 151.896L85.8799 152.644C86.0229 150.884 86.3003 149.136 86.4604 147.294ZM86.6005 147.165L86.7398 152.63C86.7413 152.692 86.6909 152.744 86.6273 152.745C84.8027 152.81 82.9705 153.008 81.1918 153.406C79.4181 153.807 77.7431 154.61 75.9088 154.962C74.2867 155.348 72.516 155.015 71.3073 153.825C70.4515 153.104 69.2283 153.109 68.2033 153.45C67.3599 153.725 66.555 154.174 65.8559 154.711C65.7499 154.803 65.5677 154.736 65.5485 154.598L64.5058 148.523C64.4911 148.436 64.5458 148.354 64.6294 148.33C66.1099 147.918 70.5616 146.681 71.9637 146.291C73.1027 146.036 74.3224 146.262 75.4728 146.28C78.1443 146.433 81.0938 146.679 83.7744 146.897C84.196 146.937 85.4312 147.035 85.8475 147.075C86.0436 147.102 86.4012 147.099 86.6005 147.165Z" fill="#232020"/>
<path d="M85.836 153.728C86.692 156.831 87.0565 160.056 86.9737 163.264C86.8872 164.865 86.5952 166.47 86.5442 168.068C86.4521 169.185 86.644 170.323 86.4386 171.439C86.377 171.6 86.2331 171.685 86.12 171.77C83.0841 173.919 79.8458 175.771 76.388 177.187C75.1916 177.641 74.0026 178.054 72.6905 178.239C72.1668 178.311 71.6275 178.201 71.1541 178.046C69.5379 177.508 68.109 176.586 66.8352 175.49L66.9391 175.313C68.7419 175.8 70.4523 176.511 72.1818 176.491C74.8154 175.637 77.3359 174.324 79.9515 173.335C81.8559 172.482 83.8709 171.85 85.7777 171.007C85.7529 171.014 85.6882 171.119 85.6996 171.108C85.6982 171.113 85.7008 171.122 85.7073 171.101C85.7182 171.08 85.7303 171.037 85.7403 170.999C86.2045 168.44 85.5793 165.854 85.2469 163.314C85.0664 161.728 85.09 160.135 85.1344 158.541C85.1963 156.931 85.3137 155.332 85.6287 153.737C85.629 153.738 85.836 153.728 85.836 153.728Z" fill="#232020"/>
<path d="M77.434 150.494C77.417 149.522 76.6042 148.747 75.6189 148.763C74.6336 148.78 73.8484 149.583 73.8655 150.555C73.8826 151.528 74.6954 152.303 75.6807 152.287C76.666 152.27 77.4511 151.467 77.434 150.494Z" fill="white"/>
<path d="M77.4341 150.494C77.0576 148.566 74.3077 148.648 74.2762 150.548C74.3766 152.445 77.1235 152.432 77.4341 150.494C77.5362 150.956 77.4011 151.482 77.0785 151.887C75.9006 153.352 73.4572 152.409 73.4546 150.562C73.4717 147.821 77.6148 147.72 77.4341 150.494Z" fill="#232020"/>
<path d="M78.7419 254.096C83.9075 252.156 91.039 252.02 96.2699 253.796C91.1067 255.751 83.9755 255.86 78.7419 254.096Z" fill="#232020"/>
<path d="M101.842 43.1221C96.6431 50.2004 88.3485 56.262 79.4328 57.4903C78.1331 57.6405 76.8239 57.6809 75.5325 57.5798C76.8133 57.3694 78.0704 57.1473 79.3 56.8142C87.9646 54.4755 95.243 48.9681 101.842 43.1221Z" fill="white"/>
<path d="M119.564 101.69C122.091 105.018 124.991 108.381 128.837 110.212C130.007 110.726 131.652 111.008 132.914 111.351L136.284 112.2C143.42 114.139 156.139 117.679 159.098 125.062C161.162 132.334 162.281 139.753 163.244 147.224C163.974 153.512 164.499 159.931 164.194 166.3C164.048 168.009 163.839 169.997 163.45 171.644C161.243 181.696 159.21 191.791 156.558 201.755C155.679 204.861 154.917 208.095 153.489 211.075C153.371 211.339 153.169 211.618 153.009 211.862C152.618 212.403 152.036 212.809 151.379 212.978C148 213.723 144.498 213.506 141.117 213.505C129.456 213.165 117.834 212.296 106.391 209.894C102.314 209.13 97.0046 206.89 93.0922 205.472C85.7673 202.84 74.5637 198.382 67.2152 195.607C64.3497 194.114 61.5265 192.535 58.679 191.006L58.772 190.824L67.4128 195.102C67.3501 195.077 93.5279 204.319 93.5152 204.313C97.4135 205.657 102.672 207.76 106.694 208.453C118.028 210.6 129.615 211.351 141.141 211.593C144.295 211.577 147.493 211.706 150.601 211.147C151.509 211.021 151.726 210.1 152.069 209.401C153.131 206.761 153.846 203.996 154.588 201.249C156.88 192.411 158.799 183.481 160.767 174.567C161.117 172.991 161.742 170.282 161.973 168.713C162.133 167.486 162.275 165.71 162.307 164.467C162.578 154.216 161.236 143.969 159.552 133.868C159.039 131.076 158.56 128.248 157.761 125.526C157.194 123.927 156.042 122.605 154.77 121.487C151.262 118.518 146.91 116.732 142.624 115.141C139.494 113.973 135.938 112.998 132.709 112.082C131.599 111.762 130.477 111.501 129.377 111.115C127.17 110.328 125.359 108.77 123.734 107.151C122.112 105.512 120.677 103.707 119.39 101.801L119.564 101.69Z" fill="#232020"/>
<path d="M84.5184 107.151C75.9582 110.858 67.2598 114.532 59.1386 119.078C57.2993 120.141 55.104 121.359 53.7151 122.851C49.7218 128.313 47.0429 134.883 44.5842 141.173C43.5851 143.85 42.7063 146.534 42.069 149.284C41.8091 150.361 41.6533 151.421 41.5338 152.544C40.9698 157.71 40.5038 162.906 40.053 168.091C39.0412 179.617 38.0459 191.139 37.6282 202.678C37.5961 204.874 37.4804 207.077 37.7816 209.239L37.8054 209.401C37.8146 209.416 37.821 209.426 37.8246 209.44C37.8263 209.451 37.8413 209.546 37.7934 209.436C37.9676 209.609 38.6689 209.996 39.1702 210.212C40.1243 210.637 41.1941 211.002 42.2721 211.337C53.4172 214.566 65.0151 216.231 76.5367 217.886C90.3816 219.764 104.549 220.016 118.34 217.659C122.499 216.756 128.061 215.555 130.731 212.075L130.905 212.184C129.582 214.173 127.378 215.324 125.236 216.261C123.057 217.158 120.785 217.801 118.491 218.318C99.9883 222.184 80.8836 220.538 62.3801 217.548C58.1571 216.796 36.8672 213.604 35.9119 210.062C35.5775 208.771 35.5961 207.419 35.5599 206.115C35.5222 202.63 35.6967 199.147 35.8799 195.669C36.7262 181.767 38.0233 167.903 39.5449 154.061C39.7487 152.34 39.92 150.577 40.3527 148.888C41.0407 146.066 42.0187 143.299 43.0799 140.599C45.7414 134.168 48.5181 127.646 52.7784 122.064C54.4343 120.354 56.563 119.273 58.6158 118.127C62.7642 115.928 67.0617 114.033 71.3765 112.193C75.6983 110.366 80.0549 108.622 84.4451 106.959L84.5184 107.151Z" fill="#232020"/>
<path d="M64.2206 147.116C67.4558 158.302 65.6386 174.641 60.0288 185.433L59.6426 185.415L60.0727 180.621C60.9343 171.837 62.1572 160.658 63.2161 151.883L63.8343 147.098L64.2206 147.116Z" fill="white"/>
<path d="M66.2302 148.773C66.8946 154.656 66.5213 160.441 65.9599 166.281C65.2546 172.134 64.3788 177.868 62.4829 183.522L62.2939 183.511C63.0655 175.483 64.1315 165.496 65.0423 157.436C65.3585 154.54 65.6929 151.645 66.042 148.753L66.2302 148.773Z" fill="#232020"/>
<path d="M107.765 88.8003C105.53 94.8654 98.2701 97.4309 92.3809 94.9514C90.5163 94.1516 88.7903 92.662 88.2437 90.6801L88.3326 90.6476C88.722 91.5163 89.38 92.2615 90.1218 92.8661C93.8932 95.7701 99.8992 95.5766 103.773 92.9498C105.374 91.8805 106.74 90.4258 107.681 88.7584C107.68 88.759 107.765 88.8003 107.765 88.8003Z" fill="#232020"/>
<path d="M86.7695 90.1063C89.429 90.0534 91.9336 89.1434 94.5239 88.6101C94.7635 88.5639 95.0597 88.5084 95.309 88.5793C96.1406 88.8318 96.8448 89.1562 97.5513 89.6698C97.604 89.743 97.7238 89.8177 97.6591 90.0903C97.6349 90.1659 97.5713 90.2493 97.5004 90.2935C97.1209 90.5266 96.7385 90.0979 96.9422 89.7622C97.5454 88.9344 98.6123 88.043 99.7624 88.5133C99.9906 88.581 100.223 88.6118 100.477 88.6461C102.59 88.835 104.821 89.0911 106.912 88.6171L106.957 88.699C106.189 89.205 105.27 89.3803 104.392 89.5241C102.756 89.7285 101.052 89.87 99.4436 89.405C98.8837 89.0766 98.1751 89.591 97.7347 90.0214L97.6449 90.1185C97.612 90.1592 97.6338 90.1269 97.6411 90.1086C97.7082 89.9563 97.6546 89.6608 97.36 89.5951C96.9166 89.5271 96.8003 90.0304 96.9882 90.1984C96.4668 89.802 95.7741 89.4125 95.1474 89.1934C94.9731 89.1385 94.8103 89.1826 94.6243 89.2015C92.9083 89.4823 91.1614 89.8857 89.419 90.0839C88.5405 90.1865 87.6521 90.2632 86.7654 90.1999L86.7695 90.1063Z" fill="#232020"/>
<path d="M89.6882 90.5604C93.8588 92.3135 98.5348 91.4076 102.789 90.4455C103.405 90.288 104.022 90.1282 104.653 89.9974L104.669 90.0416C102.332 91.0954 99.7756 91.7331 97.203 91.8308C94.7099 91.9252 91.8084 91.7933 89.6882 90.5604Z" fill="#232020"/>
<path d="M217.257 268.568L218.447 277.84L223.206 280.239L225.586 301.458" fill="#E5E5E5"/>
<path d="M217.257 268.568C218.374 271.522 219.039 274.602 219.574 277.699L218.964 276.842C220.757 277.701 222.544 278.586 224.319 279.482C224.537 281.459 224.745 283.441 224.918 285.422C225.373 290.755 225.709 296.098 225.585 301.458C223.862 294.523 222.854 287.451 222.024 280.368L222.665 281.285C220.892 280.39 219.123 279.473 217.369 278.541C217.074 275.226 216.902 271.891 217.257 268.568Z" fill="black"/>
<path d="M315.628 242.566L307.546 287.09C349.93 276.252 384.371 261.514 408.796 242.258L407.72 232.081L315.628 242.566Z" fill="#232020"/>
<path d="M407.72 168.95H321.392V227.2H407.72V168.95Z" fill="white"/>
<path d="M377.019 88.38L382.851 115.476L366.017 134.693L349.923 130.342L343.126 112.014L346.155 105.16L347.08 87.9568L377.019 88.38Z" fill="white"/>
<path d="M378.023 94.1589C379.831 97.9457 380.88 101.918 381.806 105.963C382.628 110.031 383.31 114.08 383.229 118.264L383.09 118.294L380.418 106.255L377.884 94.1883L378.023 94.1589Z" fill="#232020"/>
<path d="M348.003 92.1015C348.996 97.0802 348.144 103.322 345.888 107.881L345.747 107.862C346.039 105.225 346.407 102.597 346.734 99.9634C347.112 97.3369 347.449 94.7048 347.862 92.0829L348.003 92.1015Z" fill="#232020"/>
<path d="M334.862 115.829C334.862 115.829 309.353 123.816 307.876 125.111C306.399 126.405 297.148 136.507 295.668 149.86C294.188 163.214 299.345 212.842 304.985 216.765C310.625 220.688 327.927 217.081 327.919 216.002L336.166 185.989L401.499 174.975L398.753 189.927L379.11 200.331L399.741 223.673L425.169 216.989C425.169 216.989 432.785 208.395 431.468 198.429C430.15 188.463 430.188 133.898 430.188 133.898L385.895 108.154L369.228 130.463L366.675 131.843L343.115 106.226L334.862 115.829Z" fill="#3BB77E"/>
<path d="M334.372 112.312C325.101 115.814 316.059 118.239 307.108 122.183C306.991 122.242 306.881 122.307 306.83 122.342C306.821 122.349 306.846 122.336 306.849 122.33C306.175 122.99 305.564 123.724 304.969 124.465C299.977 130.809 296.253 138.397 295.458 146.42C294.923 154.6 295.783 162.853 296.528 171.018C297.795 182.721 299.11 194.482 302.18 205.813C302.648 207.413 303.138 208.992 303.866 210.437C304.103 210.888 304.354 211.288 304.53 211.44C305.182 211.846 305.913 212.076 306.714 212.287C310.024 213.097 313.515 213.291 316.978 213.442C323.561 213.658 330.373 213.478 336.97 212.973C340.945 211.122 365.151 200.109 370.264 197.725L396.487 185.756L395.618 186.564C396.899 184.227 398.152 181.656 398.785 179.081C398.966 178.395 399.074 177.511 398.891 176.929C398.89 176.922 398.914 176.944 398.918 176.94V176.939C398.918 176.939 398.914 176.935 398.923 176.939C398.944 176.95 398.966 176.96 398.988 176.968L399.081 176.998C399.167 177.015 399.085 176.993 398.993 176.989C396.009 177.016 392.95 177.672 389.96 178.122C374.587 180.761 359.188 183.858 343.619 185.347C336.809 185.908 329.816 186.649 323.057 185.255C322.098 185.027 321.144 184.726 320.269 184.256L320.384 184.035C321.241 184.461 322.18 184.727 323.127 184.92C329.864 186.067 336.766 185.176 343.509 184.461C360.966 182.367 378.089 178.291 395.417 175.418C396.386 175.281 397.357 175.151 398.345 175.098C398.858 175.091 399.42 175.023 399.883 175.285C401.99 176.65 400.511 180.424 399.907 182.282C399.221 184.124 398.39 185.9 397.456 187.631C380.021 195.766 362.59 203.907 345.113 211.957C342.655 213.079 340.197 214.227 337.712 215.298L337.467 215.388C337.381 215.42 337.289 215.423 337.216 215.434C330.351 215.966 307.42 217.125 302.743 213.053C301.165 211.174 300.586 208.726 299.875 206.447C299.232 204.146 298.717 201.818 298.252 199.482C296.433 190.133 295.308 180.671 294.465 171.193C293.838 162.902 293.095 154.547 293.78 146.236C294.758 137.911 298.662 130.109 303.988 123.663C304.688 122.864 305.347 122.036 306.174 121.354C307.378 120.699 308.686 120.286 309.953 119.802C319.021 116.582 334.523 111.596 334.523 111.596L334.372 112.312Z" fill="#232020"/>
<path d="M323.385 140.382C323.385 140.382 328.912 170.015 329.301 174.139C329.69 178.263 329.177 182.744 329.177 182.744C329.177 182.744 332.136 169.39 331.055 163.799C329.974 158.207 323.385 140.382 323.385 140.382Z" fill="white"/>
<path d="M314.777 215.907C314.777 215.907 310.223 231.178 307.742 236.298C305.26 241.417 336.32 252.974 349.527 254.623C362.734 256.272 383.898 251.179 383.898 251.179C383.898 251.179 418.174 246.784 417.06 238.235C415.945 229.686 410.881 217.581 410.539 216.453L364.078 222.06C364.078 222.06 344.08 218.672 336.846 214.282" fill="#3BB77E"/>
<path d="M314.898 215.941C313.214 222.866 311.532 229.801 308.943 236.469L308.864 236.663C308.843 236.716 308.796 236.823 308.806 236.812C308.797 236.864 308.801 236.885 308.819 236.967C308.85 237.126 309.039 237.46 309.321 237.771C311.031 239.543 313.339 240.668 315.627 241.829C317.523 242.739 319.463 243.599 321.435 244.394C329.304 247.489 337.538 250.142 345.814 251.834C349.902 252.688 353.989 252.907 358.177 252.696C366.637 252.255 375.239 250.886 383.508 249.052C390.855 248.07 398.311 246.792 405.423 244.675C407.755 243.97 410.061 243.156 412.1 242.072C413.607 241.199 415.668 240.055 415.531 238.276C415.304 235.819 414.828 233.348 414.273 230.875C413.379 226.683 411.593 220.684 410.419 216.489L410.66 216.418C413.292 223.375 416.008 230.437 417.171 237.824C417.479 239.084 416.953 240.459 416.066 241.385C410.411 247.24 392.236 250.151 383.928 251.401C373.52 253.701 362.566 255.628 351.765 255.059C345.266 254.556 338.985 252.62 332.814 250.664C328.708 249.31 324.653 247.802 320.685 246.088C317.331 244.554 308.258 240.714 307.462 237.156C307.323 236.639 307.717 236.012 307.907 235.557C308.136 235.078 308.325 234.577 308.534 234.088C310.88 228.125 312.772 221.991 314.656 215.872L314.898 215.941Z" fill="#232020"/>
<path d="M339.28 87.4778L337.392 87.754C335.644 88.0097 334.016 86.8178 333.757 85.0914L331.68 71.256C331.421 69.5296 332.629 67.9226 334.377 67.6668L336.265 67.3907C338.013 67.135 339.641 68.3269 339.9 70.0533L341.977 83.8887C342.236 85.6151 341.028 87.2221 339.28 87.4778Z" fill="white"/>
<path d="M339.298 87.6008L337.686 87.8574C335.953 88.2789 334.058 87.3256 333.438 85.5907C333.164 84.6999 332.828 83.3194 332.573 82.4067C331.712 79.3724 330.689 76.0571 329.944 73.0126L329.756 72.2253C329.446 71.1051 329.404 69.8147 329.888 68.7039C330.551 66.9923 332.211 65.7199 334.045 65.4554L335.663 65.2391C338.75 64.6602 341.848 67.0437 341.828 70.1847C341.957 72.9958 341.967 76.312 342.034 79.1184C342.08 80.1981 342.1 81.2817 342.168 82.3582L342.278 83.9832C342.4 85.7203 341.033 87.3889 339.298 87.6008ZM339.261 87.3552C340.299 87.2012 341.228 86.4926 341.622 85.5355C342.085 84.5432 341.733 83.4714 341.601 82.4416L340.612 76.067C340.449 75.021 340.029 72.3 339.871 71.2859L339.747 70.489C339.669 68.637 337.878 67.2222 336.028 67.6686L334.414 67.9125C333.418 68.0517 332.514 68.7219 332.123 69.6464C331.658 70.6186 332.001 71.6765 332.119 72.6947L333.046 79.0783C333.199 80.1261 333.593 82.8508 333.741 83.866L333.856 84.6642C333.931 85.9683 334.783 87.1805 336.087 87.5313C336.971 87.8455 338.349 87.4328 339.261 87.3552Z" fill="#232020"/>
<path d="M383.143 86.0873L384.96 86.6642C386.642 87.1987 388.446 86.2853 388.987 84.6239L393.326 71.3097C393.867 69.6484 392.942 67.8682 391.259 67.3337L389.443 66.7568C387.76 66.2223 385.957 67.1358 385.416 68.7971L381.077 82.1113C380.535 83.7727 381.461 85.5528 383.143 86.0873Z" fill="white"/>
<path d="M383.182 85.9692L384.743 86.4435C386.188 87.0137 388 86.2499 388.456 84.8171C388.704 83.9678 388.93 82.5768 389.129 81.6993C389.711 78.602 390.29 75.1823 390.982 72.1265L391.333 70.6303C391.386 70.1155 391.044 69.602 390.566 69.4619L389.018 68.9486C388.68 68.844 388.699 68.8277 388.599 68.8068C388.11 68.6725 387.538 68.9085 387.254 69.3866C387.155 69.611 386.856 70.2614 386.751 70.4969C385.723 72.8008 384.33 75.5837 383.267 77.8582C382.606 79.3277 381.898 80.8114 381.325 82.31C380.753 83.7687 381.678 85.5094 383.182 85.9692ZM383.105 86.2057C382.022 85.8715 381.142 84.9574 380.88 83.8594C380.558 82.7622 381.077 81.6822 381.388 80.6493L383.359 74.501C383.683 73.4911 384.523 70.8683 384.837 69.8897L385.083 69.1213C385.543 67.0406 387.765 65.8225 389.779 66.6116L391.336 67.0978C392.458 67.4536 393.356 68.4095 393.615 69.5398C393.933 70.6564 393.402 71.7498 393.074 72.7915L391.044 78.9208C390.71 79.9256 389.844 82.5437 389.521 83.5179L389.267 84.284C388.944 85.6515 387.762 86.8097 386.317 86.9332C385.311 87.0968 384.046 86.4569 383.105 86.2057Z" fill="#232020"/>
<path d="M378.471 44.7359L361.033 49.3548L343.443 45.3352L336.136 63.4427C336.136 63.4427 338.812 88.1493 342.268 93.3791C345.724 98.6089 356.223 109.007 362.041 108.273C362.05 108.272 362.058 108.267 362.067 108.266C362.075 108.267 362.085 108.271 362.093 108.272C367.934 108.807 378.061 98.0558 381.332 92.7106C384.602 87.366 386.41 62.5824 386.41 62.5824L378.471 44.7359Z" fill="white"/>
<path d="M378.416 44.848C374.043 46.2649 365.464 48.935 361.092 50.3173C355.904 49.337 348.322 47.8931 343.094 46.8244L344.881 45.901C342.629 51.9022 340.256 58.1826 337.956 64.1588L338.084 63.2369C338.665 67.8156 339.351 72.4246 340.161 76.9706C341.051 81.6397 341.822 86.5582 343.521 90.9397C343.793 91.6131 344.134 92.2167 344.571 92.7902C348.033 97.371 355.068 104.681 360.7 106.069C361.052 106.123 361.373 106.162 361.71 106.131L361.739 106.131H361.753L361.719 106.133L362.34 106.122L362.309 106.122L362.323 106.122L362.352 106.122L362.409 106.122L362.523 106.127C368.048 105.749 377.366 95.8384 380.069 91.1434C381.196 88.6294 381.72 85.9261 382.311 83.149C383.655 76.334 384.555 69.4121 385.401 62.5106L385.484 62.9837C383.708 58.4832 380.172 49.3651 378.416 44.848ZM378.525 44.6242C378.541 44.6585 386.55 62.5248 386.564 62.5565C386.207 67.2256 385.747 71.8843 385.155 76.5302C384.526 81.1619 383.913 85.8133 382.55 90.3072C381.91 92.6059 380.408 94.5125 378.95 96.3592C375.478 100.58 367.87 108.778 362.039 108.489C356.308 108.953 348.437 101.172 344.739 96.9754C343.215 95.1766 341.639 93.311 340.921 91.035C339.398 86.5855 338.623 81.9583 337.831 77.3472C337.076 72.7193 336.453 68.0749 335.931 63.4162C335.942 63.3682 343.268 45.3223 343.282 45.2723L343.337 45.1352L343.483 45.1686C343.423 45.1971 361.338 49.2221 360.994 49.2128C360.994 49.212 378.525 44.6242 378.525 44.6242Z" fill="#232020"/>
<path d="M338.302 73.7626C338.302 73.7626 333.01 57.9776 332.552 56.4558C332.094 54.934 336.228 47.0986 339.978 48.9517C343.728 50.8049 342.522 50.1469 342.522 50.1469L343.352 53.486L341.417 64.2177L338.302 73.7626Z" fill="#232020"/>
<path d="M338.302 73.8868C338.203 73.8307 338.103 73.6604 338.056 73.5435C337.984 73.3947 337.759 72.9367 337.688 72.7762C335.208 67.5264 332.924 61.5354 330.972 56.0618C330.841 55.6758 330.688 55.2538 330.598 54.8518C330.52 54.4036 330.539 53.9157 330.579 53.6247C331.338 48.6963 336.193 40.8876 341.992 44.8491C342.311 45.0212 343.126 45.4734 343.435 45.6332C343.498 45.6667 343.602 45.7184 343.579 45.7082C343.539 45.6876 343.453 45.66 343.411 45.6437C343.345 45.6251 343.35 45.6155 343.099 45.5647C344.179 43.4662 339.214 48.1973 340.916 49.0774C341.208 49.4235 341.22 49.4002 341.401 49.5386L341.352 49.5072L344.71 47.1405C344.957 48.4432 345.33 50.0524 345.545 51.3444C344.753 55.2808 343.882 59.5428 342.884 63.4292C341.696 67.0338 339.645 70.4139 338.302 73.8868ZM338.302 73.6383C339.156 70.527 340.332 66.1828 341.228 63.1415C341.208 63.2737 343.126 51.2441 343.123 51.2795L343.126 51.365L342.286 47.6706L342.159 47.11L342.648 47.4155C342.736 47.4771 342.82 47.5056 342.899 47.5962C343.086 47.6948 342.545 48.208 342.659 47.9796C342.608 47.9685 342.612 47.9665 342.597 47.9622C342.399 47.8744 341.979 47.6526 341.783 47.5497C341.286 47.2896 340.291 46.7467 339.796 46.4828C336.802 45.1296 334.095 50.1149 333.211 52.361C332.926 53.1934 332.544 54.0802 332.873 54.939C332.969 55.2738 333.239 56.2018 333.342 56.5494C334.683 61.0053 336.807 68.2527 338.106 72.653L338.265 73.1901L338.344 73.4587L338.363 73.5258C338.368 73.5404 338.367 73.5432 338.361 73.5514C338.35 73.5618 338.314 73.5912 338.302 73.6383Z" fill="#232020"/>
<path d="M338.502 43.5164C338.502 43.5164 340.746 33.2754 344.7 31.2234C348.654 29.1715 365.078 23.2203 374.934 32.8278C384.79 42.4352 390.994 46.8629 390.994 46.8629L384.743 70.2862L379.674 59.5276L378.615 47.8356L360.287 50.7929L343.312 49.6684L338.502 43.5164Z" fill="white"/>
<path d="M338.502 44.723C338.502 44.723 340.623 34.9435 344.358 32.984C348.094 31.0245 363.612 25.3416 372.925 34.5162C382.237 43.6909 388.099 47.9189 388.099 47.9189L382.192 70.2869L377.403 60.0131L376.403 48.8478L359.085 51.6719L343.046 50.5983L338.502 44.723Z" fill="#232020"/>
<path d="M338.38 43.669C338.828 40.8582 339.528 38.0893 340.641 35.4462C341.358 33.8058 342.3 31.9809 343.889 30.841C344.884 30.1949 345.846 29.788 346.895 29.3163C354.994 25.9274 364.845 24.462 372.864 28.9969C375.474 30.4402 377.446 32.6837 379.656 34.6115C384.144 38.6142 388.757 42.6038 393.654 46.0814C393.405 46.985 392.01 52.3397 391.731 53.3686C390.028 59.8732 387.178 70.145 385.409 76.6324L382.867 71.2096C381.506 68.3462 379.03 62.9769 377.72 60.0967C377.434 56.5145 377.082 51.6451 376.826 48.1089L379.024 49.7934C375.746 50.2062 368.349 51.2626 365.182 51.6387L360.562 52.2145L360.36 52.2395L360.252 52.2287C354.767 51.6916 348.775 51.0208 343.283 50.3666L342.979 50.3305L342.841 50.1349C341.463 48.2493 339.723 45.5928 338.38 43.669ZM338.625 43.6141L343.434 49.6807C342.84 49.5266 360.631 50.7662 360.317 50.7223L378.689 47.7499L378.896 47.7165L378.915 47.9235L379.995 59.559C379.908 59.2387 385.07 70.2465 385.074 70.1892L384.639 70.2276C386.173 64.4063 389.337 52.7234 390.904 46.9129L390.994 47.1614C386.456 43.7859 382.243 40.05 378.119 36.2202C376.045 34.356 374.208 32.1788 371.781 30.7436C364.411 26.3608 355.059 27.6114 347.332 30.4332C346.361 30.8117 345.363 31.1976 344.468 31.7214C343.024 32.7 342.132 34.2598 341.35 35.7868C340.132 38.237 339.281 41.057 338.625 43.6141Z" fill="#232020"/>
<path d="M336.846 185.276C336.846 185.276 325.685 199.893 329.855 214.247L336.846 185.276Z" fill="white"/>
<path d="M336.946 185.351C335.447 190.285 333.683 194.825 332.336 199.669C330.944 204.515 330.227 209.05 329.975 214.213L329.733 214.282C327.442 206.786 329.298 198.676 332.722 191.808C333.863 189.494 335.18 187.267 336.745 185.202L336.946 185.351Z" fill="#232020"/>
<path d="M321.393 183.848C321.393 183.848 304.609 196.939 308.779 211.294L321.393 183.848Z" fill="white"/>
<path d="M321.445 183.913C315.173 191.902 308.043 200.581 308.859 211.271L308.698 211.316C306.338 203.393 310.395 195.273 315.595 189.367C317.35 187.353 319.253 185.466 321.34 183.783L321.445 183.913Z" fill="#232020"/>
<path d="M363.516 129.882L357.375 146.277L361.19 180.484" fill="white"/>
<path d="M363.634 129.924C362.962 134.251 361.833 138.602 360.604 142.796C360.216 144.207 359.755 145.592 359.307 146.982L359.422 146.054C360.472 152.423 361.083 158.865 361.451 165.308C361.666 170.346 361.781 175.435 361.315 180.47L361.065 180.497C360.725 177.649 360.363 174.803 360.042 171.953C359.187 164.297 357.902 153.856 357.165 146.2C358.989 141.4 361.552 134.56 363.398 129.839L363.634 129.924Z" fill="#232020"/>
<path d="M390.22 110.089C398.903 113.706 408.49 117.889 417.101 121.688C423.853 126.027 430.041 132.07 432.299 139.925C433.318 143.777 433.055 147.84 433.052 151.76C432.683 167.004 431.499 182.291 429.407 197.4C428.824 201.251 428.234 205.022 427.247 208.836C426.904 210.079 426.52 211.475 425.809 212.722C425.613 213.037 425.414 213.389 424.883 213.852C424.224 214.38 423.783 214.542 423.138 214.86C421.166 215.725 419.309 216.285 417.405 216.834C413.619 217.901 409.819 218.748 405.998 219.487C384.247 223.466 357.701 224.885 337.32 215.278L337.421 215.05C351.643 220.996 367.52 221.521 382.739 220.503C390.401 219.936 398.026 218.872 405.551 217.339C411.153 216.133 416.835 214.897 422.128 212.699C422.552 212.502 422.988 212.289 423.326 212.026C424.218 211.018 424.5 209.516 424.886 208.233C425.813 204.566 426.389 200.807 426.936 197.055C428.505 185.776 429.548 174.427 430.3 163.068C430.543 159.28 430.747 155.489 430.865 151.697C430.897 147.935 431.249 144.094 430.362 140.403C428.388 133.055 422.597 127.247 416.447 122.974C416.531 123.005 390.092 110.312 390.11 110.312L390.22 110.089Z" fill="#232020"/>
<path d="M323.509 150.855C328.051 159.465 330.555 173.05 329.425 182.699L329.177 182.744C327.706 175.481 325.961 166.202 324.658 158.876C324.292 156.897 323.59 152.887 323.261 150.9L323.509 150.855Z" fill="#232020"/>
<path d="M377.495 196.706C377.495 196.706 390.292 215.829 397.856 218.933L377.495 196.706Z" fill="white"/>
<path d="M377.6 196.638C383.704 201.317 388.289 207.27 393.029 213.152C394.602 215.13 396.042 217.038 397.904 218.819L397.807 219.048C395.415 218.034 393.455 216.317 391.62 214.57C387.951 211.04 384.766 207.069 381.743 203.001C380.229 200.968 378.772 198.898 377.39 196.775L377.6 196.638Z" fill="#232020"/>
<path d="M393.314 188.679C393.314 188.679 412.326 208.474 419.889 211.579L393.314 188.679Z" fill="white"/>
<path d="M393.405 188.593C401.111 193.078 407.46 199.139 413.708 205.329C415.776 207.386 417.755 209.518 419.937 211.464L419.841 211.694C417.108 210.49 414.749 208.677 412.437 206.869C410.145 205.024 407.926 203.097 405.742 201.133C402.511 198.141 399.356 195.073 396.263 191.943C395.244 190.889 394.226 189.834 393.223 188.764L393.405 188.593Z" fill="#232020"/>
<path d="M402.859 156.562C404.332 165.557 402.253 178.266 398.029 186.371L397.78 186.331L398.323 182.596C399.366 175.756 400.776 167.059 401.946 160.239L402.611 156.523L402.859 156.562Z" fill="#232020"/>
<path d="M407.166 143.377C409.436 157.235 406.233 176.816 399.723 189.305L399.34 189.244L400.177 183.489C401.784 172.95 403.956 159.55 405.759 149.043L406.782 143.317L407.166 143.377Z" fill="white"/>
<path d="M351.572 90.04L373.377 87.5623C373.377 87.5623 369.669 96.4382 362.599 95.9016" fill="white"/>
<path d="M351.559 89.9247C354.186 88.8778 356.863 88.3651 359.63 88.0873C361.456 87.9463 363.331 88.2402 365.157 88.121C368.498 87.9158 371.692 86.6169 375.01 86.2391L374.356 87.9606C372.719 92.628 368.021 97.6311 362.59 96.0171L362.608 95.7858C366.095 95.2368 368.59 92.7064 370.565 89.991C371.234 89.1202 371.896 88.1163 372.399 87.1636L373.498 88.6003C370.76 88.7616 367.968 88.3663 365.244 88.8615C363.438 89.1551 361.679 89.8619 359.868 90.1337C358.964 90.2706 358.05 90.3319 357.136 90.3857C355.305 90.4743 353.462 90.4615 351.585 90.1546L351.559 89.9247Z" fill="#232020"/>
<path d="M364.078 222.83C363.575 226.223 362.534 248.577 362.534 248.577L364.078 222.83Z" fill="white"/>
<path d="M364.203 222.847C366.364 230.675 365.941 241.103 362.66 248.582L362.408 248.571L362.502 245.347C362.683 240.721 363.014 233.879 363.354 229.244C363.504 227.098 363.65 224.955 363.953 222.812L364.203 222.847Z" fill="#232020"/>
<path d="M384.694 103.695L364.595 128.587L378.317 122.435L397.848 124.217L393.586 111.078L384.694 103.695Z" fill="white"/>
<path d="M385.901 106.525L365.801 131.417L379.524 125.266L399.055 127.047L394.793 113.908L385.901 106.525Z" fill="#E5E5E5"/>
<path d="M384.707 103.818C378.782 112.51 372.649 121.633 366.262 129.899L363.714 126.671C365.645 125.732 368.553 124.433 370.538 123.515C372.729 122.515 375.76 121.106 377.949 120.165C384.471 120.797 391.532 121.531 398.021 122.372L396.061 124.782C394.971 121.009 393.437 115.188 392.48 111.428L392.839 111.956C390.191 109.394 387.389 106.437 384.707 103.818ZM384.682 103.571C384.716 103.601 393.69 110.96 393.722 110.988C393.772 110.994 397.992 124.139 398.033 124.158L398.123 124.433L397.83 124.407C397.884 124.364 377.846 122.709 378.419 122.657L364.685 128.783L363.852 129.155L364.424 128.452L384.682 103.571Z" fill="#232020"/>
<path d="M341.392 102.422C346.736 107.77 352.224 113.304 357.418 118.953C360.491 122.304 364.446 126.903 367.508 130.342C361.911 128.809 355.287 126.843 349.832 125.021L350.821 125.115C343.551 125.974 335.808 126.88 328.514 127.407C330.161 121.884 331.839 116.169 333.657 110.707L333.755 110.412L333.856 110.303C336.215 107.686 338.979 104.953 341.392 102.422ZM341.395 102.67C341.442 102.674 334.691 111.23 334.867 111.006L331.268 125.405L331.055 125.169C331.255 125.156 350.441 122.638 350.614 122.679C353.714 123.678 358.119 125.143 361.255 126.17L361.017 126.511L341.395 102.67Z" fill="#232020"/>
<path d="M356.463 124.728L350.628 110.801L358.166 123.908L356.463 124.728Z" fill="#232020"/>
<path d="M383.178 122.05L392.376 110.268L384.748 123.096L383.178 122.05Z" fill="#232020"/>
<path d="M303.825 288.024C305.415 287.63 306.994 287.231 308.563 286.826L315.136 240.924L303.825 288.024Z" fill="white"/>
<path d="M270.879 249.455C270.542 250.288 273.905 293.748 273.905 293.748C273.905 293.748 280.324 293.415 279.818 293.082C279.312 292.749 272.031 248.577 272.031 248.577L270.879 249.455Z" fill="black"/>
</svg>
