<svg width="2147" height="480" viewBox="0 0 2147 480" fill="none" xmlns="http://www.w3.org/2000/svg">
<circle cx="239.508" cy="239.508" r="239.508" fill="url(#paint0_linear_90_2262)"/>
<path d="M111.19 174.965C123.541 154.602 143.569 138.58 168.271 138.58H351.196V182.308L165.6 182.642C145.906 187.649 137.56 223.033 137.56 240.391C137.56 258.75 147.908 298.473 168.271 298.473H219.343H351.196V342.201L155.252 340.866C97.8376 326.846 74.805 233.714 111.19 174.965Z" fill="white"/>
<path d="M1960.64 220.287H1984.7V332.328H1960.64V220.287ZM2063.63 244.348H2004.85V220.287H2146.46V244.348H2087.69V332.328H2063.63V244.348Z" fill="url(#paint1_linear_90_2262)"/>
<path d="M1179.68 179.294C1190.98 160.662 1209.31 146 1231.91 146H1399.3V186.014L1229.47 186.32C1211.44 190.902 1203.81 223.28 1203.81 239.163C1203.81 255.964 1213.28 292.313 1231.91 292.313H1278.64H1399.3V332.327L1220 331.106C1167.46 318.277 1146.38 233.054 1179.68 179.294ZM1426.9 146H1466.91V292.313H1644.08V332.327H1426.9V146ZM1671.8 186.014V146H1898.14V186.014H1671.8ZM1671.8 219.309H1898.14V259.323H1711.81V292.313H1898.14V332.327H1671.8V219.309Z" fill="url(#paint2_linear_90_2262)"/>
<path d="M596.037 179.294C607.339 160.662 625.666 146 648.27 146H815.658V186.014L645.826 186.32C627.804 190.902 620.168 223.28 620.168 239.163C620.168 255.964 629.637 292.313 648.27 292.313H695.005H815.658V332.327L636.357 331.105C583.819 318.276 562.743 233.054 596.037 179.294ZM843.257 146H883.272V332.327H843.257V146ZM910.671 243.745L1088.75 243.439C1113.49 238.247 1111.05 186.014 1085.7 186.014H910.671V146L1104.02 146.917C1150.45 157.608 1162.06 242.218 1120.82 274.596L1157.17 332.327H1109.83L1079.28 283.76H950.686V332.327H910.671V243.745Z" fill="url(#paint3_linear_90_2262)"/>
<defs>
<linearGradient id="paint0_linear_90_2262" x1="28" y1="-55" x2="208" y2="714" gradientUnits="userSpaceOnUse">
<stop offset="0.206667" stop-color="#1C74F9"/>
<stop offset="0.736667" stop-color="#2328EF"/>
</linearGradient>
<linearGradient id="paint1_linear_90_2262" x1="1971.5" y1="207.423" x2="1997.75" y2="393.439" gradientUnits="userSpaceOnUse">
<stop offset="0.206667" stop-color="#1C74F9"/>
<stop offset="0.736667" stop-color="#2328EF"/>
</linearGradient>
<linearGradient id="paint2_linear_90_2262" x1="1206.59" y1="124.606" x2="1225.26" y2="439.011" gradientUnits="userSpaceOnUse">
<stop offset="0.206667" stop-color="#1C74F9"/>
<stop offset="0.736667" stop-color="#2328EF"/>
</linearGradient>
<linearGradient id="paint3_linear_90_2262" x1="613.752" y1="124.606" x2="637.459" y2="438.328" gradientUnits="userSpaceOnUse">
<stop offset="0.206667" stop-color="#1C74F9"/>
<stop offset="0.736667" stop-color="#2328EF"/>
</linearGradient>
</defs>
</svg>
