<?xml version="1.0" encoding="UTF-8"?>
<svg version="1.1" xmlns="http://www.w3.org/2000/svg" width="161" height="48">
<path d="M0 0 C-0.66 2.64 -1.32 5.28 -2 8 C-1.62875 7.525625 -1.2575 7.05125 -0.875 6.5625 C1.74944087 4.37546594 3.6028169 4.19599133 7 4 C10.875 4.9375 10.875 4.9375 14 6 C14 5.34 14 4.68 14 4 C16.31 4 18.62 4 21 4 C21.495 9.445 21.495 9.445 22 15 C23.8871875 14.9071875 23.8871875 14.9071875 25.8125 14.8125 C29.72231986 14.79173989 29.72231986 14.79173989 32 16.5 C32.33 16.995 32.66 17.49 33 18 C33.83337891 17.26716797 33.83337891 17.26716797 34.68359375 16.51953125 C37.40393736 14.73502254 38.84495592 14.6244109 42.0625 14.6875 C43.34833984 14.69330078 43.34833984 14.69330078 44.66015625 14.69921875 C47 15 47 15 50 17 C50.33 16.34 50.66 15.68 51 15 C53.58445773 14.8918134 56.16437352 14.81262763 58.75 14.75 C59.47960937 14.71648438 60.20921875 14.68296875 60.9609375 14.6484375 C64.50655913 14.58397165 66.55879955 14.67593862 69.45703125 16.8046875 C71.6452735 19.91808533 71.93471239 22.21331838 72 26 C69.82758621 31.5862069 69.82758621 31.5862069 67 33 C64.3276379 33.13415472 61.67749512 33.04318541 59 33 C58.67 35.64 58.34 38.28 58 41 C55.69 41 53.38 41 51 41 C50.67 37.7 50.34 34.4 50 31 C49.01 31.66 48.02 32.32 47 33 C44.625 33.265625 44.625 33.265625 42 33.25 C40.700625 33.25773437 40.700625 33.25773437 39.375 33.265625 C37 33 37 33 34 31 C33.67 31.66 33.34 32.32 33 33 C30.69 33 28.38 33 26 33 C25.505 27.06 25.505 27.06 25 21 C23.515 21.495 23.515 21.495 22 22 C21.67 25.63 21.34 29.26 21 33 C18.69 33 16.38 33 14 33 C13.67 32.34 13.34 31.68 13 31 C12.01 31.66 11.02 32.32 10 33 C7.4765625 33.23046875 7.4765625 33.23046875 4.625 33.1875 C3.68914062 33.18105469 2.75328125 33.17460938 1.7890625 33.16796875 C-1 33 -1 33 -3.7265625 32.42578125 C-6.02151259 31.75899748 -6.02151259 31.75899748 -8 33 C-11.26225447 33.36938758 -14.53222838 33.41677958 -17.8125 33.5 C-18.71548828 33.55414063 -19.61847656 33.60828125 -20.54882812 33.6640625 C-27.12161883 33.79928523 -27.12161883 33.79928523 -29.75146484 31.40625 C-31.13671875 29.46875 -31.13671875 29.46875 -33 26 C-33.33 28.31 -33.66 30.62 -34 33 C-36.64 33 -39.28 33 -42 33 C-42 23.76 -42 14.52 -42 5 C-37.91625 4.979375 -33.8325 4.95875 -29.625 4.9375 C-28.33803223 4.928396 -27.05106445 4.91929199 -25.72509766 4.90991211 C-24.71495605 4.90741455 -23.70481445 4.90491699 -22.6640625 4.90234375 C-21.10872803 4.89448853 -21.10872803 4.89448853 -19.52197266 4.88647461 C-17 5 -17 5 -15 6 C-14.236875 5.195625 -13.47375 4.39125 -12.6875 3.5625 C-8.56928785 -0.3641674 -5.49792264 -0.10373439 0 0 Z M-5.75 11.5 C-8.40532546 13.27021697 -9.87447554 13.26046037 -13 13 C-13 13.66 -13 14.32 -13 15 C-11.906875 15.185625 -10.81375 15.37125 -9.6875 15.5625 C-7.8621875 16.2740625 -7.8621875 16.2740625 -6 17 C-5.525625 18.134375 -5.05125 19.26875 -4.5625 20.4375 C-3.40392583 23.99743438 -3.40392583 23.99743438 -1.1171875 25.16015625 C0.93560896 25.95110829 2.83043359 26.63149615 5 27 C5.66 26.67 6.32 26.34 7 26 C7 25.01 7 24.02 7 23 C5.329375 22.01 5.329375 22.01 3.625 21 C2.99851562 20.62875 2.37203125 20.2575 1.7265625 19.875 C0.02527333 18.84931652 0.02527333 18.84931652 -2 19 C-2.33 16.03 -2.66 13.06 -3 10 C-4.25760492 9.89153477 -4.25760492 9.89153477 -5.75 11.5 Z M-34 11 C-34 12.98 -34 14.96 -34 17 C-32.68 16.67 -31.36 16.34 -30 16 C-30 14.68 -30 13.36 -30 12 C-31.32 11.67 -32.64 11.34 -34 11 Z M-22 12 C-22.268125 13.093125 -22.53625 14.18625 -22.8125 15.3125 C-23.87663739 18.61692663 -24.34654664 19.94960422 -27 22 C-25.68 22.99 -24.36 23.98 -23 25 C-22.76925781 24.44570313 -22.53851563 23.89140625 -22.30078125 23.3203125 C-19.60377358 17.32933105 -19.60377358 17.32933105 -16.25 15.5 C-15.5075 15.335 -14.765 15.17 -14 15 C-14.66 14.01 -15.32 13.02 -16 12 C-19.08365871 11.7497843 -19.08365871 11.7497843 -22 12 Z M13 10 C12.67 10.66 12.34 11.32 12 12 C9.36 12 6.72 12 4 12 C4.66627512 15.11596912 4.66627512 15.11596912 7.06640625 16.16796875 C7.89011719 16.50441406 8.71382812 16.84085938 9.5625 17.1875 C10.38878906 17.53167969 11.21507812 17.87585938 12.06640625 18.23046875 C12.70449219 18.48441406 13.34257813 18.73835938 14 19 C14 16.03 14 13.06 14 10 C13.67 10 13.34 10 13 10 Z M-15 20 C-11 21 -11 21 -11 21 Z M40 21 C39.67 22.65 39.34 24.3 39 26 C41.475 26.495 41.475 26.495 44 27 C44.33 25.35 44.66 23.7 45 22 C43.35 21.67 41.7 21.34 40 21 Z M59 21 C58.67 22.65 58.34 24.3 58 26 C60.475 26.495 60.475 26.495 63 27 C63.33 25.35 63.66 23.7 64 22 C62.35 21.67 60.7 21.34 59 21 Z M-23 25 C-22 27 -22 27 -22 27 Z M-15 26 C-13.02 26.99 -13.02 26.99 -11 28 C-10.67 27.34 -10.34 26.68 -10 26 C-11.65 26 -13.3 26 -15 26 Z " fill="#32443E" transform="translate(63,3)"/>
<path d="M0 0 C2.31 0 4.62 0 7 0 C7.33 3.63 7.66 7.26 8 11 C9.258125 10.938125 10.51625 10.87625 11.8125 10.8125 C15.72231986 10.79173989 15.72231986 10.79173989 18 12.5 C18.33 12.995 18.66 13.49 19 14 C19.55558594 13.51144531 20.11117187 13.02289063 20.68359375 12.51953125 C23.40393736 10.73502254 24.84495592 10.6244109 28.0625 10.6875 C29.34833984 10.69330078 29.34833984 10.69330078 30.66015625 10.69921875 C33 11 33 11 36 13 C36.33 12.34 36.66 11.68 37 11 C39.58445773 10.8918134 42.16437352 10.81262763 44.75 10.75 C45.47960937 10.71648438 46.20921875 10.68296875 46.9609375 10.6484375 C50.50655913 10.58397165 52.55879955 10.67593862 55.45703125 12.8046875 C57.6452735 15.91808533 57.93471239 18.21331838 58 22 C55.82758621 27.5862069 55.82758621 27.5862069 53 29 C50.3276379 29.13415472 47.67749512 29.04318541 45 29 C44.67 31.64 44.34 34.28 44 37 C41.69 37 39.38 37 37 37 C36.67 33.7 36.34 30.4 36 27 C35.01 27.66 34.02 28.32 33 29 C30.625 29.265625 30.625 29.265625 28 29.25 C27.13375 29.25515625 26.2675 29.2603125 25.375 29.265625 C23 29 23 29 20 27 C19.67 27.66 19.34 28.32 19 29 C16.69 29 14.38 29 12 29 C11.67 25.04 11.34 21.08 11 17 C10.01 17.33 9.02 17.66 8 18 C7.67 21.63 7.34 25.26 7 29 C4.69 29 2.38 29 0 29 C0 19.43 0 9.86 0 0 Z M26 17 C25.67 18.65 25.34 20.3 25 22 C27.475 22.495 27.475 22.495 30 23 C30.33 21.35 30.66 19.7 31 18 C29.35 17.67 27.7 17.34 26 17 Z M45 17 C44.67 18.65 44.34 20.3 44 22 C46.475 22.495 46.475 22.495 49 23 C49.33 21.35 49.66 19.7 50 18 C48.35 17.67 46.7 17.34 45 17 Z " fill="#30433D" transform="translate(77,7)"/>
<path d="M0 0 C-0.66 2.64 -1.32 5.28 -2 8 C-1.62875 7.525625 -1.2575 7.05125 -0.875 6.5625 C1.74944087 4.37546594 3.6028169 4.19599133 7 4 C10.875 4.9375 10.875 4.9375 14 6 C13.67 7.98 13.34 9.96 13 12 C9.52176885 13.15941038 7.54104422 12.70820884 4 12 C5.9468273 14.29038506 8.02066476 15.63466117 10.625 17.0625 C14 19 14 19 15 21 C15.47266285 25.17518846 15.41607253 27.32567556 13.1875 30.9375 C8.58448056 33.91592434 4.34664819 33.72978675 -1 33 C-3.80078125 32.1015625 -3.80078125 32.1015625 -6 31 C-6.6875 28.9375 -6.6875 28.9375 -7 27 C-7.66 26.67 -8.32 26.34 -9 26 C-9 26.66 -9 27.32 -9 28 C-11.31 27.34 -13.62 26.68 -16 26 C-16 25.67 -16 25.34 -16 25 C-12.04 25 -8.08 25 -4 25 C-3.67 24.01 -3.34 23.02 -3 22 C-3 22.66 -3 23.32 -3 24 C-1.33333333 24.33333333 0.33333333 24.66666667 2 25 C3.66666667 25.33333333 5.33333333 25.66666667 7 26 C7 25.01 7 24.02 7 23 C6.0925 22.7525 5.185 22.505 4.25 22.25 C0.78487956 20.91726137 -0.78603464 19.95195381 -3 17 C-3.75 13.75 -3.75 13.75 -4 11 C-4.556875 11.474375 -5.11375 11.94875 -5.6875 12.4375 C-8.18346074 14.12395996 -10.0446237 14.58953107 -13 15 C-11.35 15 -9.7 15 -8 15 C-8 15.33 -8 15.66 -8 16 C-10.97 16 -13.94 16 -17 16 C-16.34 15.34 -15.68 14.68 -15 14 C-16.06645115 12.70366379 -16.06645115 12.70366379 -18.5625 12.9375 C-19.366875 12.958125 -20.17125 12.97875 -21 13 C-21.66 14.32 -22.32 15.64 -23 17 C-23.12375 15.9275 -23.2475 14.855 -23.375 13.75 C-23.89643936 10.62136385 -24.40088254 8.66519576 -26 6 C-23.01405576 4.50702788 -20.29146376 4.88244772 -17 5 C-16.34 5.33 -15.68 5.66 -15 6 C-14.236875 5.195625 -13.47375 4.39125 -12.6875 3.5625 C-8.56928785 -0.3641674 -5.49792264 -0.10373439 0 0 Z " fill="#3A4C45" transform="translate(63,3)"/>
<path d="M0 0 C1.65 0.33 3.3 0.66 5 1 C4.38125 1.86625 3.7625 2.7325 3.125 3.625 C1.15345216 6.75628186 0.01033009 9.46384469 -1 13 C0.65 13 2.3 13 4 13 C4 13.33 4 13.66 4 14 C1.03 14 -1.94 14 -5 14 C-4.34 13.34 -3.68 12.68 -3 12 C-4.06645115 10.70366379 -4.06645115 10.70366379 -6.5625 10.9375 C-7.366875 10.958125 -8.17125 10.97875 -9 11 C-9.66 12.32 -10.32 13.64 -11 15 C-11.12375 13.9275 -11.2475 12.855 -11.375 11.75 C-11.89643936 8.62136385 -12.40088254 6.66519576 -14 4 C-11.01405576 2.50702788 -8.29146376 2.88244772 -5 3 C-4.34 3.33 -3.68 3.66 -3 4 C-2.01 2.68 -1.02 1.36 0 0 Z " fill="#44554F" transform="translate(51,5)"/>
<path d="M0 0 C2.64 0 5.28 0 8 0 C9.4606285 2.64738916 10 3.89448334 10 7 C8.35 7 6.7 7 5 7 C4.34 8.32 3.68 9.64 3 11 C2.87625 9.9275 2.7525 8.855 2.625 7.75 C2.10356064 4.62136385 1.59911746 2.66519576 0 0 Z " fill="#40514B" transform="translate(37,9)"/>
<path d="M0 0 C1.67542976 0.28604898 3.34385343 0.61781233 5 1 C3.35 3.64 1.7 6.28 0 9 C-0.66 8.67 -1.32 8.34 -2 8 C-1.125 1.125 -1.125 1.125 0 0 Z " fill="#465852" transform="translate(51,5)"/>
<path d="M0 0 C6.625 -0.125 6.625 -0.125 10 1 C9.67 1.99 9.34 2.98 9 4 C8.01 4 7.02 4 6 4 C5.34 3.34 4.68 2.68 4 2 C2.68252676 1.30251417 1.35085807 0.63040043 0 0 Z " fill="#616F6A" transform="translate(39,8)"/>
</svg>
