<?xml version="1.0" encoding="UTF-8"?>
<svg version="1.1" xmlns="http://www.w3.org/2000/svg" width="500" height="500">
<path d="M0 0 C165 0 330 0 500 0 C500 165 500 330 500 500 C335 500 170 500 0 500 C0 335 0 170 0 0 Z " fill="#FEFEFE" transform="translate(0,0)"/>
<path d="M0 0 C-10.36857163 31.64625653 -10.36857163 31.64625653 -17.5546875 36.23828125 C-23.42376519 38.06650833 -29.93314947 37.32774102 -36 37 C-36.30135419 26.26917023 -32.49069562 19.90209282 -25.31640625 12.12890625 C-23.01319099 10.01212325 -20.7359874 8.5006915 -18 7 C-27.55046022 11.52487824 -33.50026799 15.16981622 -38 25 C-39.19744302 29.07225037 -39.1108515 33.03970037 -39.0625 37.25 C-39.05798828 37.99507812 -39.05347656 38.74015625 -39.04882812 39.5078125 C-39.03709246 41.3385764 -39.0191585 43.16929873 -39 45 C-37.700625 44.9175 -36.40125 44.835 -35.0625 44.75 C-26.80599737 44.78882368 -20.59558022 48.62609649 -14.66015625 54.13671875 C-9.31551366 60.13529408 -9 67.28502424 -9 75 C-21.21 75 -33.42 75 -46 75 C-44.85266498 81.62503211 -44.85266498 81.62503211 -42.1796875 83.4140625 C-38.10381842 84.50972623 -34.17391423 84.57457364 -30 84 C-26.69140528 82.04543223 -26.69140528 82.04543223 -24 80 C-21.17358187 80.08832557 -19.48542113 81.26254024 -16.9375 82.5625 C-14.09595312 84.21977643 -14.09595312 84.21977643 -11 84 C-9.02 80.37 -7.04 76.74 -5 73 C-1.17584881 74.52966048 1.68811191 76.00131094 5.125 78.125 C10.7685193 81.25604589 15.62661693 82.07428175 22 81 C25.18280977 79.75943405 25.18280977 79.75943405 27 77 C27.50042146 74.08461971 27.50042146 74.08461971 27 71 C22.28316794 66.37826536 16.02298078 63.86404087 10.125 61.0625 C2.90534887 57.44121467 -2.73793984 52.54672762 -6 45 C-7.10852383 37.13374433 -6.44708849 30.76634341 -1.9140625 24.16015625 C2.95952725 18.65996211 9.67380348 14.53099311 17.0234375 13.62890625 C27.25293072 13.42622398 37.33316125 15.2221075 46 21 C44.45454854 26.47932789 41.84456788 31.11429181 39 36 C37.39566191 35.52140759 35.79153584 35.04210442 34.1875 34.5625 C33.29417969 34.29566406 32.40085937 34.02882812 31.48046875 33.75390625 C29.64526945 33.19612127 27.81966274 32.60655425 26 32 C21.64118873 31.51033612 18.17074128 31.2752554 14.375 33.625 C12.76499129 35.96135628 12.76499129 35.96135628 12.953125 38.90234375 C13.74769152 42.30763922 13.74769152 42.30763922 17.2109375 44.08984375 C18.58992659 44.72569418 19.97872466 45.34056462 21.375 45.9375 C22.84057757 46.61802839 24.30411836 47.30295978 25.765625 47.9921875 C26.48685547 48.32831055 27.20808594 48.66443359 27.95117188 49.01074219 C36.00079952 52.89743085 43.8794426 57.7588852 48 66 C48.33 48.18 48.66 30.36 49 12 C54.94 12 60.88 12 67 12 C67 24.87 67 37.74 67 51 C70.3 49.02 73.6 47.04 77 45 C84.21962644 43.98315121 90.55092238 45.58578244 97 49 C100.9207159 52.29590062 103.50616167 56.07033351 105 61 C105.35191406 60.48050781 105.70382812 59.96101563 106.06640625 59.42578125 C111.51927789 51.72342209 117.56466223 46.80913556 127 45 C138.17018888 43.92745259 147.43245222 45.6712435 156.4609375 52.49609375 C159.30363875 55.2738602 161.06798474 58.54579089 163 62 C163.33 56.72 163.66 51.44 164 46 C169.94 46 175.88 46 182 46 C182.33 47.65 182.66 49.3 183 51 C183.47050781 50.65066406 183.94101562 50.30132812 184.42578125 49.94140625 C185.04839844 49.48636719 185.67101562 49.03132813 186.3125 48.5625 C187.23482422 47.88380859 187.23482422 47.88380859 188.17578125 47.19140625 C192.95084892 44.07278604 198.52201146 44.46538347 204 45 C212.24710953 47.44124561 217.56836661 51.81683228 221.984375 59.09765625 C225.56400314 65.80257512 225.15864158 75.79857073 223.1640625 83.03125 C219.98243372 89.9496911 214.25756947 96.27206742 207 99 C204.38349191 99.27165931 201.92918241 99.41546993 199.3125 99.4375 C198.64283203 99.47037109 197.97316406 99.50324219 197.28320312 99.53710938 C190.46806579 99.60871063 188.76174337 97.7565241 182 94 C182 103.9 182 113.8 182 124 C176.06 124 170.12 124 164 124 C163.67 110.47 163.34 96.94 163 83 C161.68 84.98 160.36 86.96 159 89 C157.140625 91.01171875 157.140625 91.01171875 155.25 92.6875 C154.32960938 93.52861328 154.32960938 93.52861328 153.390625 94.38671875 C144.67097004 100.27106107 134.14216557 100.34359235 124 99 C116.09866129 96.64214019 110.74252542 92.66517086 106 86 C105.67 85.34 105.34 84.68 105 84 C104.67 88.62 104.34 93.24 104 98 C98.06 98 92.12 98 86 98 C85.98582031 95.59203125 85.97164062 93.1840625 85.95703125 90.703125 C85.92640126 88.36639457 85.88731545 86.02994767 85.84741211 83.69335938 C85.82424116 82.07171687 85.80983846 80.44992407 85.80444336 78.828125 C85.79514627 76.49384004 85.754147 74.16191559 85.70703125 71.828125 C85.71293022 70.74352997 85.71293022 70.74352997 85.71894836 69.63702393 C85.61032074 65.87434796 85.287737 64.29913458 82.6394043 61.54589844 C79.34058452 59.61378052 77.76553492 59.30837114 74 60 C69.07048335 63.1991719 69.07048335 63.1991719 67.22705078 68.59692383 C67.1864677 69.96639929 67.17741334 71.33707152 67.1953125 72.70703125 C67.18160614 73.43242599 67.16789978 74.15782074 67.15377808 74.90519714 C67.11656796 77.20826753 67.12018586 79.50917245 67.125 81.8125 C67.1068665 83.37959086 67.08606173 84.94665323 67.0625 86.51367188 C67.00572875 90.34370391 67.00425056 94.16811604 67 98 C61.06 98 55.12 98 49 98 C48.67 92.39 48.34 86.78 48 81 C47.360625 82.52625 46.72125 84.0525 46.0625 85.625 C42.74653949 92.2757617 38.06007247 95.25132497 31.37890625 98.12890625 C20.23296874 101.0023676 6.67458605 100.56186038 -3.66015625 95.38671875 C-5.34666033 94.38720465 -7.01964903 93.36476014 -8.68359375 92.328125 C-10.84450878 90.82021927 -10.84450878 90.82021927 -13 91.0625 C-15.16332474 91.9787452 -15.16332474 91.9787452 -17.3125 93.875 C-23.08155319 98.43657694 -28.28216475 99.5150183 -35.4375 99.375 C-36.1895874 99.36412354 -36.9416748 99.35324707 -37.71655273 99.34204102 C-46.14782516 99.09899879 -51.92551457 96.9725158 -58.16796875 91.0625 C-64.2494527 84.21596796 -65.85600097 77.40452299 -65.47265625 68.33203125 C-64.29710201 60.04485963 -59.61433885 54.91594007 -53.34765625 49.6640625 C-49.20630545 46.72859588 -45.15350973 45 -40 45 C-43.14651339 32.19296258 -43.14651339 32.19296258 -51 22 C-53.70808151 20.96747064 -53.70808151 20.96747064 -56 21 C-55.113125 21.515625 -54.22625 22.03125 -53.3125 22.5625 C-49.50006735 25.089029 -47.4248096 28.14883181 -45 32 C-45 32.66 -45 33.32 -45 34 C-49.25156058 36.12578029 -53.31832005 36.70317723 -58 36 C-63.55184211 33.50733619 -66.18369047 29.20504052 -69.38671875 24.2421875 C-70.96791015 21.76758679 -70.96791015 21.76758679 -74 20 C-74 19.34 -74 18.68 -74 18 C-66.52695347 15.21933152 -58.00909808 14.59329892 -50.4375 17.25 C-48.0213726 18.98465557 -46.07416545 20.87759815 -44 23 C-43.67128906 22.29875 -43.34257812 21.5975 -43.00390625 20.875 C-38.56476017 12.02076826 -33.28241905 5.5584613 -24.0625 1.5 C-16.32473655 -1.02030009 -8.02971 -0.31800832 0 0 Z " fill="#293D36" transform="translate(202,188)"/>
<path d="M0 0 C-10.36857163 31.64625653 -10.36857163 31.64625653 -17.5546875 36.23828125 C-23.42376519 38.06650833 -29.93314947 37.32774102 -36 37 C-36.30135419 26.26917023 -32.49069562 19.90209282 -25.31640625 12.12890625 C-23.01319099 10.01212325 -20.7359874 8.5006915 -18 7 C-27.55046022 11.52487824 -33.50026799 15.16981622 -38 25 C-39.19744302 29.07225037 -39.1108515 33.03970037 -39.0625 37.25 C-39.05798828 37.99507812 -39.05347656 38.74015625 -39.04882812 39.5078125 C-39.03709246 41.3385764 -39.0191585 43.16929873 -39 45 C-37.700625 44.9175 -36.40125 44.835 -35.0625 44.75 C-26.80599737 44.78882368 -20.59558022 48.62609649 -14.66015625 54.13671875 C-9.31551366 60.13529408 -9 67.28502424 -9 75 C-21.21 75 -33.42 75 -46 75 C-44.85266498 81.62503211 -44.85266498 81.62503211 -42.1796875 83.4140625 C-38.10381842 84.50972623 -34.17391423 84.57457364 -30 84 C-26.69140528 82.04543223 -26.69140528 82.04543223 -24 80 C-21.17358187 80.08832557 -19.48542113 81.26254024 -16.9375 82.5625 C-14.09595312 84.21977643 -14.09595312 84.21977643 -11 84 C-9.02 80.37 -7.04 76.74 -5 73 C-1.17584881 74.52966048 1.68811191 76.00131094 5.125 78.125 C10.7685193 81.25604589 15.62661693 82.07428175 22 81 C25.18280977 79.75943405 25.18280977 79.75943405 27 77 C27.50042146 74.08461971 27.50042146 74.08461971 27 71 C22.28316794 66.37826536 16.02298078 63.86404087 10.125 61.0625 C2.90534887 57.44121467 -2.73793984 52.54672762 -6 45 C-7.10852383 37.13374433 -6.44708849 30.76634341 -1.9140625 24.16015625 C2.95952725 18.65996211 9.67380348 14.53099311 17.0234375 13.62890625 C27.25293072 13.42622398 37.33316125 15.2221075 46 21 C44.45454854 26.47932789 41.84456788 31.11429181 39 36 C37.39566191 35.52140759 35.79153584 35.04210442 34.1875 34.5625 C33.29417969 34.29566406 32.40085937 34.02882812 31.48046875 33.75390625 C29.64526945 33.19612127 27.81966274 32.60655425 26 32 C21.64118873 31.51033612 18.17074128 31.2752554 14.375 33.625 C12.76499129 35.96135628 12.76499129 35.96135628 12.953125 38.90234375 C13.74769152 42.30763922 13.74769152 42.30763922 17.2109375 44.08984375 C18.58992659 44.72569418 19.97872466 45.34056462 21.375 45.9375 C22.84057757 46.61802839 24.30411836 47.30295978 25.765625 47.9921875 C26.48685547 48.32831055 27.20808594 48.66443359 27.95117188 49.01074219 C36.50479282 53.14077937 43.66136719 58.08151457 48.375 66.4375 C50.53863248 75.30839315 47.83468703 83.17053321 43.3125 90.875 C33.25536688 100.1166899 21.55702907 99.75620839 8.64111328 99.23974609 C2.08007138 98.64416991 -3.16160217 95.76831772 -8.68359375 92.328125 C-10.84450878 90.82021927 -10.84450878 90.82021927 -13 91.0625 C-15.16332474 91.9787452 -15.16332474 91.9787452 -17.3125 93.875 C-23.08155319 98.43657694 -28.28216475 99.5150183 -35.4375 99.375 C-36.1895874 99.36412354 -36.9416748 99.35324707 -37.71655273 99.34204102 C-46.14782516 99.09899879 -51.92551457 96.9725158 -58.16796875 91.0625 C-64.2494527 84.21596796 -65.85600097 77.40452299 -65.47265625 68.33203125 C-64.29710201 60.04485963 -59.61433885 54.91594007 -53.34765625 49.6640625 C-49.20630545 46.72859588 -45.15350973 45 -40 45 C-43.14651339 32.19296258 -43.14651339 32.19296258 -51 22 C-53.70808151 20.96747064 -53.70808151 20.96747064 -56 21 C-55.113125 21.515625 -54.22625 22.03125 -53.3125 22.5625 C-49.50006735 25.089029 -47.4248096 28.14883181 -45 32 C-45 32.66 -45 33.32 -45 34 C-49.25156058 36.12578029 -53.31832005 36.70317723 -58 36 C-63.55184211 33.50733619 -66.18369047 29.20504052 -69.38671875 24.2421875 C-70.96791015 21.76758679 -70.96791015 21.76758679 -74 20 C-74 19.34 -74 18.68 -74 18 C-66.52695347 15.21933152 -58.00909808 14.59329892 -50.4375 17.25 C-48.0213726 18.98465557 -46.07416545 20.87759815 -44 23 C-43.67128906 22.29875 -43.34257812 21.5975 -43.00390625 20.875 C-38.56476017 12.02076826 -33.28241905 5.5584613 -24.0625 1.5 C-16.32473655 -1.02030009 -8.02971 -0.31800832 0 0 Z " fill="#293C35" transform="translate(202,188)"/>
<path d="M0 0 C42.72222222 0 42.72222222 0 51.5625 8.375 C56.57216268 15.26143896 58.00394029 21.61075184 57 30 C55.41118165 36.86489438 52.44469758 41.20477839 47.09765625 45.72265625 C44.72979003 47.16454127 42.7288979 47.61558134 40 48 C44.79430198 53.90705356 49.63289275 59.76827577 54.5625 65.5625 C68 81.38225193 68 81.38225193 68 83 C48.10900894 85.35246437 48.10900894 85.35246437 41.87890625 81.78564453 C38.25314588 78.49594528 35.80749376 74.43201764 33.359375 70.22998047 C31.46596681 67.12394771 29.27643089 64.28476214 27.0546875 61.40844727 C24.66461488 58.30154686 22.3385297 55.14587923 20 52 C19.67 62.23 19.34 72.46 19 83 C12.73 83 6.46 83 0 83 C0 55.61 0 28.22 0 0 Z " fill="#283C35" transform="translate(77,203)"/>
<path d="M0 0 C7.56366561 3.87604216 12.4177247 9.12817411 15.125 17.25 C15.87849613 26.73328704 16.18866808 35.35414444 10.125 43.25 C5.57111701 48.0744107 1.29433089 51.92094379 -5.44921875 52.62109375 C-6.82009285 52.65414279 -8.19127618 52.67595555 -9.5625 52.6875 C-10.23216797 52.72037109 -10.90183594 52.75324219 -11.59179688 52.78710938 C-18.40693421 52.85871063 -20.11325663 51.0065241 -26.875 47.25 C-26.875 57.15 -26.875 67.05 -26.875 77.25 C-32.485 77.25 -38.095 77.25 -43.875 77.25 C-44.04499852 69.65943107 -44.20525391 62.06873545 -44.35717773 54.4777832 C-44.4099557 51.90513825 -44.46521846 49.33254285 -44.52319336 46.76000977 C-44.87186993 31.20297073 -44.8955505 15.78173578 -43.875 0.25 C-38.265 0.25 -32.655 0.25 -26.875 0.25 C-26.545 1.57 -26.215 2.89 -25.875 4.25 C-25.40449219 3.90066406 -24.93398438 3.55132812 -24.44921875 3.19140625 C-23.82660156 2.73636719 -23.20398438 2.28132812 -22.5625 1.8125 C-21.94761719 1.36003906 -21.33273437 0.90757812 -20.69921875 0.44140625 C-14.7240801 -3.46098623 -6.31502946 -2.70190019 0 0 Z " fill="#273B34" transform="translate(410.875,234.75)"/>
<path d="M0 0 C4.30619632 2.23590963 7.26400997 4.40473228 9 9 C9.2043181 13.67377643 8.61424672 17.04890831 6.0625 21 C2.44851353 24.50447172 -0.58186363 24.3906884 -5.44921875 24.35546875 C-9.5941459 23.7778449 -11.21978497 22.06536529 -14 19 C-15.2517847 15.24464589 -15.77373976 11.88289586 -15 8 C-11.05337391 1.64896787 -7.56987948 -0.63082329 0 0 Z " fill="#F9FAFA" transform="translate(339,248)"/>
<path d="M0 0 C3.70390021 2.02666238 5.65363011 3.48044516 8 7 C8.66624845 11.07463524 8.94496094 15.24356703 6.94921875 18.953125 C4.65162852 21.74547655 2.68531521 23.76405587 -0.953125 24.2734375 C-5.24672199 24.46329043 -8.09582964 24.4342668 -11.5 21.625 C-15.35718058 17.57496039 -15.33996851 14.90688201 -15.28515625 9.48046875 C-14.88136394 5.96802881 -13.61222617 4.32197882 -11 2 C-7.51335549 -0.52481154 -4.20248882 -0.43474022 0 0 Z " fill="#FAFBFB" transform="translate(399,248)"/>
<path d="M0 0 C11.66666667 0 11.66666667 0 16.875 4.6875 C18.54929298 8.12910223 18.76546581 11.30733625 18 15 C16.59588221 17.59093164 15.2175655 18.93363215 13 21 C9 22 9 22 0 22 C0 14.74 0 7.48 0 0 Z " fill="#F7F8F8" transform="translate(96,218)"/>
<path d="M0 0 C3.0625 2.3125 3.0625 2.3125 5 5 C5 5.99 5 6.98 5 8 C-1.27 8 -7.54 8 -14 8 C-13 3 -13 3 -11.5 1.1875 C-7.68428152 -0.62496628 -4.13825937 -0.80261614 0 0 Z " fill="#F8F8F8" transform="translate(170,245)"/>
<path d="M0 0 C5.84143689 -0.30744405 9.78397085 0.00561289 15 3 C18.51933042 6.28153782 21.091478 9.19328477 22 14 C18.51594709 12.83864903 18.18685578 12.09557095 16.25 9.125 C12.44019014 3.85350567 8.94088883 2.58817777 2.5625 1.3125 C1.2940625 1.1578125 1.2940625 1.1578125 0 1 C0 0.67 0 0.34 0 0 Z " fill="#DCDFDE" transform="translate(137,207)"/>
<path d="M0 0 C-4.95 2.475 -4.95 2.475 -10 5 C-10.66 4.34 -11.32 3.68 -12 3 C-10.5682384 2.30062798 -9.12932968 1.61587282 -7.6875 0.9375 C-6.48673828 0.36322266 -6.48673828 0.36322266 -5.26171875 -0.22265625 C-3 -1 -3 -1 0 0 Z " fill="#C1C7C5" transform="translate(187,195)"/>
</svg>
